<?xml version="1.0" standalone="no"?>
<!DOCTYPE svg PUBLIC "-//W3C//DTD SVG 1.1//EN" "http://www.w3.org/Graphics/SVG/1.1/DTD/svg11.dtd" >
<svg xmlns="http://www.w3.org/2000/svg" xmlns:xlink="http://www.w3.org/1999/xlink" version="1.1">
<metadata>
Created by FontForge 20170910 at Thu Apr 12 18:28:40 2007
 By Jimmy Wärting
(c) Copyright 2006, 2007 Berthold LLC. All Rights Reserved. This font software computer program is the property of Berthold. You may not reproduce, modify, adapt, translate, alter nor create derivative works of the font software. You may not reverse engineer, decompile, decrypt, disassemble, nor seek to discover the source code of the font software.
</metadata>
<defs>
<font id="AkzidenzGroteskPro-LightEx" horiz-adv-x="708" >
  <font-face 
    font-family="Akzidenz-Grotesk Pro Light Ext"
    font-weight="300"
    font-stretch="expanded"
    units-per-em="1000"
    panose-1="2 0 5 4 4 0 0 2 0 4"
    ascent="750"
    descent="-250"
    x-height="494"
    cap-height="706"
    bbox="-196 -287 1530 998"
    underline-thickness="50"
    underline-position="-200"
    unicode-range="U+0020-FB02"
  />
<missing-glyph horiz-adv-x="500" 
d="M0 0v706h500v-706h-500zM250 401l170 255h-340zM280 353l170 -258v516zM80 50h340l-170 258zM50 611v-516l170 258z" />
    <glyph glyph-name="fi" unicode="fi" horiz-adv-x="562" 
d="M491 582h-66v96h66v-96zM491 0h-66v494h66v-494zM341 443h-167v-443h-66v443h-98v51h98v97q0 62 28 94q33 38 111 38q50 0 94 -10v-58q-45 10 -90 10q-13 0 -23 -2t-24 -9t-22 -26t-8 -48v-86h167v-51z" />
    <glyph glyph-name="fl" unicode="fl" horiz-adv-x="562" 
d="M492 0h-66v706h66v-706zM341 443h-167v-443h-66v443h-98v51h98v97q0 62 28 94q33 38 111 38q50 0 94 -10v-58q-45 10 -90 10q-13 0 -23 -2t-24 -9t-22 -26t-8 -48v-86h167v-51z" />
    <glyph glyph-name=".notdef" horiz-adv-x="500" 
d="M0 0v706h500v-706h-500zM250 401l170 255h-340zM280 353l170 -258v516zM80 50h340l-170 258zM50 611v-516l170 258z" />
    <glyph glyph-name=".null" horiz-adv-x="0" 
 />
    <glyph glyph-name="nonmarkingreturn" horiz-adv-x="333" 
 />
    <glyph glyph-name="space" unicode=" " horiz-adv-x="313" 
 />
    <glyph glyph-name="exclam" unicode="!" horiz-adv-x="313" 
d="M140 706h71v-304l-13 -202h-46l-12 223v283zM214 0h-77v99h77v-99z" />
    <glyph glyph-name="quotedbl" unicode="&#x22;" horiz-adv-x="348" 
d="M313 744l-26 -291h-36l-27 291h89zM124 744l-26 -291h-36l-27 291h89z" />
    <glyph glyph-name="numbersign" unicode="#" horiz-adv-x="768" 
d="M721 410h-193l-10 -97h191v-54h-196l-25 -259h-62l28 259h-145l-28 -259h-58l26 259h-200v54h206l9 97h-202v57h207l23 239h63l-25 -239h145l22 239h60l-24 -239h188v-57zM469 410h-145l-10 -97h145z" />
    <glyph glyph-name="dollar" unicode="$" horiz-adv-x="812" 
d="M743 585l-65 -34q-66 99 -236 111v-257q184 -22 243 -59q15 -9 30.5 -23t31.5 -45.5t16 -67.5q0 -100 -98 -167q-77 -53 -214 -60h-9v-67h-60v67q-54 2 -100 11.5t-77 19.5t-59.5 30t-43 31.5t-32 36.5t-21.5 33t-17 32l74 28q52 -154 276 -160v300q-42 4 -68.5 7.5
t-65.5 11t-64 19.5t-49.5 30t-36.5 45t-12 62q0 48 33 97.5t109 78.5q61 23 154 28v64h60v-64q78 -7 138 -25t116 -66q9 -8 19.5 -18.5t18.5 -20.5zM382 414v249q-18 0 -45 -3t-76.5 -21t-75.5 -48q-27 -30 -27 -66q0 -30 15 -50t49.5 -31.5t67.5 -17.5t92 -12zM442 337
v-291q103 7 163 39q85 45 85 122q0 43 -32 71q-25 22 -73.5 34t-142.5 25z" />
    <glyph glyph-name="percent" unicode="%" horiz-adv-x="1083" 
d="M765 688l-399 -688h-53l399 688h53zM448 469q0 -89 -57 -155.5t-155 -66.5q-94 0 -150 68t-56 156q0 102 62.5 161.5t146.5 59.5q67 0 116 -35t71 -84t22 -104zM397 467q0 74 -40.5 127.5t-117.5 53.5q-76 0 -117.5 -50.5t-41.5 -127.5q0 -80 44 -129.5t114 -49.5
q67 0 113 47t46 129zM1050 216q0 -89 -57 -155.5t-155 -66.5q-94 0 -150 68t-56 156q0 102 62.5 161.5t146.5 59.5q67 0 116 -35t71 -84t22 -104zM999 214q0 74 -40.5 127.5t-117.5 53.5q-76 0 -117.5 -50.5t-41.5 -127.5q0 -80 44 -129.5t114 -49.5q67 0 113 47t46 129z
" />
    <glyph glyph-name="ampersand" unicode="&#x26;" horiz-adv-x="771" 
d="M633 375h65q-23 -153 -95 -243q54 -41 82 -53.5t70 -18.5v-60q-37 0 -75.5 14t-62 29t-60.5 43q-102 -102 -258 -102q-155 0 -226 99q-35 48 -35 103q0 136 220 207q-25 30 -37.5 47t-25 47t-12.5 58q0 51 32 89q48 60 147 60q70 0 116.5 -43t46.5 -109q0 -46 -24 -81
q-16 -23 -41.5 -42t-44.5 -28t-54 -24q100 -113 196 -198q63 88 76 206zM322 415q72 26 106.5 58t34.5 75q0 40 -31 65.5t-73 25.5q-44 0 -76 -26t-32 -68q0 -27 16 -55.5t55 -74.5zM513 123q-138 126 -214 221q-1 0 -14 -4.5t-28 -10t-35 -13.5t-33 -15q-80 -40 -80 -112
q0 -15 4.5 -32t18 -38t33.5 -37.5t55.5 -27.5t80.5 -11q126 0 212 80z" />
    <glyph glyph-name="quotesingle" unicode="'" horiz-adv-x="159" 
d="M124 744l-26 -291h-36l-27 291h89z" />
    <glyph glyph-name="parenleft" unicode="(" horiz-adv-x="354" 
d="M337 -189l-25 -29q-114 88 -174.5 212.5t-60.5 269.5q0 257 181 425q8 7 17 14.5t20 16.5t17 14l25 -26q-51 -51 -82 -96q-104 -151 -104 -361q0 -257 186 -440z" />
    <glyph glyph-name="parenright" unicode=")" horiz-adv-x="354" 
d="M18 705l25 29q113 -88 174 -212.5t61 -266.5q0 -259 -182 -428q-23 -22 -53 -45l-25 26q51 51 82 96q50 73 76.5 167.5t26.5 187.5q0 264 -185 446z" />
    <glyph glyph-name="asterisk" unicode="*" horiz-adv-x="357" 
d="M324 595l-110 -39l67 -91l-37 -27l-68 90l-61 -90l-38 27l62 92l-106 30l14 43l106 -28v109h48v-111l108 36z" />
    <glyph glyph-name="plus" unicode="+" horiz-adv-x="772" 
d="M678 264h-262v-239h-60v239h-261v59h261v237h60v-237h262v-59z" />
    <glyph glyph-name="comma" unicode="," horiz-adv-x="271" 
d="M97 99h75v-125q0 -37 -18.5 -61.5t-54.5 -28.5v36q36 5 36 71v9h-38v99z" />
    <glyph glyph-name="hyphen" unicode="-" horiz-adv-x="364" 
d="M326 264h-288v60h288v-60z" />
    <glyph glyph-name="period" unicode="." horiz-adv-x="271" 
d="M173 0h-77v99h77v-99z" />
    <glyph glyph-name="slash" unicode="/" horiz-adv-x="500" 
d="M475 706l-398 -706h-60l399 706h59z" />
    <glyph glyph-name="zero" unicode="0" horiz-adv-x="729" 
d="M697 344q0 -87 -36 -164t-103 -127q-86 -64 -199 -64q-145 0 -237 103.5t-92 252.5q0 122 62 215q14 20 34 40t53.5 45t82.5 40.5t104 15.5q25 0 52.5 -4.5t65 -17t76 -40.5t67.5 -69q70 -95 70 -226zM624 348q0 150 -91 229q-72 62 -170 62q-67 0 -127 -32
q-69 -37 -101.5 -108t-32.5 -157q0 -65 17 -114q27 -81 92.5 -129t150.5 -48q57 0 104 21q63 27 110.5 94t47.5 182z" />
    <glyph glyph-name="one" unicode="1" horiz-adv-x="729" 
d="M417 0h-69v543q-60 -47 -170 -47h-13v57q54 0 91 10t68.5 42t46.5 88h46v-693z" />
    <glyph glyph-name="two" unicode="2" horiz-adv-x="729" 
d="M670 0h-597v64q243 112 326 162q162 98 186 201q5 21 5 42q0 14 -3.5 31.5t-17 44t-35.5 47t-63.5 35.5t-96.5 15q-70 0 -129 -28t-85 -85q-18 -39 -18 -93l-69 11q12 122 92.5 188.5t211.5 66.5q120 0 199 -63q85 -67 85 -170q0 -48 -21 -97q-22 -51 -71 -96.5
t-143 -100.5q-87 -51 -246 -116h490v-59z" />
    <glyph glyph-name="three" unicode="3" horiz-adv-x="729" 
d="M298 330v59h121q44 0 75 11q11 4 22.5 10t28 19t26.5 34t10 47q0 35 -18.5 61t-42.5 39t-57 20t-52 8.5t-37 1.5q-19 0 -35 -1t-50 -9.5t-60 -23.5t-51 -46.5t-35 -75.5l-66 22q63 194 297 194q76 0 132.5 -19t86 -49.5t43 -61.5t13.5 -62q0 -53 -33 -90t-92 -50
q30 -3 62.5 -19t61 -54.5t28.5 -90.5q0 -100 -87 -160q-81 -56 -218 -56q-122 0 -203 51q-76 48 -113 133l71 24q27 -61 67 -92q72 -58 184 -58q98 0 164.5 41.5t66.5 116.5q0 39 -25 70q-28 35 -71 45.5t-101 10.5h-113z" />
    <glyph glyph-name="four" unicode="4" horiz-adv-x="729" 
d="M685 185h-149v-185h-67v185h-435v59l428 451h74v-451h149v-59zM469 244v376l-355 -376h355z" />
    <glyph glyph-name="five" unicode="5" horiz-adv-x="729" 
d="M624 632h-468l-14 -234q82 86 235 86q99 0 162.5 -35t95.5 -83q37 -53 37 -125q0 -64 -34 -120q-32 -53 -101 -92.5t-177 -39.5q-130 0 -217 59q-68 47 -97 125l68 19q20 -69 81.5 -107t157.5 -38q59 0 113.5 18t96.5 64t42 113q0 49 -23.5 86.5t-61 57.5t-77 30
t-78.5 10q-114 0 -187 -66q-16 -14 -41 -46h-63l22 374h528v-56z" />
    <glyph glyph-name="six" unicode="6" horiz-adv-x="729" 
d="M675 548l-63 -29q-81 118 -231 118q-59 0 -106 -20t-75.5 -51.5t-47.5 -74t-26.5 -82.5t-8.5 -81q25 66 104.5 98t164.5 32q21 0 44.5 -2.5t66.5 -11t84 -33t69 -60.5q42 -54 42 -120q0 -64 -37 -119q-42 -62 -116.5 -92.5t-157.5 -30.5q-69 0 -132 22q-44 16 -78.5 41
t-55 55t-34 59t-19 61t-7.5 52t-2 40q0 75 16.5 136t43.5 100.5t53 63t55 39.5q73 40 167 40q132 0 218 -72q31 -26 69 -78zM145 230q0 -36 15 -67.5t29.5 -46t29.5 -24.5q59 -41 159 -41q145 0 211 81q35 44 35 96q0 68 -60.5 118t-182.5 50q-98 0 -167 -42.5t-69 -123.5z
" />
    <glyph glyph-name="seven" unicode="7" horiz-adv-x="729" 
d="M674 688v-50q-89 -64 -176 -191q-160 -236 -160 -447h-75q0 65 18.5 137.5t47 134t48.5 98t37 63.5q60 90 161 195h-503v60h602z" />
    <glyph glyph-name="eight" unicode="8" horiz-adv-x="729" 
d="M497 361q72 -7 127 -53t55 -117q0 -50 -27 -91q-72 -111 -290 -111q-130 0 -211 45q-46 25 -74 65.5t-28 90.5q0 69 55.5 115.5t126.5 55.5q-15 3 -29 6.5t-38 14.5t-41 26t-30 42t-13 61q0 64 48 109t111.5 62.5t132.5 17.5q115 0 197 -47t83 -141q0 -55 -38 -96
q-40 -42 -117 -55zM585 516q0 33 -18 58t-42.5 38t-57 20.5t-54.5 9.5t-42 2q-59 0 -102 -10.5t-65 -25t-35 -34.5t-15.5 -33t-2.5 -26q0 -37 22.5 -63t59 -38t70 -17t67.5 -5q63 0 111.5 14.5t70.5 33.5q33 30 33 76zM610 190q0 43 -28 73t-72.5 42.5t-78 17t-63.5 4.5
q-122 0 -186 -37q-64 -34 -64 -99q0 -57 61 -98q73 -46 184 -46q110 0 176 36q71 40 71 107z" />
    <glyph glyph-name="nine" unicode="9" horiz-adv-x="729" 
d="M73 130l62 30q26 -30 31 -35q78 -75 193 -75q70 0 128 32.5t91 92.5q39 70 45 197q-31 -74 -113 -108t-171 -34q-22 0 -45 2.5t-66.5 12t-84 35t-66.5 64.5q-33 51 -33 110t33 112t104 93.5t181 40.5q186 0 271 -133q53 -81 53 -204q0 -119 -39 -200q-27 -57 -70 -95
t-90 -53t-76.5 -20t-57.5 -5q-126 0 -213 68q-36 28 -67 72zM591 461q0 86 -64.5 131.5t-164.5 45.5q-77 0 -130 -24t-81 -56q-38 -44 -38 -100q0 -38 14 -68t38.5 -47t49 -28.5t53.5 -15.5t44.5 -5.5t29.5 -1.5q140 0 209 71q40 40 40 98z" />
    <glyph glyph-name="colon" unicode=":" horiz-adv-x="313" 
d="M217 391h-79v98h79v-98zM217 0h-79v99h79v-99z" />
    <glyph glyph-name="semicolon" unicode=";" horiz-adv-x="313" 
d="M217 391h-79v98h79v-98zM138 99h75v-125q0 -37 -18.5 -61.5t-54.5 -28.5v36q36 6 36 63v17h-38v99z" />
    <glyph glyph-name="less" unicode="&#x3c;" horiz-adv-x="772" 
d="M641 27l-542 234v67l542 242v-64l-478 -208l478 -204v-67z" />
    <glyph glyph-name="equal" unicode="=" horiz-adv-x="772" 
d="M678 350h-584v58h584v-58zM678 173h-584v58h584v-58z" />
    <glyph glyph-name="greater" unicode="&#x3e;" horiz-adv-x="772" 
d="M673 269l-542 -242v64l478 209l-478 203v67l542 -234v-67z" />
    <glyph glyph-name="question" unicode="?" 
d="M375 197h-62v9q0 36 6 58t23.5 36t34.5 20.5t53 16.5q35 10 60 20.5t50 28.5t38 45.5t13 64.5q0 79 -60 123q-61 44 -154 44q-72 0 -120.5 -27.5t-74.5 -61.5q-22 -29 -43 -91l-59 22q67 217 299 217q157 0 232 -91q46 -56 46 -132q0 -82 -49 -137q-42 -47 -135 -75
q-72 -20 -85 -34q-12 -13 -13 -56zM381 0h-75v99h75v-99z" />
    <glyph glyph-name="at" unicode="@" horiz-adv-x="931" 
d="M820 66l29 -32q-67 -55 -107 -80.5t-93 -45.5q-87 -32 -178 -32q-179 0 -290.5 105t-111.5 274q0 193 133.5 325t329.5 132q150 0 238 -81t88 -219q0 -129 -74.5 -234.5t-162.5 -105.5q-41 0 -61 22t-21 71q-71 -92 -158 -92q-61 0 -96 43t-35 117q0 112 66 197t152 85
q43 0 71 -21t52 -74l17 72h61l-58 -252q-7 -33 -7 -69q0 -22 10.5 -36.5t27.5 -14.5q28 0 60 30q50 47 80.5 118.5t30.5 144.5q0 119 -77 188t-209 69q-174 0 -291.5 -119t-117.5 -296q0 -153 94 -243.5t254 -90.5q94 0 185 36q50 19 83 40.5t86 68.5zM569 349
q0 52 -26 82.5t-70 30.5q-61 0 -108.5 -69t-47.5 -158q0 -52 24.5 -81.5t66.5 -29.5q39 0 72 26t51 63.5t28 73.5t10 62z" />
    <glyph glyph-name="A" unicode="A" horiz-adv-x="792" 
d="M786 0h-73l-91 183h-455l-90 -183h-71l348 706h76zM594 239l-202 404l-198 -404h400z" />
    <glyph glyph-name="B" unicode="B" horiz-adv-x="917" 
d="M82 706h553q99 0 154 -75q33 -45 33 -102q0 -65 -36 -105t-87 -50q74 -6 116.5 -58t42.5 -124q0 -102 -71 -153q-54 -39 -155 -39h-550v706zM151 649v-250h431q48 0 81.5 9t58.5 39q27 32 27 78q0 39 -19 70q-22 34 -55 44t-83 10h-441zM151 339v-280h482q102 0 137 64
q18 33 18 69q0 51 -27 87q-20 27 -54.5 41t-61 16.5t-69.5 2.5h-425z" />
    <glyph glyph-name="C" unicode="C" horiz-adv-x="827" 
d="M789 534l-60 -33q-24 43 -57 75.5t-63.5 48.5t-66 26t-57.5 12t-44 2q-147 0 -240 -95q-85 -87 -85 -219q0 -129 88 -216q91 -91 238 -91q201 0 304 175l61 -29q-45 -79 -111 -128q-109 -80 -258 -80q-148 0 -247 72q-72 53 -111 132t-39 170q0 133 82 231q38 45 85.5 76
t94 43.5t77 17t59.5 4.5q165 0 276 -101q35 -31 74 -93z" />
    <glyph glyph-name="D" unicode="D" horiz-adv-x="854" 
d="M83 706h353q82 0 139.5 -15.5t109.5 -57.5q120 -99 120 -282q0 -58 -14 -110q-40 -147 -166 -205q-79 -36 -222 -36h-320v706zM153 648v-589h225q62 0 100 3t90 19.5t86 49.5q80 76 80 216q0 96 -42 173t-127 108q-54 20 -129 20h-283z" />
    <glyph glyph-name="E" unicode="E" horiz-adv-x="833" 
d="M788 0h-705v706h676v-58h-607v-248h561v-60h-561v-281h636v-59z" />
    <glyph glyph-name="F" unicode="F" horiz-adv-x="750" 
d="M733 648h-581v-251h520v-61h-520v-336h-69v706h650v-58z" />
    <glyph glyph-name="G" unicode="G" horiz-adv-x="896" 
d="M386 309v60h436v-369h-61v144q-24 -42 -55 -71q-38 -35 -106 -64t-158 -29q-57 0 -112.5 13.5t-107.5 43t-91.5 72t-63 105t-23.5 137.5q0 143 86 243q114 134 316 134q31 0 66 -3.5t98.5 -25t109.5 -58.5q49 -40 85 -100l-66 -38q-43 83 -123 122t-176 39
q-144 0 -233.5 -88.5t-89.5 -222.5q0 -119 68 -200q93 -110 267 -110q118 0 211.5 72.5t97.5 193.5h-375z" />
    <glyph glyph-name="H" unicode="H" horiz-adv-x="896" 
d="M812 0h-67v345h-593v-345h-69v706h69v-302h593v302h67v-706z" />
    <glyph glyph-name="I" unicode="I" horiz-adv-x="229" 
d="M149 0h-67v706h67v-706z" />
    <glyph glyph-name="J" unicode="J" horiz-adv-x="625" 
d="M492 706h66v-436q0 -91 -26 -155.5t-97 -100.5q-64 -32 -146 -32q-104 0 -176 47q-69 44 -107 144l70 26q13 -52 43 -86.5t68.5 -47.5t61.5 -16.5t45 -3.5q108 0 155 62q43 56 43 209v390z" />
    <glyph glyph-name="K" unicode="K" horiz-adv-x="792" 
d="M788 0h-89l-315 391l-234 -190v-201h-67v706h67v-429l528 429h93l-334 -272z" />
    <glyph glyph-name="L" unicode="L" horiz-adv-x="688" 
d="M667 0h-584v706h70v-647h514v-59z" />
    <glyph glyph-name="M" unicode="M" horiz-adv-x="938" 
d="M857 0h-63v626l-288 -626h-70l-290 620v-620h-64v706h90l301 -642l296 642h88v-706z" />
    <glyph glyph-name="N" unicode="N" horiz-adv-x="896" 
d="M814 0h-63l-605 616v-616h-63v706h63l605 -619v619h63v-706z" />
    <glyph glyph-name="O" unicode="O" horiz-adv-x="917" 
d="M42 354q0 89 35 162t94.5 118.5t133 69.5t153.5 24q26 0 51 -2t70.5 -12t84 -27.5t82 -52.5t73.5 -83q57 -91 57 -196q0 -131 -81 -229q-40 -48 -91.5 -80t-102.5 -44.5t-83 -16.5t-62 -4q-25 0 -51 2t-73.5 13t-87.5 30t-83.5 57t-72.5 89q-46 82 -46 182zM799 369
q0 125 -92 211.5t-250 86.5q-131 0 -219 -65q-45 -33 -83.5 -95.5t-38.5 -155.5q0 -64 23 -121q20 -51 56.5 -88.5t72 -56t78.5 -29.5t67.5 -13t46.5 -2q89 0 156.5 28.5t106 76t57.5 104t19 119.5z" />
    <glyph glyph-name="P" unicode="P" horiz-adv-x="812" 
d="M82 0v706h469q71 0 123 -14.5t83 -61.5q37 -51 37 -117q0 -96 -72 -151q-59 -46 -187 -46h-383v-316h-70zM152 374h359q40 0 62.5 1.5t55.5 12t54 30.5q38 36 38 95q0 73 -51 109q-37 26 -112 26h-406v-274z" />
    <glyph glyph-name="Q" unicode="Q" horiz-adv-x="917" 
d="M889 5l-30 -54l-165 91q-35 -19 -56.5 -29t-70.5 -21.5t-105 -11.5q-143 0 -247 61q-54 32 -92 76.5t-54.5 90.5t-22.5 80t-6 66q0 155 111 260q117 111 304 111q168 0 280 -87q67 -52 103 -127t36 -160q0 -157 -124 -270zM798 355q0 33 -5.5 66.5t-34.5 88t-80 90.5
q-90 64 -231 64q-21 0 -44.5 -3t-64 -12.5t-81.5 -35t-72 -64.5q-70 -87 -70 -196q0 -138 90 -223q96 -90 254 -90q83 0 158 31t121 94q60 83 60 190z" />
    <glyph glyph-name="R" unicode="R" horiz-adv-x="875" 
d="M848 0h-95l-279 315h-323v-315h-68v706h520q127 0 181 -82q31 -47 31 -112q0 -98 -72 -152q-25 -18 -58.5 -28t-56 -12.5t-64.5 -4.5zM151 375h381q28 0 44.5 0.5t43 4.5t43.5 11t34.5 21.5t27.5 35.5q16 32 16 68q0 13 -2.5 29t-16 40.5t-35.5 39.5q-35 23 -114 23h-422
v-273z" />
    <glyph glyph-name="S" unicode="S" horiz-adv-x="812" 
d="M32 177l74 28q8 -21 14 -34t29 -40t53 -43.5t85.5 -30t126.5 -13.5q73 0 134.5 17.5t102 55t40.5 89.5q0 21 -7 37.5t-16.5 28t-30 21t-35.5 15t-45.5 11.5t-48 8.5t-54.5 7.5l-154 21q-90 13 -129 33q-84 42 -84 131t85.5 147t239.5 58q30 0 60 -3.5t81.5 -15t102 -42.5
t87.5 -78l-64 -34q-80 112 -272 112q-100 0 -174 -35.5t-74 -105.5q0 -49 55 -76q31 -15 131 -28q25 -4 71 -10t66 -9t53 -8.5t50.5 -9.5t38 -9.5t35.5 -12.5q49 -21 77 -60t28 -90q0 -58 -33 -105q-87 -123 -334 -123q-25 0 -55.5 3t-77.5 12.5t-93.5 32.5t-78.5 57
q-27 28 -60 90z" />
    <glyph glyph-name="T" unicode="T" horiz-adv-x="688" 
d="M686 648h-303v-648h-67v648h-317v58h687v-58z" />
    <glyph glyph-name="U" unicode="U" horiz-adv-x="875" 
d="M79 706h65v-405q0 -55 7 -93.5t31 -72.5q65 -89 239 -89q118 0 182.5 24.5t96.5 79.5q18 31 24 70.5t6 112.5v373h64v-426q0 -104 -42 -171q-53 -87 -177 -114q-60 -13 -131 -13q-101 0 -174 21q-131 37 -173 152q-18 49 -18 143v408z" />
    <glyph glyph-name="V" unicode="V" 
d="M726 706l-327 -706h-66l-333 706h76l292 -632l283 632h75z" />
    <glyph glyph-name="W" unicode="W" horiz-adv-x="1062" 
d="M1059 706l-224 -706h-82l-219 635l-217 -635h-80l-234 706h71l206 -634l218 634h73l223 -634l198 634h67z" />
    <glyph glyph-name="X" unicode="X" horiz-adv-x="729" 
d="M740 0h-87l-293 315l-272 -315h-84l313 362l-321 344h87l277 -296l257 296h84l-299 -344z" />
    <glyph glyph-name="Y" unicode="Y" horiz-adv-x="729" 
d="M723 706l-320 -420v-286h-64v286l-333 420h84l281 -363l272 363h80z" />
    <glyph glyph-name="Z" unicode="Z" horiz-adv-x="750" 
d="M750 644l-653 -585h635v-59h-732v57l659 591h-604v58h695v-62z" />
    <glyph glyph-name="bracketleft" unicode="[" horiz-adv-x="292" 
d="M268 -212h-187v942h187v-62h-122v-818h122v-62z" />
    <glyph glyph-name="backslash" unicode="\" horiz-adv-x="500" 
d="M475 0h-59l-399 706h60z" />
    <glyph glyph-name="bracketright" unicode="]" horiz-adv-x="292" 
d="M211 -212h-187v61h122v818h-122v63h187v-942z" />
    <glyph glyph-name="asciicircum" unicode="^" horiz-adv-x="772" 
d="M627 286h-67l-169 357l-178 -357h-68l213 420h69z" />
    <glyph glyph-name="underscore" unicode="_" horiz-adv-x="500" 
d="M510 -206h-520v59h520v-59z" />
    <glyph glyph-name="grave" unicode="`" horiz-adv-x="375" 
d="M280 554h-43l-142 145h110z" />
    <glyph glyph-name="a" unicode="a" horiz-adv-x="667" 
d="M666 0q-34 -4 -66 -4q-17 0 -30 5t-20.5 11.5t-13 17t-7.5 17t-3 15.5l-2 10q-31 -23 -54 -36q-90 -49 -208 -49q-134 0 -188 65q-33 40 -33 96q0 79 62 122q48 33 143 42.5t278 11.5q0 51 -17 75q-35 49 -187 49q-74 0 -116.5 -13t-58.5 -32.5t-28 -56.5l-70 4
q24 88 90 123q65 35 177 35q180 0 238 -64q33 -38 33 -109v-217q0 -40 14.5 -53.5t49.5 -13.5h17v-51zM524 268h-31q-212 0 -296.5 -26t-84.5 -96q0 -53 48 -76.5t110 -23.5q59 0 132.5 23.5t103.5 74.5q18 32 18 98v26z" />
    <glyph glyph-name="b" unicode="b" 
d="M72 706h67v-292q70 93 230 93q134 0 215 -75q76 -71 76 -186q0 -85 -45.5 -145t-110.5 -86t-140 -26q-66 0 -127.5 22.5t-98.5 65.5v-77h-66v706zM588 247q0 87 -64 142.5t-169 55.5q-112 0 -172 -61q-46 -48 -46 -140q0 -93 54 -143q59 -54 171 -54q65 0 111 22t71 50
q44 49 44 128z" />
    <glyph glyph-name="c" unicode="c" horiz-adv-x="667" 
d="M582 193l66 -25q-40 -65 -75 -98q-87 -81 -236 -81q-61 0 -111 15q-27 8 -53 22.5t-59 42t-53.5 74.5t-20.5 107q0 101 65 170q43 46 109 70t134 24q196 0 290 -158l-66 -27q-9 19 -35 48t-53 45q-57 35 -138 35q-76 0 -127.5 -29.5t-75.5 -71.5q-29 -47 -29 -105
q0 -99 69.5 -151.5t160.5 -52.5q50 0 101.5 18t84.5 50q26 26 52 78z" />
    <glyph glyph-name="d" unicode="d" 
d="M635 0h-66v75q-15 -18 -37 -35.5t-74 -35.5t-114 -18q-77 0 -147.5 31t-110.5 90q-42 60 -42 143q0 120 90.5 189.5t213.5 69.5q26 0 59 -4t85.5 -27t76.5 -63v291h66v-706zM569 249q0 100 -55 147q-67 57 -167 57q-48 0 -95 -17q-42 -15 -71 -40t-41.5 -54t-17 -51
t-4.5 -44q0 -48 22 -92q19 -38 51 -63t67 -34.5t55.5 -12t39.5 -2.5q54 0 104.5 19.5t78.5 58.5q33 46 33 128z" />
    <glyph glyph-name="e" unicode="e" horiz-adv-x="667" 
d="M575 172l52 -37q-43 -62 -99 -98q-81 -50 -184 -50q-102 0 -180 52q-55 36 -86 94t-31 125q0 114 79 182q29 26 81.5 48t121.5 22q137 0 222 -87q71 -71 76 -183h-511q6 -92 73 -143.5t162 -51.5q148 0 224 127zM118 296h429q-16 77 -84 121q-58 37 -139 37
q-91 0 -146 -52q-48 -46 -60 -106z" />
    <glyph glyph-name="f" unicode="f" horiz-adv-x="354" 
d="M341 443h-167v-443h-66v443h-98v51h98v97q0 62 28 94q33 38 111 38q50 0 94 -10v-58q-45 10 -90 10q-13 0 -23 -2t-24 -8.5t-22 -23.5t-8 -44v-93h167v-51z" />
    <glyph glyph-name="g" unicode="g" horiz-adv-x="688" 
d="M553 494h64v-456q0 -62 -13 -102q-32 -103 -172 -128q-48 -8 -96 -8q-123 0 -188 40q-63 39 -73 124h69q2 -17 5 -27.5t16.5 -27t37.5 -27.5q51 -23 130 -23q59 0 111 13q57 14 83 48t26 115v43q-69 -92 -226 -92q-75 0 -132 24q-25 11 -48 26.5t-49 43t-42 71.5t-16 99
q0 95 58 162q85 97 238 97q69 0 128 -24t91 -63q-2 55 -2 72zM555 250q0 109 -60 156q-60 48 -154 48q-98 0 -163.5 -54.5t-65.5 -150.5q0 -46 19 -89q18 -38 47.5 -63.5t62.5 -35.5t53.5 -13t40.5 -3q111 0 171 61q49 49 49 144z" />
    <glyph glyph-name="h" unicode="h" 
d="M634 0h-65v260q0 100 -50 142q-52 45 -165 45q-105 0 -167 -54q-31 -27 -41 -53t-10 -67v-273h-66v706h66v-292q23 40 86 66.5t149 26.5q73 0 142 -24.5t99 -88.5q22 -45 22 -124v-270z" />
    <glyph glyph-name="i" unicode="i" horiz-adv-x="208" 
d="M137 582h-66v96h66v-96zM137 0h-66v494h66v-494z" />
    <glyph glyph-name="j" unicode="j" horiz-adv-x="208" 
d="M136 580h-64v97h64v-97zM72 494h64v-548q0 -21 -1 -34.5t-8 -35t-20 -34t-39.5 -22.5t-63.5 -10q-45 0 -93 12v60q42 -13 78 -13q27 0 44.5 6.5t25.5 18.5t10.5 23.5t2.5 27.5v549z" />
    <glyph glyph-name="k" unicode="k" horiz-adv-x="667" 
d="M671 0h-98l-271 262l-165 -127v-135h-65v706h65v-493l370 281h100l-250 -191z" />
    <glyph glyph-name="l" unicode="l" horiz-adv-x="208" 
d="M138 0h-66v706h66v-706z" />
    <glyph glyph-name="m" unicode="m" horiz-adv-x="1167" 
d="M1093 0h-65v283q0 45 -19.5 77.5t-44 48t-58 24t-50.5 10t-34 1.5q-10 0 -21.5 -1t-38.5 -4.5t-49.5 -13t-46 -24.5t-37 -42t-13.5 -62v-297h-66v282q0 38 -12 67.5t-31.5 47t-47 28.5t-54 15t-56.5 4q-59 0 -115 -20t-81 -64q-15 -26 -15 -71v-289h-67v494h67v-63
q29 23 34 27q70 50 183 50q19 0 42 -3t60.5 -11.5t72 -31.5t55.5 -56q8 12 21.5 24.5t41.5 32t75.5 31.5t104.5 12q106 0 177 -46q18 -11 35 -27t35 -51t18 -75v-307z" />
    <glyph glyph-name="n" unicode="n" 
d="M638 0h-66v287q0 158 -212 158q-106 0 -164.5 -44.5t-58.5 -104.5v-296h-66v494h67v-69q9 10 21.5 20.5t39.5 26.5t71.5 26t98.5 10q52 0 100 -11q112 -27 149 -106q20 -43 20 -118v-273z" />
    <glyph glyph-name="o" unicode="o" 
d="M43 247q0 49 15.5 90t40.5 68.5t46 43t43 26.5q70 35 172 35q131 0 212 -67q53 -44 72.5 -100t19.5 -100q0 -75 -41 -134q-34 -49 -101 -86t-170 -37q-42 0 -78 7q-126 23 -188 113q-43 63 -43 141zM590 247q0 97 -68 153t-167 56q-87 0 -151 -42q-86 -57 -86 -168
q0 -72 40 -124q32 -41 84 -60.5t109 -19.5q127 0 193 75q46 53 46 130z" />
    <glyph glyph-name="p" unicode="p" 
d="M74 494h64v-77q76 91 239 91q81 0 148 -33.5t103 -100.5q32 -58 32 -126q0 -105 -72 -175q-88 -85 -226 -85q-52 0 -101 13.5t-76 33.5q-30 22 -47 41v-263h-64v681zM139 250q0 -95 48 -142q61 -59 171 -59q129 0 191 83q37 49 37 117q0 46 -20 89q-52 111 -205 111
q-95 0 -158.5 -48.5t-63.5 -150.5z" />
    <glyph glyph-name="q" unicode="q" 
d="M634 -180h-65v248q-25 -23 -42 -34q-72 -48 -181 -48q-128 0 -214.5 72t-86.5 192q0 105 64 174q81 88 227 88q157 0 233 -86v68h65v-674zM570 249q0 90 -55.5 147t-173.5 57q-102 0 -162 -54.5t-60 -143.5q0 -91 64 -150q65 -58 168 -58q63 0 114 24q29 14 49 30t38 55
t18 93z" />
    <glyph glyph-name="r" unicode="r" horiz-adv-x="396" 
d="M71 494h66v-80q34 52 94.5 74t120.5 22l32 -1v-69q-34 4 -52 4q-54 0 -94 -17.5t-60 -39.5q-41 -45 -41 -121v-266h-66v494z" />
    <glyph glyph-name="s" unicode="s" horiz-adv-x="625" 
d="M577 392l-73 -15q-13 22 -21 29q-27 23 -80 33.5t-102 10.5q-27 0 -53 -3t-57.5 -11.5t-51 -28.5t-19.5 -48q0 -19 13 -35.5t33 -21.5q18 -5 96 -10q18 -1 57.5 -3t54 -3t42.5 -3.5t42 -5t31 -7.5t29 -11q70 -35 70 -111q0 -16 -4 -33t-20.5 -41t-42.5 -42t-76.5 -31
t-116.5 -13q-254 0 -298 134l72 16q16 -42 71 -66q60 -24 153 -24q84 0 139.5 25.5t55.5 73.5q0 62 -136 71q-35 2 -82.5 4t-72.5 3.5t-52.5 5t-45.5 10.5q-11 4 -22 11t-25.5 19.5t-23.5 34t-9 47.5q0 56 36 92t90 49.5t127 13.5q223 0 272 -116z" />
    <glyph glyph-name="t" unicode="t" horiz-adv-x="313" 
d="M309 494v-51h-140v-235q0 -36 1 -57t6.5 -44t15.5 -34t28 -18.5t45 -7.5q2 0 44 3v-54q-45 -7 -66 -7q-84 0 -117 53q-15 23 -19 55.5t-4 98.5v247h-94v51h94v169l66 31v-200h140z" />
    <glyph glyph-name="u" unicode="u" 
d="M637 0h-65v71q-94 -84 -244 -84q-189 0 -238 113q-19 42 -19 118v276h66v-289q0 -29 5.5 -51.5t23 -49t59 -41.5t104.5 -15q64 0 130 19.5t95 62.5q18 27 18 70v294h65v-494z" />
    <glyph glyph-name="v" unicode="v" horiz-adv-x="562" 
d="M563 494l-250 -494h-61l-250 494h75l206 -421l205 421h75z" />
    <glyph glyph-name="w" unicode="w" horiz-adv-x="854" 
d="M853 494l-200 -494h-63l-163 418l-160 -418h-63l-204 494h71l164 -413l158 413h69l160 -413l163 413h68z" />
    <glyph glyph-name="x" unicode="x" horiz-adv-x="562" 
d="M566 0h-87l-198 211l-198 -211h-87l244 257l-229 237h89l181 -192l181 192h85l-226 -237z" />
    <glyph glyph-name="y" unicode="y" horiz-adv-x="562" 
d="M489 494h71l-233 -532q-16 -38 -24.5 -55t-21.5 -36t-29 -31q-43 -34 -139 -34q-49 0 -102 12v62q52 -18 100 -18q39 0 66 8.5t44 27t25 33.5t19 42l-265 521h79l221 -448z" />
    <glyph glyph-name="z" unicode="z" horiz-adv-x="562" 
d="M546 0h-535v54l440 386h-408v54h503v-46l-443 -393h443v-55z" />
    <glyph glyph-name="braceleft" unicode="{" horiz-adv-x="314" 
d="M290 -217h-14q-70 0 -110 34q-26 22 -33 50.5t-7 86.5v135q0 82 -14.5 107.5t-67.5 34.5v55q53 10 67.5 35t14.5 107v165q0 141 154 141h10v-55h-12q-30 0 -48.5 -8t-26.5 -25.5t-10 -33t-2 -42.5v-155q0 -74 -14 -105.5t-61 -50.5q46 -14 60.5 -50.5t14.5 -105.5v-180
q0 -85 86 -85h13v-55z" />
    <glyph glyph-name="bar" unicode="|" horiz-adv-x="230" 
d="M148 -212h-66v942h66v-942z" />
    <glyph glyph-name="braceright" unicode="}" horiz-adv-x="314" 
d="M272 286v-54q-53 -10 -67.5 -35.5t-14.5 -107.5v-160q0 -79 -38.5 -112.5t-125.5 -33.5v55h9q53 0 72 25t19 96v159q0 65 14.5 94t59.5 47q-44 16 -59 47t-15 92v191q0 91 -87 91h-13v54h14q72 0 111 -33q24 -20 31.5 -50.5t7.5 -86.5v-136q0 -82 14.5 -107t67.5 -35z
" />
    <glyph glyph-name="asciitilde" unicode="~" horiz-adv-x="827" 
d="M701 358l46 -40q-90 -100 -191 -100q-21 0 -43.5 5t-39.5 11.5t-55 21.5l-42 17q-74 30 -121 30q-31 0 -54.5 -14t-62.5 -53l-11 -11l-47 40q45 56 87 79t96 23q31 0 57 -7t103 -36l47 -18q64 -25 92 -25q33 0 64.5 16.5t74.5 60.5z" />
    <glyph glyph-name="uni00A0" unicode="&#xa0;" horiz-adv-x="313" 
 />
    <glyph glyph-name="exclamdown" unicode="&#xa1;" horiz-adv-x="313" 
d="M176 608h-77v98h77v-98zM173 0h-71v304l13 203h46l12 -224v-283z" />
    <glyph glyph-name="cent" unicode="&#xa2;" horiz-adv-x="667" 
d="M587 190l63 -24q-43 -77 -105.5 -123.5t-173.5 -54.5v-104h-55v104q-52 2 -93 16q-29 9 -57.5 26.5t-57.5 46t-47 73.5t-18 98q0 104 69.5 178t203.5 81v103h55v-104q181 -6 269 -157l-61 -26q-21 42 -53.5 70.5t-67.5 40t-53 15t-34 4.5v-408q78 5 134 43t82 102z
M316 44v409q-87 -6 -144 -63t-57 -143q0 -47 17 -84.5t41.5 -59t54 -35.5t51.5 -19t37 -5z" />
    <glyph glyph-name="sterling" unicode="&#xa3;" horiz-adv-x="792" 
d="M47 335v56h158q-63 66 -63 142q0 34 17 66t31.5 46t28.5 23q74 51 196 51q55 0 101 -11.5t75 -26.5t52 -40.5t34 -43.5t19.5 -45.5t10 -36.5l4.5 -27h-67q-5 72 -52 117q-58 56 -175 56q-109 0 -158 -41t-49 -92q0 -66 88 -137h232v-56h-182q68 -75 68 -150
q0 -22 -10 -57q5 -3 26 -15t30.5 -17t29.5 -15t33 -14.5t30.5 -8.5t31.5 -4q13 0 26 4t31 14.5t29.5 37.5t11.5 66q0 10 -2 40h62q1 -16 1 -28q0 -21 -1.5 -39.5t-11 -49.5t-25.5 -53t-49 -38.5t-78 -16.5q-37 0 -76.5 15t-65 31t-63.5 44q-27 -37 -75.5 -63.5t-109.5 -26.5
q-30 0 -62 8.5t-62 36.5t-30 72q0 40 35 72t108 32q30 0 61 -7.5t51.5 -16t55.5 -25.5q2 22 2 26q0 24 -12.5 50t-30.5 46.5t-31 32.5t-20 17h-209zM328 108q-2 1 -14.5 8.5t-17 10t-17 8.5t-21 9t-21.5 6.5t-26 5t-27 1.5q-9 0 -19 -1.5t-26 -6t-26.5 -16.5t-10.5 -30
q0 -23 23.5 -38.5t64.5 -15.5q82 0 138 59z" />
    <glyph glyph-name="currency" unicode="&#xa4;" horiz-adv-x="690" 
d="M631 569l-76 -74q56 -71 56 -156q0 -83 -57 -157l76 -75l-47 -45l-77 75q-73 -54 -162 -54q-48 0 -83 11.5t-78 42.5l-78 -73l-47 45l78 73q-57 76 -57 159t57 155l-76 73l47 45l76 -72q77 54 161 54q98 0 163 -54l77 73zM543 339q0 85 -56 141.5t-141 56.5t-142.5 -57
t-57.5 -140q0 -85 58 -141.5t145 -56.5q83 0 138.5 56.5t55.5 140.5z" />
    <glyph glyph-name="yen" unicode="&#xa5;" horiz-adv-x="729" 
d="M723 695l-253 -326h176v-55h-218l-25 -33v-34h243v-55h-243v-192h-64v192h-256v55h256v34l-27 33h-229v55h185l-262 326h84l280 -358l273 358h80z" />
    <glyph glyph-name="brokenbar" unicode="&#xa6;" horiz-adv-x="230" 
d="M148 327h-66v403h66v-403zM148 -212h-66v403h66v-403z" />
    <glyph glyph-name="section" unicode="&#xa7;" horiz-adv-x="688" 
d="M563 664l-38 -52q-113 52 -199 52q-50 0 -88 -22.5t-38 -68.5q0 -50 58 -70q29 -11 78 -23t87.5 -21t83 -26.5t74 -39t49.5 -59.5t20 -87q0 -123 -103 -178q31 -46 31 -93q0 -60 -35.5 -102.5t-83.5 -60.5t-102 -18q-119 0 -277 67l42 52q145 -59 238 -59q58 0 102.5 30
t44.5 85q0 20 -9.5 36.5t-20 26t-34 19t-35 13t-38.5 10.5l-140 36q-102 26 -148 70.5t-46 115.5q0 63 32.5 113t89.5 78q-27 33 -27 77q0 78 62 118.5t139 40.5q90 0 231 -60zM501 104q80 57 80 139q0 23 -7 42t-15 32.5t-27 25.5t-29.5 18.5t-37 14.5t-36 10.5t-38.5 9.5
q-142 36 -188 56q-44 -24 -71.5 -63.5t-27.5 -86.5q0 -85 108 -115q24 -7 90 -23t112 -29.5t87 -30.5z" />
    <glyph glyph-name="dieresis" unicode="&#xa8;" horiz-adv-x="375" 
d="M355 564h-70v96h70v-96zM90 564h-70v96h70v-96z" />
    <glyph glyph-name="copyright" unicode="&#xa9;" horiz-adv-x="833" 
d="M645 280q-71 -150 -224 -150q-99 0 -160 60.5t-61 158.5q0 97 63.5 160t161.5 63q71 0 127 -35t86 -98l-53 -27q-54 105 -158 105q-74 0 -119.5 -47t-45.5 -123q0 -71 45.5 -116.5t115.5 -45.5q59 0 103 30.5t66 88.5zM772 351q0 -147 -104.5 -250.5t-252.5 -103.5
t-251 104t-103 254q0 149 103 251.5t253 102.5q65 0 127 -24t113.5 -67.5t83 -113t31.5 -153.5zM740 351q0 137 -93.5 231.5t-229.5 94.5t-230.5 -94.5t-94.5 -230.5q0 -134 94.5 -228.5t229.5 -94.5q134 0 229 94.5t95 227.5z" />
    <glyph glyph-name="ordfeminine" unicode="&#xaa;" horiz-adv-x="437" 
d="M452 401v-40q-26 -4 -44 -4q-22 0 -35 8.5t-17 18t-6 23.5q-74 -56 -176 -56q-100 0 -137 52q-19 26 -19 63q0 59 50 91q30 20 95.5 26t183.5 8v6q0 39 -33.5 55.5t-99.5 16.5q-119 0 -139 -70l-54 2q13 60 58.5 87.5t129.5 27.5q39 0 67.5 -4t58 -15t45.5 -36t16 -63
v-156q0 -13 2 -20.5t12 -14t29 -6.5h13zM347 535v10h-61q-46 0 -77 -2t-65.5 -9.5t-52.5 -25t-18 -44.5q0 -30 28 -47.5t75 -17.5q43 0 91 15t68 50q12 21 12 71z" />
    <glyph glyph-name="guillemotleft" unicode="&#xab;" horiz-adv-x="521" 
d="M467 90l-203 175v55l203 173v-56l-138 -145l138 -145v-57zM255 92l-200 173v55l200 171v-58l-136 -141l136 -142v-58z" />
    <glyph glyph-name="logicalnot" unicode="&#xac;" horiz-adv-x="772" 
d="M683 0h-62v264h-563v59h625v-323z" />
    <glyph glyph-name="uni00AD" unicode="&#xad;" horiz-adv-x="364" 
d="M326 264h-288v60h288v-60z" />
    <glyph glyph-name="registered" unicode="&#xae;" horiz-adv-x="833" 
d="M772 351q0 -147 -104.5 -250.5t-252.5 -103.5t-251 104t-103 254q0 149 103 251.5t253 102.5q65 0 127 -24t113.5 -67.5t83 -113t31.5 -153.5zM740 351q0 137 -93.5 231.5t-229.5 94.5t-230.5 -94.5t-94.5 -230.5q0 -134 94.5 -228.5t229.5 -94.5q134 0 229 94.5
t95 227.5zM264 147v416h177q65 0 97 -16q49 -25 49 -94q0 -55 -33 -87t-95 -35l127 -184h-69l-123 183h-73v-183h-57zM321 378h109q54 0 77 16.5t23 56.5q0 39 -22 51.5t-60 12.5h-127v-137z" />
    <glyph glyph-name="macron" unicode="&#xaf;" horiz-adv-x="375" 
d="M355 569h-335v52h335v-52z" />
    <glyph glyph-name="degree" unicode="&#xb0;" horiz-adv-x="354" 
d="M324 601q0 -61 -43 -104t-104 -43t-104 43t-43 104t43 104t104 43t104 -43.5t43 -103.5zM263 601q0 36 -25 61.5t-61 25.5t-61.5 -25.5t-25.5 -61.5t25.5 -61.5t61.5 -25.5t61 25.5t25 61.5z" />
    <glyph glyph-name="plusminus" unicode="&#xb1;" horiz-adv-x="772" 
d="M678 377h-262v-240h-60v240h-262v58h262v238h60v-238h262v-58zM678 0h-584v58h584v-58z" />
    <glyph glyph-name="twosuperior" unicode="&#xb2;" horiz-adv-x="479" 
d="M423 258h-370v46q197 89 253 136q63 52 63 109q0 41 -32.5 73t-96.5 32q-61 0 -101.5 -31.5t-40.5 -95.5l-47 7q9 55 25 82q49 80 161 80q89 0 135 -44.5t46 -102.5q0 -33 -14.5 -62t-35.5 -51.5t-61 -47.5t-77 -43t-97 -46h290v-41z" />
    <glyph glyph-name="threesuperior" unicode="&#xb3;" horiz-adv-x="479" 
d="M194 462v40h71q15 0 29.5 2.5t32.5 9t29 22.5t11 38q0 43 -39 60.5t-81 17.5q-89 0 -120 -45q-14 -20 -23 -53l-44 15q33 123 187 123q77 0 122.5 -32t45.5 -87q0 -58 -66 -85q48 -12 66.5 -42.5t18.5 -56.5q0 -60 -50.5 -99.5t-141.5 -39.5q-77 0 -127 33.5t-69 84.5
l49 16q8 -21 19 -35q43 -57 131 -57q66 0 102.5 27t36.5 68q0 36 -29 55.5t-74 19.5h-87z" />
    <glyph glyph-name="acute" unicode="&#xb4;" horiz-adv-x="375" 
d="M281 700l-144 -145h-43l78 145h109z" />
    <glyph glyph-name="mu" unicode="&#xb5;" horiz-adv-x="721" 
d="M572 494h65v-386q0 -28 15 -43.5t41 -15.5q15 0 25 1v-51q-43 -4 -58 -4q-41 0 -59.5 18.5t-23.5 63.5q-97 -90 -250 -90q-134 0 -190 64v-238h-66v681h66v-290q0 -81 47 -118.5t144 -37.5q105 0 174.5 38t69.5 107v301z" />
    <glyph glyph-name="paragraph" unicode="&#xb6;" horiz-adv-x="640" 
d="M542 652h-33v-818h-58v818h-162v-818h-59v495q-75 13 -115.5 60.5t-40.5 122.5q0 89 56 141.5t157 52.5h255v-54z" />
    <glyph glyph-name="periodcentered" unicode="&#xb7;" horiz-adv-x="271" 
d="M173 244h-77v99h77v-99z" />
    <glyph glyph-name="cedilla" unicode="&#xb8;" horiz-adv-x="375" 
d="M145 19h45v-79q37 0 66.5 -16.5t29.5 -53.5q0 -33 -29 -54t-88 -21q-30 0 -80 6v33q44 -4 65 -4q69 0 69 35q0 38 -73 38h-5v116z" />
    <glyph glyph-name="onesuperior" unicode="&#xb9;" horiz-adv-x="479" 
d="M290 258h-47v331q-43 -26 -96 -26h-17v41q62 0 87.5 19.5t39.5 65.5h33v-431z" />
    <glyph glyph-name="ordmasculine" unicode="&#xba;" horiz-adv-x="479" 
d="M24 532q0 91 66.5 138t155.5 47q100 0 154.5 -56.5t54.5 -129.5q0 -62 -36 -105t-84 -60t-100 -17q-58 0 -101.5 18.5t-66 47.5t-33 58.5t-10.5 58.5zM82 530q0 -54 37 -94.5t120 -40.5q81 0 120 42.5t39 93.5q0 68 -47 104.5t-111 36.5q-25 0 -50.5 -7t-51 -22
t-41 -44.5t-15.5 -68.5z" />
    <glyph glyph-name="guillemotright" unicode="&#xbb;" horiz-adv-x="521" 
d="M465 266l-200 -173v58l135 141l-135 142v58l200 -173v-53zM255 265l-202 -173v56l137 144l-137 145v57l202 -173v-56z" />
    <glyph glyph-name="onequarter" unicode="&#xbc;" horiz-adv-x="1083" 
d="M1028 113h-93v-113h-46v113h-269v39l267 280h48v-277h93v-42zM750 688l-399 -688h-53l400 688h52zM889 155v222l-211 -222h211zM290 258h-47v331q-43 -26 -96 -26h-17v41q62 0 87.5 19.5t39.5 65.5h33v-431z" />
    <glyph glyph-name="onehalf" unicode="&#xbd;" horiz-adv-x="1083" 
d="M1027 0h-370v46q197 89 253 136q63 52 63 109q0 41 -32.5 73t-96.5 32q-61 0 -101.5 -31.5t-40.5 -95.5l-47 7q9 55 25 82q49 80 161 80q89 0 135 -44.5t46 -102.5q0 -33 -14.5 -62t-35.5 -51.5t-61 -47.5t-77 -43t-97 -46h290v-41zM730 688l-399 -688h-54l400 688h53z
M290 258h-47v331q-43 -26 -96 -26h-17v41q62 0 87.5 19.5t39.5 65.5h33v-431z" />
    <glyph glyph-name="threequarters" unicode="&#xbe;" horiz-adv-x="1083" 
d="M1028 113h-93v-113h-46v113h-269v39l267 280h48v-277h93v-42zM794 688l-398 -688h-54l400 688h52zM889 155v222l-211 -222h211zM194 462v40h71q15 0 29.5 2.5t32.5 9t29 22.5t11 38q0 43 -39 60.5t-81 17.5q-89 0 -120 -45q-14 -20 -23 -53l-44 15q33 123 187 123
q77 0 122.5 -32t45.5 -87q0 -58 -66 -85q48 -12 66.5 -42.5t18.5 -56.5q0 -60 -50.5 -99.5t-141.5 -39.5q-77 0 -127 33.5t-69 84.5l49 16q8 -21 19 -35q43 -57 131 -57q66 0 102.5 27t36.5 68q0 36 -29 55.5t-74 19.5h-87z" />
    <glyph glyph-name="questiondown" unicode="&#xbf;" 
d="M333 510h62v-11q0 -36 -6 -58t-23.5 -35.5t-34 -20t-53.5 -16.5q-78 -22 -119.5 -56t-41.5 -103q0 -79 60 -123q61 -44 154 -44q72 0 120.5 27.5t74.5 61.5q22 29 43 91l59 -22q-40 -116 -114 -166.5t-185 -50.5q-157 0 -232 91q-46 56 -46 132q0 164 184 212
q69 18 85 35q12 13 13 56zM326 706h75v-99h-75v99z" />
    <glyph glyph-name="Agrave" unicode="&#xc0;" horiz-adv-x="792" 
d="M786 0h-73l-91 183h-455l-90 -183h-71l348 706h76zM594 239l-202 404l-198 -404h400zM433 774h-48l-149 126h111z" />
    <glyph glyph-name="Aacute" unicode="&#xc1;" horiz-adv-x="792" 
d="M786 0h-73l-91 183h-455l-90 -183h-71l348 706h76zM594 239l-202 404l-198 -404h400zM554 900l-150 -126h-45l84 126h111z" />
    <glyph glyph-name="Acircumflex" unicode="&#xc2;" horiz-adv-x="792" 
d="M786 0h-73l-91 183h-455l-90 -183h-71l348 706h76zM594 239l-202 404l-198 -404h400zM546 774h-64l-85 77l-89 -77h-63l114 126h79z" />
    <glyph glyph-name="Atilde" unicode="&#xc3;" horiz-adv-x="792" 
d="M786 0h-73l-91 183h-455l-90 -183h-71l348 706h76zM594 239l-202 404l-198 -404h400zM546 889l30 -13q-18 -42 -39.5 -66t-59.5 -24q-27 0 -88 25t-86 25q-13 0 -24 -8t-17.5 -16.5t-17.5 -25.5l-29 17q42 86 104 86q34 0 91.5 -24.5t78.5 -24.5q31 0 57 49z" />
    <glyph glyph-name="Adieresis" unicode="&#xc4;" horiz-adv-x="792" 
d="M786 0h-73l-91 183h-455l-90 -183h-71l348 706h76zM594 239l-202 404l-198 -404h400zM590 798h-73v96h73v-96zM267 798h-73v96h73v-96z" />
    <glyph glyph-name="Aring" unicode="&#xc5;" horiz-adv-x="792" 
d="M786 0h-73l-91 183h-455l-90 -183h-71l348 706h76zM594 239l-202 404l-198 -404h400zM504 831q0 -44 -34.5 -66.5t-77.5 -22.5q-63 0 -89 27t-26 58q0 45 38 65.5t82 20.5q53 0 80 -25t27 -57zM451 828q0 17 -14.5 30.5t-44.5 13.5q-32 0 -47.5 -13.5t-15.5 -31.5
q0 -17 15.5 -29t45.5 -12q23 0 42 10t19 32z" />
    <glyph glyph-name="AE" unicode="&#xc6;" horiz-adv-x="1125" 
d="M1085 0h-568v174h-329l-124 -174h-76l506 706h577v-58h-487v-254h446v-60h-446v-275h501v-59zM518 642l-290 -412h290v412z" />
    <glyph glyph-name="Ccedilla" unicode="&#xc7;" horiz-adv-x="827" 
d="M746 219l61 -28q-120 -209 -367 -209h-9v-42q96 -4 96 -72q0 -34 -32 -53.5t-86 -19.5q-21 0 -79 6v33q44 -4 61 -4q73 0 73 35q0 38 -70 38h-8v81q-86 9 -151 43q-69 36 -114 94.5t-62.5 116.5t-17.5 118q0 163 116 267.5t281 104.5q29 0 61 -3t102 -29t120 -74
q25 -24 68 -88l-60 -34q-26 44 -46 66q-86 99 -241 99q-140 0 -233 -86.5t-93 -225.5q0 -57 20.5 -111t59 -99t102 -72t141.5 -27q95 0 177 43t130 132z" />
    <glyph glyph-name="Egrave" unicode="&#xc8;" horiz-adv-x="833" 
d="M788 0h-705v706h676v-58h-607v-248h561v-60h-561v-281h636v-59zM463 774h-48l-149 126h111z" />
    <glyph glyph-name="Eacute" unicode="&#xc9;" horiz-adv-x="833" 
d="M788 0h-705v706h676v-58h-607v-248h561v-60h-561v-281h636v-59zM574 900l-150 -126h-45l84 126h111z" />
    <glyph glyph-name="Ecircumflex" unicode="&#xca;" horiz-adv-x="833" 
d="M788 0h-705v706h676v-58h-607v-248h561v-60h-561v-281h636v-59zM567 774h-64l-85 77l-89 -77h-63l114 126h79z" />
    <glyph glyph-name="Edieresis" unicode="&#xcb;" horiz-adv-x="833" 
d="M788 0h-705v706h676v-58h-607v-248h561v-60h-561v-281h636v-59zM617 798h-73v96h73v-96zM294 798h-73v96h73v-96z" />
    <glyph glyph-name="Igrave" unicode="&#xcc;" horiz-adv-x="229" 
d="M149 0h-67v706h67v-706zM152 774h-48l-149 126h111z" />
    <glyph glyph-name="Iacute" unicode="&#xcd;" horiz-adv-x="229" 
d="M149 0h-67v706h67v-706zM272 900l-150 -126h-45l84 126h111z" />
    <glyph glyph-name="Icircumflex" unicode="&#xce;" horiz-adv-x="229" 
d="M149 0h-67v706h67v-706zM265 774h-64l-85 77l-89 -77h-63l114 126h79z" />
    <glyph glyph-name="Idieresis" unicode="&#xcf;" horiz-adv-x="229" 
d="M149 0h-67v706h67v-706zM315 798h-73v96h73v-96zM-8 798h-73v96h73v-96z" />
    <glyph glyph-name="Eth" unicode="&#xd0;" horiz-adv-x="854" 
d="M83 0v356h-83v52h83v298h361q87 0 141 -18q60 -20 104.5 -58.5t69 -86.5t35.5 -95.5t11 -96.5q0 -120 -56 -206q-22 -34 -48.5 -59.5t-57.5 -40.5t-58.5 -25t-63 -14t-59.5 -5t-59 -1h-320zM153 59h225q142 0 208 28q148 64 148 262q0 17 -1.5 36t-11 59t-26.5 72
t-53.5 65.5t-85.5 49.5q-51 17 -120 17h-283v-241h348v-51h-348v-297z" />
    <glyph glyph-name="Ntilde" unicode="&#xd1;" horiz-adv-x="896" 
d="M814 0h-63l-605 616v-616h-63v706h63l605 -619v619h63v-706zM599 889l30 -13q-18 -42 -39.5 -66t-59.5 -24q-27 0 -88 25t-86 25q-13 0 -24 -8t-17.5 -16.5t-17.5 -25.5l-29 17q42 86 104 86q34 0 91.5 -24.5t78.5 -24.5q31 0 57 49z" />
    <glyph glyph-name="Ograve" unicode="&#xd2;" horiz-adv-x="917" 
d="M42 354q0 89 35 162t94.5 118.5t133 69.5t153.5 24q26 0 51 -2t70.5 -12t84 -27.5t82 -52.5t73.5 -83q57 -91 57 -196q0 -131 -81 -229q-40 -48 -91.5 -80t-102.5 -44.5t-83 -16.5t-62 -4q-25 0 -51 2t-73.5 13t-87.5 30t-83.5 57t-72.5 89q-46 82 -46 182zM799 369
q0 125 -92 211.5t-250 86.5q-131 0 -219 -65q-45 -33 -83.5 -95.5t-38.5 -155.5q0 -64 23 -121q20 -51 56.5 -88.5t72 -56t78.5 -29.5t67.5 -13t46.5 -2q89 0 156.5 28.5t106 76t57.5 104t19 119.5zM496 774h-48l-149 126h111z" />
    <glyph glyph-name="Oacute" unicode="&#xd3;" horiz-adv-x="917" 
d="M42 354q0 89 35 162t94.5 118.5t133 69.5t153.5 24q26 0 51 -2t70.5 -12t84 -27.5t82 -52.5t73.5 -83q57 -91 57 -196q0 -131 -81 -229q-40 -48 -91.5 -80t-102.5 -44.5t-83 -16.5t-62 -4q-25 0 -51 2t-73.5 13t-87.5 30t-83.5 57t-72.5 89q-46 82 -46 182zM799 369
q0 125 -92 211.5t-250 86.5q-131 0 -219 -65q-45 -33 -83.5 -95.5t-38.5 -155.5q0 -64 23 -121q20 -51 56.5 -88.5t72 -56t78.5 -29.5t67.5 -13t46.5 -2q89 0 156.5 28.5t106 76t57.5 104t19 119.5zM616 900l-150 -126h-45l84 126h111z" />
    <glyph glyph-name="Ocircumflex" unicode="&#xd4;" horiz-adv-x="917" 
d="M42 354q0 89 35 162t94.5 118.5t133 69.5t153.5 24q26 0 51 -2t70.5 -12t84 -27.5t82 -52.5t73.5 -83q57 -91 57 -196q0 -131 -81 -229q-40 -48 -91.5 -80t-102.5 -44.5t-83 -16.5t-62 -4q-25 0 -51 2t-73.5 13t-87.5 30t-83.5 57t-72.5 89q-46 82 -46 182zM799 369
q0 125 -92 211.5t-250 86.5q-131 0 -219 -65q-45 -33 -83.5 -95.5t-38.5 -155.5q0 -64 23 -121q20 -51 56.5 -88.5t72 -56t78.5 -29.5t67.5 -13t46.5 -2q89 0 156.5 28.5t106 76t57.5 104t19 119.5zM609 774h-64l-85 77l-89 -77h-63l114 126h79z" />
    <glyph glyph-name="Otilde" unicode="&#xd5;" horiz-adv-x="917" 
d="M42 354q0 89 35 162t94.5 118.5t133 69.5t153.5 24q26 0 51 -2t70.5 -12t84 -27.5t82 -52.5t73.5 -83q57 -91 57 -196q0 -131 -81 -229q-40 -48 -91.5 -80t-102.5 -44.5t-83 -16.5t-62 -4q-25 0 -51 2t-73.5 13t-87.5 30t-83.5 57t-72.5 89q-46 82 -46 182zM799 369
q0 125 -92 211.5t-250 86.5q-131 0 -219 -65q-45 -33 -83.5 -95.5t-38.5 -155.5q0 -64 23 -121q20 -51 56.5 -88.5t72 -56t78.5 -29.5t67.5 -13t46.5 -2q89 0 156.5 28.5t106 76t57.5 104t19 119.5zM609 889l30 -13q-18 -42 -39.5 -66t-59.5 -24q-27 0 -88 25t-86 25
q-13 0 -24 -8t-17.5 -16.5t-17.5 -25.5l-29 17q42 86 104 86q34 0 91.5 -24.5t78.5 -24.5q31 0 57 49z" />
    <glyph glyph-name="Odieresis" unicode="&#xd6;" horiz-adv-x="917" 
d="M42 354q0 89 35 162t94.5 118.5t133 69.5t153.5 24q26 0 51 -2t70.5 -12t84 -27.5t82 -52.5t73.5 -83q57 -91 57 -196q0 -131 -81 -229q-40 -48 -91.5 -80t-102.5 -44.5t-83 -16.5t-62 -4q-25 0 -51 2t-73.5 13t-87.5 30t-83.5 57t-72.5 89q-46 82 -46 182zM799 369
q0 125 -92 211.5t-250 86.5q-131 0 -219 -65q-45 -33 -83.5 -95.5t-38.5 -155.5q0 -64 23 -121q20 -51 56.5 -88.5t72 -56t78.5 -29.5t67.5 -13t46.5 -2q89 0 156.5 28.5t106 76t57.5 104t19 119.5zM657 798h-73v96h73v-96zM334 798h-73v96h73v-96z" />
    <glyph glyph-name="multiply" unicode="&#xd7;" horiz-adv-x="772" 
d="M621 471l-191 -177l188 -177l-46 -42l-188 177l-190 -174l-43 41l190 175l-186 176l46 42l186 -176l191 176z" />
    <glyph glyph-name="Oslash" unicode="&#xd8;" horiz-adv-x="917" 
d="M877 657l-89 -73q87 -98 87 -234q0 -142 -94 -244q-120 -130 -327 -130q-175 0 -290 98l-94 -76l-34 42l89 74q-84 104 -84 234q0 29 5.5 61.5t21 77t51 89t87.5 77.5q108 68 256 68q172 0 287 -97l92 75zM177 155l522 428q-95 79 -245 79q-22 0 -44.5 -2t-61 -12
t-71 -26.5t-68 -49.5t-58.5 -77q-37 -68 -37 -146q0 -50 16.5 -104.5t46.5 -89.5zM737 543l-522 -427q38 -35 102 -57.5t145 -22.5q106 0 177 41t106 91q54 78 54 184q0 54 -16.5 106t-45.5 85z" />
    <glyph glyph-name="Ugrave" unicode="&#xd9;" horiz-adv-x="875" 
d="M79 706h65v-405q0 -55 7 -93.5t31 -72.5q65 -89 239 -89q118 0 182.5 24.5t96.5 79.5q18 31 24 70.5t6 112.5v373h64v-426q0 -104 -42 -171q-53 -87 -177 -114q-60 -13 -131 -13q-101 0 -174 21q-131 37 -173 152q-18 49 -18 143v408zM475 774h-48l-149 126h111z" />
    <glyph glyph-name="Uacute" unicode="&#xda;" horiz-adv-x="875" 
d="M79 706h65v-405q0 -55 7 -93.5t31 -72.5q65 -89 239 -89q118 0 182.5 24.5t96.5 79.5q18 31 24 70.5t6 112.5v373h64v-426q0 -104 -42 -171q-53 -87 -177 -114q-60 -13 -131 -13q-101 0 -174 21q-131 37 -173 152q-18 49 -18 143v408zM595 900l-150 -126h-45l84 126h111z
" />
    <glyph glyph-name="Ucircumflex" unicode="&#xdb;" horiz-adv-x="875" 
d="M79 706h65v-405q0 -55 7 -93.5t31 -72.5q65 -89 239 -89q118 0 182.5 24.5t96.5 79.5q18 31 24 70.5t6 112.5v373h64v-426q0 -104 -42 -171q-53 -87 -177 -114q-60 -13 -131 -13q-101 0 -174 21q-131 37 -173 152q-18 49 -18 143v408zM588 774h-64l-85 77l-89 -77h-63
l114 126h79z" />
    <glyph glyph-name="Udieresis" unicode="&#xdc;" horiz-adv-x="875" 
d="M79 706h65v-405q0 -55 7 -93.5t31 -72.5q65 -89 239 -89q118 0 182.5 24.5t96.5 79.5q18 31 24 70.5t6 112.5v373h64v-426q0 -104 -42 -171q-53 -87 -177 -114q-60 -13 -131 -13q-101 0 -174 21q-131 37 -173 152q-18 49 -18 143v408zM636 798h-73v96h73v-96zM313 798
h-73v96h73v-96z" />
    <glyph glyph-name="Yacute" unicode="&#xdd;" horiz-adv-x="729" 
d="M723 706l-320 -420v-286h-64v286l-333 420h84l281 -363l272 363h80zM522 900l-150 -126h-45l84 126h111z" />
    <glyph glyph-name="Thorn" unicode="&#xde;" horiz-adv-x="812" 
d="M82 0v706h70v-147h399q33 0 53.5 -1.5t52.5 -8.5t58 -25t46 -47q33 -47 33 -109q0 -64 -33 -112q-27 -39 -72 -60t-76 -24t-78 -3h-383v-169h-70zM152 227h365q28 0 45 1t45 6t50.5 17.5t38.5 32.5q25 32 25 82q0 43 -17 70q-21 37 -53.5 50.5t-92.5 13.5h-406v-273z" />
    <glyph glyph-name="germandbls" unicode="&#xdf;" 
d="M135 0h-63v503q0 48 8 79t34 61q71 81 235 81q95 0 161 -28q108 -45 108 -141q0 -56 -33.5 -89t-74.5 -42q40 -8 69.5 -28t45 -42t25 -50t12 -47.5t2.5 -38.5q0 -82 -38 -141q-57 -88 -189 -88q-17 0 -33 1.5t-46.5 11t-52 26.5t-38.5 52t-17 84h64q3 -65 39 -94
q32 -25 88 -25q74 0 114 46.5t40 121.5q0 104 -65 145q-32 20 -65.5 25.5t-102.5 5.5h-64v54q135 0 176 14q33 11 54.5 36t21.5 59q0 37 -26 62.5t-66.5 35t-65 12.5t-44.5 3q-98 0 -153 -33q-60 -38 -60 -133v-499z" />
    <glyph glyph-name="agrave" unicode="&#xe0;" horiz-adv-x="667" 
d="M666 0q-34 -4 -66 -4q-17 0 -30 5t-20.5 11.5t-13 17t-7.5 17t-3 15.5l-2 10q-31 -23 -54 -36q-90 -49 -208 -49q-134 0 -188 65q-33 40 -33 96q0 79 62 122q48 33 143 42.5t278 11.5q0 51 -17 75q-35 49 -187 49q-74 0 -116.5 -13t-58.5 -32.5t-28 -56.5l-70 4
q24 88 90 123q65 35 177 35q180 0 238 -64q33 -38 33 -109v-217q0 -40 14.5 -53.5t49.5 -13.5h17v-51zM524 268h-31q-212 0 -296.5 -26t-84.5 -96q0 -53 48 -76.5t110 -23.5q59 0 132.5 23.5t103.5 74.5q18 32 18 98v26zM376 554h-43l-142 145h110z" />
    <glyph glyph-name="aacute" unicode="&#xe1;" horiz-adv-x="667" 
d="M666 0q-34 -4 -66 -4q-17 0 -30 5t-20.5 11.5t-13 17t-7.5 17t-3 15.5l-2 10q-31 -23 -54 -36q-90 -49 -208 -49q-134 0 -188 65q-33 40 -33 96q0 79 62 122q48 33 143 42.5t278 11.5q0 51 -17 75q-35 49 -187 49q-74 0 -116.5 -13t-58.5 -32.5t-28 -56.5l-70 4
q24 88 90 123q65 35 177 35q180 0 238 -64q33 -38 33 -109v-217q0 -40 14.5 -53.5t49.5 -13.5h17v-51zM524 268h-31q-212 0 -296.5 -26t-84.5 -96q0 -53 48 -76.5t110 -23.5q59 0 132.5 23.5t103.5 74.5q18 32 18 98v26zM468 700l-144 -145h-43l78 145h109z" />
    <glyph glyph-name="acircumflex" unicode="&#xe2;" horiz-adv-x="667" 
d="M666 0q-34 -4 -66 -4q-17 0 -30 5t-20.5 11.5t-13 17t-7.5 17t-3 15.5l-2 10q-31 -23 -54 -36q-90 -49 -208 -49q-134 0 -188 65q-33 40 -33 96q0 79 62 122q48 33 143 42.5t278 11.5q0 51 -17 75q-35 49 -187 49q-74 0 -116.5 -13t-58.5 -32.5t-28 -56.5l-70 4
q24 88 90 123q65 35 177 35q180 0 238 -64q33 -38 33 -109v-217q0 -40 14.5 -53.5t49.5 -13.5h17v-51zM524 268h-31q-212 0 -296.5 -26t-84.5 -96q0 -53 48 -76.5t110 -23.5q59 0 132.5 23.5t103.5 74.5q18 32 18 98v26zM467 549h-51l-82 85l-83 -85h-55l108 132h59z" />
    <glyph glyph-name="atilde" unicode="&#xe3;" horiz-adv-x="667" 
d="M666 0q-34 -4 -66 -4q-17 0 -30 5t-20.5 11.5t-13 17t-7.5 17t-3 15.5l-2 10q-31 -23 -54 -36q-90 -49 -208 -49q-134 0 -188 65q-33 40 -33 96q0 79 62 122q48 33 143 42.5t278 11.5q0 51 -17 75q-35 49 -187 49q-74 0 -116.5 -13t-58.5 -32.5t-28 -56.5l-70 4
q24 88 90 123q65 35 177 35q180 0 238 -64q33 -38 33 -109v-217q0 -40 14.5 -53.5t49.5 -13.5h17v-51zM524 268h-31q-212 0 -296.5 -26t-84.5 -96q0 -53 48 -76.5t110 -23.5q59 0 132.5 23.5t103.5 74.5q18 32 18 98v26zM479 670l29 -14q-17 -42 -38 -65.5t-57 -23.5
q-25 0 -83.5 25t-82.5 25q-30 0 -57 -50l-28 15q41 88 100 88q33 0 87.5 -24.5t74.5 -24.5q30 0 55 49z" />
    <glyph glyph-name="adieresis" unicode="&#xe4;" horiz-adv-x="667" 
d="M666 0q-34 -4 -66 -4q-17 0 -30 5t-20.5 11.5t-13 17t-7.5 17t-3 15.5l-2 10q-31 -23 -54 -36q-90 -49 -208 -49q-134 0 -188 65q-33 40 -33 96q0 79 62 122q48 33 143 42.5t278 11.5q0 51 -17 75q-35 49 -187 49q-74 0 -116.5 -13t-58.5 -32.5t-28 -56.5l-70 4
q24 88 90 123q65 35 177 35q180 0 238 -64q33 -38 33 -109v-217q0 -40 14.5 -53.5t49.5 -13.5h17v-51zM524 268h-31q-212 0 -296.5 -26t-84.5 -96q0 -53 48 -76.5t110 -23.5q59 0 132.5 23.5t103.5 74.5q18 32 18 98v26zM497 564h-70v96h70v-96zM232 564h-70v96h70v-96z" />
    <glyph glyph-name="aring" unicode="&#xe5;" horiz-adv-x="667" 
d="M666 0q-34 -4 -66 -4q-17 0 -30 5t-20.5 11.5t-13 17t-7.5 17t-3 15.5l-2 10q-31 -23 -54 -36q-90 -49 -208 -49q-134 0 -188 65q-33 40 -33 96q0 79 62 122q48 33 143 42.5t278 11.5q0 51 -17 75q-35 49 -187 49q-74 0 -116.5 -13t-58.5 -32.5t-28 -56.5l-70 4
q24 88 90 123q65 35 177 35q180 0 238 -64q33 -38 33 -109v-217q0 -40 14.5 -53.5t49.5 -13.5h17v-51zM524 268h-31q-212 0 -296.5 -26t-84.5 -96q0 -53 48 -76.5t110 -23.5q59 0 132.5 23.5t103.5 74.5q18 32 18 98v26zM445 631q0 -44 -38.5 -65.5t-78.5 -21.5
q-41 0 -76.5 21.5t-35.5 64.5t35 64.5t79 21.5q56 0 85.5 -24.5t29.5 -60.5zM391 630q0 19 -15.5 32t-45.5 13q-29 0 -46 -13.5t-17 -31.5t16.5 -29.5t45.5 -11.5t45.5 11.5t16.5 29.5z" />
    <glyph glyph-name="ae" unicode="&#xe6;" horiz-adv-x="1146" 
d="M1051 170l52 -34q-23 -50 -63 -83.5t-85 -46t-72 -16.5t-52 -4q-93 0 -163.5 34t-96.5 91q-5 -17 -20.5 -35.5t-46 -40t-87 -35.5t-129.5 -14q-170 0 -223 81q-25 36 -25 85q0 65 44 101q57 47 221 47h235q-1 69 -19 95q-40 58 -194 58q-87 0 -137 -26q-44 -23 -59 -78
l-71 7q6 21 10 33t22.5 38t44.5 41t77.5 28t118.5 13q218 0 258 -100q22 35 79.5 67.5t149.5 32.5q53 0 101 -15t89.5 -45.5t66.5 -83t26 -120.5h-497q0 -96 61.5 -148.5t166.5 -52.5q20 0 42 3t59 14t68.5 39t47.5 70zM609 300h419q-6 41 -27.5 71.5t-46 45.5t-55.5 23.5
t-47.5 10t-30.5 1.5q-78 0 -137.5 -38t-74.5 -114zM540 245h-254q-101 0 -140 -30q-31 -24 -31 -66q0 -51 39 -76q47 -31 144 -31q67 0 130 23t90 73q20 36 22 107z" />
    <glyph glyph-name="ccedilla" unicode="&#xe7;" horiz-adv-x="667" 
d="M581 193l67 -25q-20 -34 -37 -55.5t-46 -49t-69.5 -45t-92.5 -25.5q-23 -3 -45 -4v-49q97 -3 97 -70q0 -36 -32 -55.5t-87 -19.5q-26 0 -78 6v33q40 -4 61 -4q72 0 72 35q0 38 -70 38h-7v86q-55 4 -94 17q-32 11 -60.5 28.5t-57 45.5t-45.5 72t-17 98q0 66 28 118.5
t73.5 83.5t99 46.5t108.5 15.5q162 0 256 -111q20 -23 33 -47l-66 -28q-37 60 -89 94.5t-136 34.5q-64 0 -112 -21t-73 -54t-36.5 -66.5t-11.5 -66.5q0 -98 69.5 -150t160.5 -52q77 0 143 36.5t94 109.5z" />
    <glyph glyph-name="egrave" unicode="&#xe8;" horiz-adv-x="667" 
d="M575 172l52 -37q-43 -62 -99 -98q-81 -50 -184 -50q-102 0 -180 52q-55 36 -86 94t-31 125q0 114 79 182q29 26 81.5 48t121.5 22q137 0 222 -87q71 -71 76 -183h-511q6 -92 73 -143.5t162 -51.5q148 0 224 127zM118 296h429q-16 77 -84 121q-58 37 -139 37
q-91 0 -146 -52q-48 -46 -60 -106zM370 554h-43l-142 145h110z" />
    <glyph glyph-name="eacute" unicode="&#xe9;" horiz-adv-x="667" 
d="M575 172l52 -37q-43 -62 -99 -98q-81 -50 -184 -50q-102 0 -180 52q-55 36 -86 94t-31 125q0 114 79 182q29 26 81.5 48t121.5 22q137 0 222 -87q71 -71 76 -183h-511q6 -92 73 -143.5t162 -51.5q148 0 224 127zM118 296h429q-16 77 -84 121q-58 37 -139 37
q-91 0 -146 -52q-48 -46 -60 -106zM483 700l-144 -145h-43l78 145h109z" />
    <glyph glyph-name="ecircumflex" unicode="&#xea;" horiz-adv-x="667" 
d="M575 172l52 -37q-43 -62 -99 -98q-81 -50 -184 -50q-102 0 -180 52q-55 36 -86 94t-31 125q0 114 79 182q29 26 81.5 48t121.5 22q137 0 222 -87q71 -71 76 -183h-511q6 -92 73 -143.5t162 -51.5q148 0 224 127zM118 296h429q-16 77 -84 121q-58 37 -139 37
q-91 0 -146 -52q-48 -46 -60 -106zM468 549h-51l-82 85l-83 -85h-55l108 132h59z" />
    <glyph glyph-name="edieresis" unicode="&#xeb;" horiz-adv-x="667" 
d="M575 172l52 -37q-43 -62 -99 -98q-81 -50 -184 -50q-102 0 -180 52q-55 36 -86 94t-31 125q0 114 79 182q29 26 81.5 48t121.5 22q137 0 222 -87q71 -71 76 -183h-511q6 -92 73 -143.5t162 -51.5q148 0 224 127zM118 296h429q-16 77 -84 121q-58 37 -139 37
q-91 0 -146 -52q-48 -46 -60 -106zM502 564h-70v96h70v-96zM237 564h-70v96h70v-96z" />
    <glyph glyph-name="igrave" unicode="&#xec;" horiz-adv-x="208" 
d="M137 0h-66v494h66v-494zM141 554h-43l-142 145h110z" />
    <glyph glyph-name="iacute" unicode="&#xed;" horiz-adv-x="208" 
d="M137 0h-66v494h66v-494zM254 700l-144 -145h-43l78 145h109z" />
    <glyph glyph-name="icircumflex" unicode="&#xee;" horiz-adv-x="208" 
d="M137 0h-66v494h66v-494zM239 549h-51l-82 85l-83 -85h-55l108 132h59z" />
    <glyph glyph-name="idieresis" unicode="&#xef;" horiz-adv-x="208" 
d="M137 0h-66v494h66v-494zM273 564h-70v96h70v-96zM8 564h-70v96h70v-96z" />
    <glyph glyph-name="eth" unicode="&#xf0;" 
d="M601 686l25 -47l-115 -25q10 -8 46 -47q113 -128 113 -290q0 -137 -96 -219q-83 -71 -224 -71q-86 0 -152 27q-63 27 -108.5 86t-45.5 150q0 65 28 116.5t74 82t98.5 46t106.5 15.5q130 0 209 -79q-14 30 -22.5 47t-38 51.5t-70.5 66.5l-223 -47l-24 46l197 44
q-41 30 -88 56l84 24q7 -4 88 -63zM590 248q0 101 -69.5 154.5t-166.5 53.5q-114 0 -175 -61.5t-61 -147.5q0 -36 11.5 -70t36.5 -65.5t73 -50.5t113 -19q97 0 167.5 51.5t70.5 154.5z" />
    <glyph glyph-name="ntilde" unicode="&#xf1;" 
d="M638 0h-66v287q0 158 -212 158q-106 0 -164.5 -44.5t-58.5 -104.5v-296h-66v494h67v-69q9 10 21.5 20.5t39.5 26.5t71.5 26t98.5 10q52 0 100 -11q112 -27 149 -106q20 -43 20 -118v-273zM500 670l29 -14q-17 -42 -38 -65.5t-57 -23.5q-25 0 -83.5 25t-82.5 25
q-30 0 -57 -50l-28 15q41 88 100 88q33 0 87.5 -24.5t74.5 -24.5q31 0 55 49z" />
    <glyph glyph-name="ograve" unicode="&#xf2;" 
d="M43 247q0 49 15.5 90t40.5 68.5t46 43t43 26.5q70 35 172 35q131 0 212 -67q53 -44 72.5 -100t19.5 -100q0 -75 -41 -134q-34 -49 -101 -86t-170 -37q-42 0 -78 7q-126 23 -188 113q-43 63 -43 141zM590 247q0 97 -68 153t-167 56q-87 0 -151 -42q-86 -57 -86 -168
q0 -72 40 -124q32 -41 84 -60.5t109 -19.5q127 0 193 75q46 53 46 130zM391 554h-43l-142 145h110z" />
    <glyph glyph-name="oacute" unicode="&#xf3;" 
d="M43 247q0 49 15.5 90t40.5 68.5t46 43t43 26.5q70 35 172 35q131 0 212 -67q53 -44 72.5 -100t19.5 -100q0 -75 -41 -134q-34 -49 -101 -86t-170 -37q-42 0 -78 7q-126 23 -188 113q-43 63 -43 141zM590 247q0 97 -68 153t-167 56q-87 0 -151 -42q-86 -57 -86 -168
q0 -72 40 -124q32 -41 84 -60.5t109 -19.5q127 0 193 75q46 53 46 130zM504 700l-144 -145h-43l78 145h109z" />
    <glyph glyph-name="ocircumflex" unicode="&#xf4;" 
d="M43 247q0 49 15.5 90t40.5 68.5t46 43t43 26.5q70 35 172 35q131 0 212 -67q53 -44 72.5 -100t19.5 -100q0 -75 -41 -134q-34 -49 -101 -86t-170 -37q-42 0 -78 7q-126 23 -188 113q-43 63 -43 141zM590 247q0 97 -68 153t-167 56q-87 0 -151 -42q-86 -57 -86 -168
q0 -72 40 -124q32 -41 84 -60.5t109 -19.5q127 0 193 75q46 53 46 130zM489 549h-51l-82 85l-83 -85h-55l108 132h59z" />
    <glyph glyph-name="otilde" unicode="&#xf5;" 
d="M664 243q0 -75 -41 -134q-34 -49 -101 -86t-170 -37q-133 0 -221 71t-88 190q0 120 88.5 191.5t228.5 71.5q131 0 212 -67q53 -44 72.5 -100t19.5 -100zM590 247q0 54 -21 95t-49 62t-64.5 33.5t-59 15.5t-41.5 3q-87 0 -151 -42q-86 -57 -86 -168q0 -72 40 -124
q32 -41 84 -60.5t109 -19.5q127 0 193 75q46 53 46 130zM509 670l30 -15q-9 -20 -16.5 -33t-19.5 -27t-28 -21t-37 -7q-27 0 -90 25t-88 25q-18 0 -31 -12t-30 -38l-29 18q42 85 106 85q35 0 93.5 -24.5t80.5 -24.5q33 0 59 49z" />
    <glyph glyph-name="odieresis" unicode="&#xf6;" 
d="M43 247q0 49 15.5 90t40.5 68.5t46 43t43 26.5q70 35 172 35q131 0 212 -67q53 -44 72.5 -100t19.5 -100q0 -75 -41 -134q-34 -49 -101 -86t-170 -37q-42 0 -78 7q-126 23 -188 113q-43 63 -43 141zM590 247q0 97 -68 153t-167 56q-87 0 -151 -42q-86 -57 -86 -168
q0 -72 40 -124q32 -41 84 -60.5t109 -19.5q127 0 193 75q46 53 46 130zM521 564h-70v96h70v-96zM256 564h-70v96h70v-96z" />
    <glyph glyph-name="divide" unicode="&#xf7;" horiz-adv-x="772" 
d="M427 395h-83v82h83v-82zM706 263h-640v60h640v-60zM428 106h-83v82h83v-82z" />
    <glyph glyph-name="oslash" unicode="&#xf8;" 
d="M619 514l35 -39l-65 -55q70 -81 70 -173q0 -105 -75 -177q-34 -32 -93 -57.5t-140 -25.5q-114 0 -208 62l-76 -64l-35 40l71 60q-62 85 -62 163q0 63 31 121q39 72 114.5 107t164.5 35q121 0 197 -56zM543 382l-352 -294q63 -44 160 -44q102 0 169 56q71 59 71 154
q0 69 -48 128zM152 125l349 291q-54 39 -147 39q-99 0 -172 -56t-73 -152q0 -71 43 -122z" />
    <glyph glyph-name="ugrave" unicode="&#xf9;" 
d="M391 554h-43l-142 145h110zM637 0h-65v71q-90 -84 -244 -84q-189 0 -238 113q-19 42 -19 118v276h66v-270q0 -30 2.5 -50t13 -46t30 -42t57 -27t89.5 -11q64 0 130 19.5t95 62.5q18 27 18 70v294h65v-494z" />
    <glyph glyph-name="uacute" unicode="&#xfa;" 
d="M504 700l-144 -145h-43l78 145h109zM637 0h-65v71q-90 -84 -244 -84q-189 0 -238 113q-19 42 -19 118v276h66v-270q0 -30 2.5 -50t13 -46t30 -42t57 -27t89.5 -11q64 0 130 19.5t95 62.5q18 27 18 70v294h65v-494z" />
    <glyph glyph-name="ucircumflex" unicode="&#xfb;" 
d="M488 549h-51l-82 85l-83 -85h-54l108 132h59zM637 0h-65v71q-90 -84 -244 -84q-189 0 -238 113q-19 42 -19 118v276h66v-270q0 -30 2.5 -50t13 -46t30 -42t57 -27t89.5 -11q64 0 130 19.5t95 62.5q18 27 18 70v294h65v-494z" />
    <glyph glyph-name="udieresis" unicode="&#xfc;" 
d="M521 563h-69v96h69v-96zM256 563h-69v96h69v-96zM637 0h-65v71q-90 -84 -244 -84q-189 0 -238 113q-19 42 -19 118v276h66v-270q0 -30 2.5 -50t13 -46t30 -42t57 -27t89.5 -11q64 0 130 19.5t95 62.5q18 27 18 70v294h65v-494z" />
    <glyph glyph-name="yacute" unicode="&#xfd;" horiz-adv-x="562" 
d="M489 494h71l-233 -532q-16 -38 -24.5 -55t-21.5 -36t-29 -31q-43 -34 -139 -34q-49 0 -102 12v62q52 -18 100 -18q39 0 66 8.5t44 27t25 33.5t19 42l-265 521h79l221 -448zM431 700l-144 -145h-43l78 145h109z" />
    <glyph glyph-name="thorn" unicode="&#xfe;" 
d="M74 706h64v-290q75 92 239 92q64 0 115.5 -18.5t82 -47t50.5 -64.5t27.5 -68t7.5 -62q0 -84 -46.5 -145t-112.5 -88t-139 -27q-143 0 -224 88v-263h-64v893zM586 249q0 31 -10.5 63t-34 64t-69 52.5t-107.5 20.5t-107.5 -18t-67 -41t-34.5 -55t-15 -49.5t-2 -34.5
q0 -67 21 -107q28 -51 87 -73t111 -22q94 0 161 52t67 148z" />
    <glyph glyph-name="ydieresis" unicode="&#xff;" horiz-adv-x="562" 
d="M489 494h71l-233 -532q-16 -38 -24.5 -55t-21.5 -36t-29 -31q-43 -34 -139 -34q-49 0 -102 12v62q52 -18 100 -18q39 0 66 8.5t44 27t25 33.5t19 42l-265 521h79l221 -448zM450 564h-70v96h70v-96zM185 564h-70v96h70v-96z" />
    <glyph glyph-name="Amacron" unicode="&#x100;" horiz-adv-x="792" 
d="M786 0h-73l-91 183h-455l-90 -183h-71l348 706h76zM594 239l-202 404l-198 -404h400zM560 809h-335v52h335v-52z" />
    <glyph glyph-name="amacron" unicode="&#x101;" horiz-adv-x="667" 
d="M666 0q-34 -4 -66 -4q-17 0 -30 5t-20.5 11.5t-13 17t-7.5 17t-3 15.5l-2 10q-31 -23 -54 -36q-90 -49 -208 -49q-134 0 -188 65q-33 40 -33 96q0 79 62 122q48 33 143 42.5t278 11.5q0 51 -17 75q-35 49 -187 49q-74 0 -116.5 -13t-58.5 -32.5t-28 -56.5l-70 4
q24 88 90 123q65 35 177 35q180 0 238 -64q33 -38 33 -109v-217q0 -40 14.5 -53.5t49.5 -13.5h17v-51zM524 268h-31q-212 0 -296.5 -26t-84.5 -96q0 -53 48 -76.5t110 -23.5q59 0 132.5 23.5t103.5 74.5q18 32 18 98v26zM508 569h-335v52h335v-52z" />
    <glyph glyph-name="Abreve" unicode="&#x102;" horiz-adv-x="792" 
d="M786 0h-73l-91 183h-455l-90 -183h-71l348 706h76zM594 239l-202 404l-198 -404h400zM539 897q-8 -64 -50 -91t-98 -27q-21 0 -40 4t-42.5 14.5t-40.5 36t-22 63.5h50q12 -72 93 -72q91 0 101 72h49z" />
    <glyph glyph-name="abreve" unicode="&#x103;" horiz-adv-x="667" 
d="M666 0q-34 -4 -66 -4q-17 0 -30 5t-20.5 11.5t-13 17t-7.5 17t-3 15.5l-2 10q-31 -23 -54 -36q-90 -49 -208 -49q-134 0 -188 65q-33 40 -33 96q0 79 62 122q48 33 143 42.5t278 11.5q0 51 -17 75q-35 49 -187 49q-74 0 -116.5 -13t-58.5 -32.5t-28 -56.5l-70 4
q24 88 90 123q65 35 177 35q180 0 238 -64q33 -38 33 -109v-217q0 -40 14.5 -53.5t49.5 -13.5h17v-51zM524 268h-31q-212 0 -296.5 -26t-84.5 -96q0 -53 48 -76.5t110 -23.5q59 0 132.5 23.5t103.5 74.5q18 32 18 98v26zM417 682h49q-7 -63 -46.5 -93.5t-93.5 -30.5
q-18 0 -36 4t-41.5 15.5t-40 38.5t-21.5 66h50q4 -29 24 -53.5t63 -24.5q16 0 32 3.5t36 22.5t25 52z" />
    <glyph glyph-name="Aogonek" unicode="&#x104;" horiz-adv-x="792" 
d="M786 0h-5q-41 -7 -68 -28.5t-27 -48.5q0 -23 18 -39t53 -16q13 0 53 4v-50q-48 -6 -67 -6q-58 0 -88 22.5t-30 61.5q0 64 87 102l-90 181h-455l-90 -183h-71l348 706h76zM594 239l-202 404l-198 -404h400z" />
    <glyph glyph-name="aogonek" unicode="&#x105;" horiz-adv-x="667" 
d="M666 51v-51q-34 -4 -60 -4q-48 0 -76.5 -22.5t-28.5 -50.5q0 -23 18 -39t53 -16q13 0 53 4v-50q-48 -6 -67 -6q-58 0 -88 22.5t-30 61.5q0 29 26.5 61t85.5 51q-7 6 -12 13t-8 14.5t-4.5 13.5t-2.5 12t-1 7q-31 -23 -54 -36q-90 -49 -208 -49q-134 0 -188 65
q-33 40 -33 96q0 79 62 122q48 33 143 42.5t278 11.5q0 51 -17 75q-35 49 -187 49q-74 0 -116.5 -13t-58.5 -32.5t-28 -56.5l-70 4q24 88 90 123q65 35 177 35q180 0 238 -64q33 -38 33 -109v-217q0 -40 14.5 -53.5t49.5 -13.5h17zM524 268h-31q-212 0 -296.5 -26t-84.5 -96
q0 -53 48 -76.5t110 -23.5q59 0 132.5 23.5t103.5 74.5q18 32 18 98v26z" />
    <glyph glyph-name="Cacute" unicode="&#x106;" horiz-adv-x="827" 
d="M789 534l-60 -33q-24 43 -57 75.5t-63.5 48.5t-66 26t-57.5 12t-44 2q-147 0 -240 -95q-85 -87 -85 -219q0 -129 88 -216q91 -91 238 -91q201 0 304 175l61 -29q-45 -79 -111 -128q-109 -80 -258 -80q-148 0 -247 72q-72 53 -111 132t-39 170q0 133 82 231q38 45 85.5 76
t94 43.5t77 17t59.5 4.5q165 0 276 -101q35 -31 74 -93zM563 900l-150 -126h-45l84 126h111z" />
    <glyph glyph-name="cacute" unicode="&#x107;" horiz-adv-x="667" 
d="M582 193l66 -25q-40 -65 -75 -98q-87 -81 -236 -81q-61 0 -111 15q-27 8 -53 22.5t-59 42t-53.5 74.5t-20.5 107q0 101 65 170q43 46 109 70t134 24q196 0 290 -158l-66 -27q-9 19 -35 48t-53 45q-57 35 -138 35q-76 0 -127.5 -29.5t-75.5 -71.5q-29 -47 -29 -105
q0 -99 69.5 -151.5t160.5 -52.5q50 0 101.5 18t84.5 50q26 26 52 78zM464 700l-144 -145h-43l78 145h109z" />
    <glyph glyph-name="Ccircumflex" unicode="&#x108;" horiz-adv-x="827" 
d="M789 534l-60 -33q-24 43 -57 75.5t-63.5 48.5t-66 26t-57.5 12t-44 2q-147 0 -240 -95q-85 -87 -85 -219q0 -129 88 -216q91 -91 238 -91q201 0 304 175l61 -29q-45 -79 -111 -128q-109 -80 -258 -80q-148 0 -247 72q-72 53 -111 132t-39 170q0 133 82 231q38 45 85.5 76
t94 43.5t77 17t59.5 4.5q165 0 276 -101q35 -31 74 -93zM595 774h-64l-85 77l-89 -77h-63l114 126h79z" />
    <glyph glyph-name="ccircumflex" unicode="&#x109;" horiz-adv-x="667" 
d="M582 193l66 -25q-40 -65 -75 -98q-87 -81 -236 -81q-61 0 -111 15q-27 8 -53 22.5t-59 42t-53.5 74.5t-20.5 107q0 101 65 170q43 46 109 70t134 24q196 0 290 -158l-66 -27q-9 19 -35 48t-53 45q-57 35 -138 35q-76 0 -127.5 -29.5t-75.5 -71.5q-29 -47 -29 -105
q0 -99 69.5 -151.5t160.5 -52.5q50 0 101.5 18t84.5 50q26 26 52 78zM488 549h-51l-82 85l-83 -85h-55l108 132h59z" />
    <glyph glyph-name="Cdotaccent" unicode="&#x10a;" horiz-adv-x="827" 
d="M789 534l-60 -33q-24 43 -57 75.5t-63.5 48.5t-66 26t-57.5 12t-44 2q-147 0 -240 -95q-85 -87 -85 -219q0 -129 88 -216q91 -91 238 -91q201 0 304 175l61 -29q-45 -79 -111 -128q-109 -80 -258 -80q-148 0 -247 72q-72 53 -111 132t-39 170q0 133 82 231q38 45 85.5 76
t94 43.5t77 17t59.5 4.5q165 0 276 -101q35 -31 74 -93zM469 798h-65v94h65v-94z" />
    <glyph glyph-name="cdotaccent" unicode="&#x10b;" horiz-adv-x="667" 
d="M582 193l66 -25q-40 -65 -75 -98q-87 -81 -236 -81q-61 0 -111 15q-27 8 -53 22.5t-59 42t-53.5 74.5t-20.5 107q0 101 65 170q43 46 109 70t134 24q196 0 290 -158l-66 -27q-9 19 -35 48t-53 45q-57 35 -138 35q-76 0 -127.5 -29.5t-75.5 -71.5q-29 -47 -29 -105
q0 -99 69.5 -151.5t160.5 -52.5q50 0 101.5 18t84.5 50q26 26 52 78zM383 586h-65v94h65v-94z" />
    <glyph glyph-name="Ccaron" unicode="&#x10c;" horiz-adv-x="827" 
d="M789 534l-60 -33q-24 43 -57 75.5t-63.5 48.5t-66 26t-57.5 12t-44 2q-147 0 -240 -95q-85 -87 -85 -219q0 -129 88 -216q91 -91 238 -91q201 0 304 175l61 -29q-45 -79 -111 -128q-109 -80 -258 -80q-148 0 -247 72q-72 53 -111 132t-39 170q0 133 82 231q38 45 85.5 76
t94 43.5t77 17t59.5 4.5q165 0 276 -101q35 -31 74 -93zM593 900l-115 -126h-81l-107 126h65l85 -76l88 76h65z" />
    <glyph glyph-name="ccaron" unicode="&#x10d;" horiz-adv-x="667" 
d="M582 193l66 -25q-40 -65 -75 -98q-87 -81 -236 -81q-61 0 -111 15q-27 8 -53 22.5t-59 42t-53.5 74.5t-20.5 107q0 101 65 170q43 46 109 70t134 24q196 0 290 -158l-66 -27q-9 19 -35 48t-53 45q-57 35 -138 35q-76 0 -127.5 -29.5t-75.5 -71.5q-29 -47 -29 -105
q0 -99 69.5 -151.5t160.5 -52.5q50 0 101.5 18t84.5 50q26 26 52 78zM484 681l-107 -132h-61l-103 132h53l81 -85l83 85h54z" />
    <glyph glyph-name="Dcaron" unicode="&#x10e;" horiz-adv-x="854" 
d="M83 706h353q82 0 139.5 -15.5t109.5 -57.5q120 -99 120 -282q0 -58 -14 -110q-40 -147 -166 -205q-79 -36 -222 -36h-320v706zM153 648v-589h225q62 0 100 3t90 19.5t86 49.5q80 76 80 216q0 96 -42 173t-127 108q-54 20 -129 20h-283zM519 900l-115 -126h-81l-107 126
h65l85 -76l88 76h65z" />
    <glyph glyph-name="dcaron" unicode="&#x10f;" 
d="M635 0h-66v75q-15 -18 -37 -35.5t-74 -35.5t-114 -18q-77 0 -147.5 31t-110.5 90q-42 60 -42 143q0 120 90.5 189.5t213.5 69.5q26 0 59 -4t85.5 -27t76.5 -63v291h66v-706zM569 249q0 100 -55 147q-67 57 -167 57q-48 0 -95 -17q-42 -15 -71 -40t-41.5 -54t-17 -51
t-4.5 -44q0 -48 22 -92q19 -38 51 -63t67 -34.5t55.5 -12t39.5 -2.5q54 0 104.5 19.5t78.5 58.5q33 46 33 128zM672 706h74v-100q0 -77 -74 -83v32q37 6 37 49v19h-37v83z" />
    <glyph glyph-name="Dcroat" unicode="&#x110;" horiz-adv-x="854" 
d="M83 0v356h-83v52h83v298h361q87 0 141 -18q60 -20 104.5 -58.5t69 -86.5t35.5 -95.5t11 -96.5q0 -120 -56 -206q-22 -34 -48.5 -59.5t-57.5 -40.5t-58.5 -25t-63 -14t-59.5 -5t-59 -1h-320zM153 59h225q142 0 208 28q148 64 148 262q0 17 -1.5 36t-11 59t-26.5 72
t-53.5 65.5t-85.5 49.5q-51 17 -120 17h-283v-241h348v-51h-348v-297z" />
    <glyph glyph-name="dcroat" unicode="&#x111;" 
d="M635 0h-66v75q-15 -18 -37 -35.5t-74 -35.5t-114 -18q-77 0 -147.5 31t-110.5 90q-42 60 -42 143q0 120 90.5 189.5t213.5 69.5q26 0 59 -4t85.5 -27t76.5 -63v141h-261v50h261v100h66v-100h73v-50h-73v-556zM569 249q0 100 -55 147q-67 57 -167 57q-48 0 -95 -17
q-42 -15 -71 -40t-41.5 -54t-17 -51t-4.5 -44q0 -48 22 -92q19 -38 51 -63t67 -34.5t55.5 -12t39.5 -2.5q54 0 104.5 19.5t78.5 58.5q33 46 33 128z" />
    <glyph glyph-name="Emacron" unicode="&#x112;" horiz-adv-x="833" 
d="M788 0h-705v706h676v-58h-607v-248h561v-60h-561v-281h636v-59zM594 809h-335v52h335v-52z" />
    <glyph glyph-name="emacron" unicode="&#x113;" horiz-adv-x="667" 
d="M575 172l52 -37q-43 -62 -99 -98q-81 -50 -184 -50q-102 0 -180 52q-55 36 -86 94t-31 125q0 114 79 182q29 26 81.5 48t121.5 22q137 0 222 -87q71 -71 76 -183h-511q6 -92 73 -143.5t162 -51.5q148 0 224 127zM118 296h429q-16 77 -84 121q-58 37 -139 37
q-91 0 -146 -52q-48 -46 -60 -106zM508 569h-335v52h335v-52z" />
    <glyph glyph-name="Ebreve" unicode="&#x114;" horiz-adv-x="833" 
d="M788 0h-705v706h676v-58h-607v-248h561v-60h-561v-281h636v-59zM575 897q-8 -64 -50 -91t-98 -27q-21 0 -40 4t-42.5 14.5t-40.5 36t-22 63.5h50q12 -72 93 -72q91 0 101 72h49z" />
    <glyph glyph-name="ebreve" unicode="&#x115;" horiz-adv-x="667" 
d="M575 172l52 -37q-43 -62 -99 -98q-81 -50 -184 -50q-102 0 -180 52q-55 36 -86 94t-31 125q0 114 79 182q29 26 81.5 48t121.5 22q137 0 222 -87q71 -71 76 -183h-511q6 -92 73 -143.5t162 -51.5q148 0 224 127zM118 296h429q-16 77 -84 121q-58 37 -139 37
q-91 0 -146 -52q-48 -46 -60 -106zM429 682h49q-7 -63 -46.5 -93.5t-93.5 -30.5q-18 0 -36 4t-41.5 15.5t-40 38.5t-21.5 66h50q4 -29 24 -53.5t63 -24.5q16 0 32 3.5t36 22.5t25 52z" />
    <glyph glyph-name="Edotaccent" unicode="&#x116;" horiz-adv-x="833" 
d="M788 0h-705v706h676v-58h-607v-248h561v-60h-561v-281h636v-59zM468 798h-65v94h65v-94z" />
    <glyph glyph-name="edotaccent" unicode="&#x117;" horiz-adv-x="667" 
d="M575 172l52 -37q-43 -62 -99 -98q-81 -50 -184 -50q-102 0 -180 52q-55 36 -86 94t-31 125q0 114 79 182q29 26 81.5 48t121.5 22q137 0 222 -87q71 -71 76 -183h-511q6 -92 73 -143.5t162 -51.5q148 0 224 127zM118 296h429q-16 77 -84 121q-58 37 -139 37
q-91 0 -146 -52q-48 -46 -60 -106zM371 586h-65v94h65v-94z" />
    <glyph glyph-name="Eogonek" unicode="&#x118;" horiz-adv-x="833" 
d="M788 0h-60q-45 -6 -72.5 -28t-27.5 -49q0 -23 18 -39t53 -16q13 0 53 4v-50q-48 -6 -67 -6q-58 0 -88 22.5t-30 61.5q0 62 84 100h-568v706h676v-58h-607v-248h561v-60h-561v-281h636v-59z" />
    <glyph glyph-name="eogonek" unicode="&#x119;" horiz-adv-x="667" 
d="M575 172l52 -37q-75 -105 -178 -133q-46 -13 -68.5 -34t-22.5 -45q0 -23 18 -39t53 -16q13 0 53 4v-50q-48 -6 -67 -6q-58 0 -88 22.5t-30 61.5q0 51 58 87h-11q-102 0 -180 52q-55 36 -86 94t-31 125q0 114 79 182q29 26 81.5 48t121.5 22q17 0 39 -3t57.5 -11.5
t67.5 -28t62 -47t49.5 -74.5t22.5 -106h-511q6 -92 73 -143.5t162 -51.5q148 0 224 127zM118 296h429q-16 77 -84 121q-58 37 -139 37q-91 0 -146 -52q-48 -46 -60 -106z" />
    <glyph glyph-name="Ecaron" unicode="&#x11a;" horiz-adv-x="833" 
d="M788 0h-705v706h676v-58h-607v-248h561v-60h-561v-281h636v-59zM588 900l-115 -126h-81l-107 126h65l85 -76l88 76h65z" />
    <glyph glyph-name="ecaron" unicode="&#x11b;" horiz-adv-x="667" 
d="M575 172l52 -37q-43 -62 -99 -98q-81 -50 -184 -50q-102 0 -180 52q-55 36 -86 94t-31 125q0 114 79 182q29 26 81.5 48t121.5 22q137 0 222 -87q71 -71 76 -183h-511q6 -92 73 -143.5t162 -51.5q148 0 224 127zM118 296h429q-16 77 -84 121q-58 37 -139 37
q-91 0 -146 -52q-48 -46 -60 -106zM475 681l-107 -132h-61l-103 132h53l81 -85l83 85h54z" />
    <glyph glyph-name="Gcircumflex" unicode="&#x11c;" horiz-adv-x="896" 
d="M386 309v60h436v-369h-61v144q-24 -42 -55 -71q-38 -35 -106 -64t-158 -29q-57 0 -112.5 13.5t-107.5 43t-91.5 72t-63 105t-23.5 137.5q0 143 86 243q114 134 316 134q31 0 66 -3.5t98.5 -25t109.5 -58.5q49 -40 85 -100l-66 -38q-43 83 -123 122t-176 39
q-144 0 -233.5 -88.5t-89.5 -222.5q0 -119 68 -200q93 -110 267 -110q118 0 211.5 72.5t97.5 193.5h-375zM604 774h-64l-85 77l-89 -77h-63l114 126h79z" />
    <glyph glyph-name="gcircumflex" unicode="&#x11d;" horiz-adv-x="688" 
d="M553 494h64v-456q0 -62 -13 -102q-32 -103 -172 -128q-48 -8 -96 -8q-123 0 -188 40q-63 39 -73 124h69q2 -17 5 -27.5t16.5 -27t37.5 -27.5q51 -23 130 -23q59 0 111 13q57 14 83 48t26 115v43q-69 -92 -226 -92q-75 0 -132 24q-25 11 -48 26.5t-49 43t-42 71.5t-16 99
q0 95 58 162q85 97 238 97q69 0 128 -24t91 -63q-2 55 -2 72zM555 250q0 109 -60 156q-60 48 -154 48q-98 0 -163.5 -54.5t-65.5 -150.5q0 -46 19 -89q18 -38 47.5 -63.5t62.5 -35.5t53.5 -13t40.5 -3q111 0 171 61q49 49 49 144zM469 549h-51l-82 85l-83 -85h-55l108 132
h59z" />
    <glyph glyph-name="Gbreve" unicode="&#x11e;" horiz-adv-x="896" 
d="M386 309v60h436v-369h-61v144q-24 -42 -55 -71q-38 -35 -106 -64t-158 -29q-57 0 -112.5 13.5t-107.5 43t-91.5 72t-63 105t-23.5 137.5q0 143 86 243q114 134 316 134q31 0 66 -3.5t98.5 -25t109.5 -58.5q49 -40 85 -100l-66 -38q-43 83 -123 122t-176 39
q-144 0 -233.5 -88.5t-89.5 -222.5q0 -119 68 -200q93 -110 267 -110q118 0 211.5 72.5t97.5 193.5h-375zM592 897q-8 -64 -50 -91t-98 -27q-21 0 -40 4t-42.5 14.5t-40.5 36t-22 63.5h50q12 -72 93 -72q91 0 101 72h49z" />
    <glyph glyph-name="gbreve" unicode="&#x11f;" horiz-adv-x="688" 
d="M553 494h64v-456q0 -62 -13 -102q-32 -103 -172 -128q-48 -8 -96 -8q-123 0 -188 40q-63 39 -73 124h69q2 -17 5 -27.5t16.5 -27t37.5 -27.5q51 -23 130 -23q59 0 111 13q57 14 83 48t26 115v43q-69 -92 -226 -92q-75 0 -132 24q-25 11 -48 26.5t-49 43t-42 71.5t-16 99
q0 95 58 162q85 97 238 97q69 0 128 -24t91 -63q-2 55 -2 72zM555 250q0 109 -60 156q-60 48 -154 48q-98 0 -163.5 -54.5t-65.5 -150.5q0 -46 19 -89q18 -38 47.5 -63.5t62.5 -35.5t53.5 -13t40.5 -3q111 0 171 61q49 49 49 144zM431 682h49q-7 -63 -46.5 -93.5
t-93.5 -30.5q-18 0 -36 4t-41.5 15.5t-40 38.5t-21.5 66h50q4 -29 24 -53.5t63 -24.5q16 0 32 3.5t36 22.5t25 52z" />
    <glyph glyph-name="Gdotaccent" unicode="&#x120;" horiz-adv-x="896" 
d="M386 309v60h436v-369h-61v144q-24 -42 -55 -71q-38 -35 -106 -64t-158 -29q-57 0 -112.5 13.5t-107.5 43t-91.5 72t-63 105t-23.5 137.5q0 143 86 243q114 134 316 134q31 0 66 -3.5t98.5 -25t109.5 -58.5q49 -40 85 -100l-66 -38q-43 83 -123 122t-176 39
q-144 0 -233.5 -88.5t-89.5 -222.5q0 -119 68 -200q93 -110 267 -110q118 0 211.5 72.5t97.5 193.5h-375zM481 798h-65v94h65v-94z" />
    <glyph glyph-name="gdotaccent" unicode="&#x121;" horiz-adv-x="688" 
d="M553 494h64v-456q0 -62 -13 -102q-32 -103 -172 -128q-48 -8 -96 -8q-123 0 -188 40q-63 39 -73 124h69q2 -17 5 -27.5t16.5 -27t37.5 -27.5q51 -23 130 -23q59 0 111 13q57 14 83 48t26 115v43q-69 -92 -226 -92q-75 0 -132 24q-25 11 -48 26.5t-49 43t-42 71.5t-16 99
q0 95 58 162q85 97 238 97q69 0 128 -24t91 -63q-2 55 -2 72zM555 250q0 109 -60 156q-60 48 -154 48q-98 0 -163.5 -54.5t-65.5 -150.5q0 -46 19 -89q18 -38 47.5 -63.5t62.5 -35.5t53.5 -13t40.5 -3q111 0 171 61q49 49 49 144zM363 586h-65v94h65v-94z" />
    <glyph glyph-name="Gcommaaccent" unicode="&#x122;" horiz-adv-x="896" 
d="M386 309v60h436v-369h-61v144q-24 -42 -55 -71q-38 -35 -106 -64t-158 -29q-57 0 -112.5 13.5t-107.5 43t-91.5 72t-63 105t-23.5 137.5q0 143 86 243q114 134 316 134q31 0 66 -3.5t98.5 -25t109.5 -58.5q49 -40 85 -100l-66 -38q-43 83 -123 122t-176 39
q-144 0 -233.5 -88.5t-89.5 -222.5q0 -119 68 -200q93 -110 267 -110q118 0 211.5 72.5t97.5 193.5h-375zM407 -40h71v-65q0 -74 -71 -80v29q33 8 33 45h-33v71z" />
    <glyph glyph-name="gcommaaccent" unicode="&#x123;" horiz-adv-x="688" 
d="M367 555h-71v65q0 74 71 80v-29q-33 -8 -33 -45h33v-71zM553 494h64v-456q0 -62 -13 -102q-32 -103 -172 -128q-48 -8 -96 -8q-123 0 -188 40q-63 39 -73 124h69q2 -17 5 -27.5t16.5 -27t37.5 -27.5q51 -23 130 -23q59 0 111 13q57 14 83 48t26 115v43q-69 -92 -226 -92
q-75 0 -132 24q-25 11 -48 26.5t-49 43t-42 71.5t-16 99q0 95 58 162q85 97 238 97q69 0 128 -24t91 -63q-2 55 -2 72zM555 250q0 109 -60 156q-60 48 -154 48q-98 0 -163.5 -54.5t-65.5 -150.5q0 -46 19 -89q18 -38 47.5 -63.5t62.5 -35.5t53.5 -13t40.5 -3q111 0 171 61
q49 49 49 144z" />
    <glyph glyph-name="Hcircumflex" unicode="&#x124;" horiz-adv-x="896" 
d="M812 0h-67v345h-593v-345h-69v706h69v-302h593v302h67v-706zM598 774h-64l-85 77l-89 -77h-63l114 126h79z" />
    <glyph glyph-name="hcircumflex" unicode="&#x125;" 
d="M634 0h-65v260q0 100 -50 142q-52 45 -165 45q-105 0 -167 -54q-31 -27 -41 -53t-10 -67v-273h-66v706h66v-292q23 40 86 66.5t149 26.5q73 0 142 -24.5t99 -88.5q22 -45 22 -124v-270zM252 774h-64l-85 77l-89 -77h-63l114 126h79z" />
    <glyph glyph-name="Hbar" unicode="&#x126;" horiz-adv-x="896" 
d="M12 515v59h71v132h69v-132h593v132h67v-132h70v-59h-70v-515h-67v345h-593v-345h-69v515h-71zM152 404h593v111h-593v-111z" />
    <glyph glyph-name="hbar" unicode="&#x127;" 
d="M0 606h70v100h66v-100h261v-50h-261v-142q23 40 86 66.5t149 26.5q73 0 142 -24.5t99 -88.5q22 -45 22 -124v-270h-65v260q0 100 -50 142q-52 45 -165 45q-105 0 -167 -54q-31 -27 -41 -53t-10 -67v-273h-66v556h-70v50z" />
    <glyph glyph-name="Itilde" unicode="&#x128;" horiz-adv-x="229" 
d="M149 0h-67v706h67v-706zM265 889l30 -13q-18 -42 -39.5 -66t-59.5 -24q-27 0 -88 25t-86 25q-13 0 -24 -8t-17.5 -16.5t-17.5 -25.5l-29 17q42 86 104 86q34 0 91.5 -24.5t78.5 -24.5q31 0 57 49z" />
    <glyph glyph-name="itilde" unicode="&#x129;" horiz-adv-x="208" 
d="M137 0h-66v494h66v-494zM249 670l29 -14q-17 -42 -38 -65.5t-57 -23.5q-25 0 -83.5 25t-82.5 25q-30 0 -57 -50l-28 15q41 88 100 88q33 0 87.5 -24.5t74.5 -24.5q30 0 55 49z" />
    <glyph glyph-name="uni012A" unicode="&#x12a;" horiz-adv-x="229" 
d="M149 0h-67v706h67v-706zM239 809h-249v52h249v-52z" />
    <glyph glyph-name="imacron" unicode="&#x12b;" horiz-adv-x="208" 
d="M137 0h-66v494h66v-494zM217 569h-226v52h226v-52z" />
    <glyph glyph-name="Ibreve" unicode="&#x12c;" horiz-adv-x="229" 
d="M149 0h-67v706h67v-706zM261 897q-8 -64 -50 -91t-98 -27q-21 0 -40 4t-42.5 14.5t-40.5 36t-22 63.5h50q12 -72 93 -72q91 0 101 72h49z" />
    <glyph glyph-name="uni012D" unicode="&#x12d;" horiz-adv-x="208" 
d="M137 0h-66v494h66v-494zM195 682h49q-7 -63 -46.5 -93.5t-93.5 -30.5q-18 0 -36 4t-41.5 15.5t-40 38.5t-21.5 66h50q4 -29 24 -53.5t63 -24.5q16 0 32 3.5t36 22.5t25 52z" />
    <glyph glyph-name="Iogonek" unicode="&#x12e;" horiz-adv-x="229" 
d="M82 0v706h67v-706q-79 -30 -79 -77q0 -23 18 -39t53 -16q13 0 53 4v-50q-48 -6 -67 -6q-58 0 -88 22.5t-30 61.5q0 61 82 100h-9z" />
    <glyph glyph-name="iogonek" unicode="&#x12f;" horiz-adv-x="208" 
d="M137 494v-494q-43 -17 -61 -35t-18 -42q0 -23 18 -39t53 -16q13 0 53 4v-50q-48 -6 -67 -6q-58 0 -88 22.5t-30 61.5q0 25 20 53t63 47h-9v494h66zM137 582h-66v96h66v-96z" />
    <glyph glyph-name="Idotaccent" unicode="&#x130;" horiz-adv-x="229" 
d="M149 0h-67v706h67v-706zM147 798h-65v94h65v-94z" />
    <glyph glyph-name="dotlessi" unicode="&#x131;" horiz-adv-x="208" 
d="M137 0h-66v494h66v-494z" />
    <glyph glyph-name="IJ" unicode="&#x132;" horiz-adv-x="854" 
d="M149 0h-67v706h67v-706zM721 706h66v-436q0 -91 -26 -155.5t-97 -100.5q-64 -32 -146 -32q-104 0 -176 47q-69 44 -107 144l70 26q13 -52 43 -86.5t68.5 -47.5t61.5 -16.5t45 -3.5q108 0 155 62q43 56 43 209v390z" />
    <glyph glyph-name="ij" unicode="&#x133;" horiz-adv-x="416" 
d="M137 582h-66v96h66v-96zM137 0h-66v494h66v-494zM344 580h-64v97h64v-97zM280 494h64v-548q0 -21 -1 -34.5t-8 -35t-20 -34t-39.5 -22.5t-63.5 -10q-45 0 -93 12v60q42 -13 78 -13q27 0 44.5 6.5t25.5 18.5t10.5 23.5t2.5 27.5v549z" />
    <glyph glyph-name="Jcircumflex" unicode="&#x134;" horiz-adv-x="625" 
d="M492 706h66v-436q0 -91 -26 -155.5t-97 -100.5q-64 -32 -146 -32q-104 0 -176 47q-69 44 -107 144l70 26q13 -52 43 -86.5t68.5 -47.5t61.5 -16.5t45 -3.5q108 0 155 62q43 56 43 209v390zM676 774h-64l-85 77l-89 -77h-63l114 126h79z" />
    <glyph glyph-name="jcircumflex" unicode="&#x135;" horiz-adv-x="208" 
d="M72 494h64v-548q0 -21 -1 -34.5t-8 -35t-20 -34t-39.5 -22.5t-63.5 -10q-45 0 -93 12v60q42 -13 78 -13q27 0 44.5 6.5t25.5 18.5t10.5 23.5t2.5 27.5v549zM240 549h-51l-82 85l-83 -85h-55l108 132h59z" />
    <glyph glyph-name="Kcommaaccent" unicode="&#x136;" horiz-adv-x="792" 
d="M788 0h-89l-315 391l-234 -190v-201h-67v706h67v-429l528 429h93l-334 -272zM383 -40h71v-65q0 -74 -71 -80v29q33 8 33 45h-33v71z" />
    <glyph glyph-name="kcommaaccent" unicode="&#x137;" horiz-adv-x="667" 
d="M671 0h-98l-271 262l-165 -127v-135h-65v706h65v-493l370 281h100l-250 -191zM317 -40h71v-65q0 -74 -71 -80v29q33 8 33 45h-33v71z" />
    <glyph glyph-name="kgreenlandic" unicode="&#x138;" horiz-adv-x="667" 
d="M671 0h-98l-271 262l-165 -127v-135h-65v494h65v-281l370 281h100l-250 -191z" />
    <glyph glyph-name="Lacute" unicode="&#x139;" horiz-adv-x="688" 
d="M667 0h-584v706h70v-647h514v-59zM300 900l-150 -126h-45l84 126h111z" />
    <glyph glyph-name="lacute" unicode="&#x13a;" horiz-adv-x="208" 
d="M138 0h-66v706h66v-706zM264 900l-150 -126h-45l84 126h111z" />
    <glyph glyph-name="Lcommaaccent" unicode="&#x13b;" horiz-adv-x="688" 
d="M667 0h-584v706h70v-647h514v-59zM340 -40h71v-65q0 -74 -71 -80v29q33 8 33 45h-33v71z" />
    <glyph glyph-name="lcommaaccent" unicode="&#x13c;" horiz-adv-x="208" 
d="M138 0h-66v706h66v-706zM69 -40h71v-65q0 -74 -71 -80v29q33 8 33 45h-33v71z" />
    <glyph glyph-name="Lcaron" unicode="&#x13d;" horiz-adv-x="688" 
d="M667 0h-584v706h70v-647h514v-59zM190 706h74v-100q0 -77 -74 -83v32q37 6 37 49v19h-37v83z" />
    <glyph glyph-name="lcaron" unicode="&#x13e;" horiz-adv-x="208" 
d="M138 0h-66v706h66v-706zM175 706h74v-100q0 -77 -74 -83v32q37 6 37 49v19h-37v83z" />
    <glyph glyph-name="Ldot" unicode="&#x13f;" horiz-adv-x="688" 
d="M667 0h-584v706h70v-647h514v-59zM467 324h-78v94h78v-94z" />
    <glyph glyph-name="ldot" unicode="&#x140;" horiz-adv-x="247" 
d="M138 0h-66v706h66v-706zM264 321h-70v94h70v-94z" />
    <glyph glyph-name="Lslash" unicode="&#x141;" horiz-adv-x="688" 
d="M667 0h-584v227l-83 -47v60l83 47v419h70v-380l364 204v-60l-364 -204v-207h514v-59z" />
    <glyph glyph-name="lslash" unicode="&#x142;" horiz-adv-x="208" 
d="M208 435l-70 -54v-381h-66v330l-72 -55v64l72 55v312h66v-261l70 54v-64z" />
    <glyph glyph-name="Nacute" unicode="&#x143;" horiz-adv-x="896" 
d="M814 0h-63l-605 616v-616h-63v706h63l605 -619v619h63v-706zM602 900l-150 -126h-45l84 126h111z" />
    <glyph glyph-name="nacute" unicode="&#x144;" 
d="M638 0h-66v287q0 158 -212 158q-106 0 -164.5 -44.5t-58.5 -104.5v-296h-66v494h67v-69q9 10 21.5 20.5t39.5 26.5t71.5 26t98.5 10q52 0 100 -11q112 -27 149 -106q20 -43 20 -118v-273zM499 700l-144 -145h-43l78 145h109z" />
    <glyph glyph-name="Ncommaaccent" unicode="&#x145;" horiz-adv-x="896" 
d="M814 0h-63l-605 616v-616h-63v706h63l605 -619v619h63v-706zM412 -40h71v-65q0 -74 -71 -80v29q33 8 33 45h-33v71z" />
    <glyph glyph-name="ncommaaccent" unicode="&#x146;" 
d="M638 0h-66v287q0 158 -212 158q-106 0 -164.5 -44.5t-58.5 -104.5v-296h-66v494h67v-69q9 10 21.5 20.5t39.5 26.5t71.5 26t98.5 10q52 0 100 -11q112 -27 149 -106q20 -43 20 -118v-273zM319 -40h71v-65q0 -74 -71 -80v29q33 8 33 45h-33v71z" />
    <glyph glyph-name="Ncaron" unicode="&#x147;" horiz-adv-x="896" 
d="M814 0h-63l-605 616v-616h-63v706h63l605 -619v619h63v-706zM602 900l-115 -126h-81l-107 126h65l85 -76l88 76h65z" />
    <glyph glyph-name="ncaron" unicode="&#x148;" 
d="M638 0h-66v287q0 158 -212 158q-106 0 -164.5 -44.5t-58.5 -104.5v-296h-66v494h67v-69q9 10 21.5 20.5t39.5 26.5t71.5 26t98.5 10q52 0 100 -11q112 -27 149 -106q20 -43 20 -118v-273zM486 681l-107 -132h-61l-103 132h53l81 -85l83 85h54z" />
    <glyph glyph-name="napostrophe" unicode="&#x149;" 
d="M638 0h-66v287q0 158 -212 158q-106 0 -164.5 -44.5t-58.5 -104.5v-296h-66v494h67v-69q9 10 21.5 20.5t39.5 26.5t71.5 26t98.5 10q52 0 100 -11q112 -27 149 -106q20 -43 20 -118v-273zM21 706h74v-100q0 -77 -74 -83v32q37 6 37 49v19h-37v83z" />
    <glyph glyph-name="Eng" unicode="&#x14a;" horiz-adv-x="896" 
d="M814 706v-748q0 -70 -26.5 -106t-97.5 -36q-43 0 -75 8v64q29 -9 68 -9q41 0 54 18t13 60v44l-604 615v-616h-63v706h63l605 -619v619h63z" />
    <glyph glyph-name="eng" unicode="&#x14b;" 
d="M137 0h-66v494h67v-69q9 10 21.5 20.5t39.5 26.5t71.5 26t98.5 10q52 0 100 -11q112 -27 149 -106q20 -43 20 -118v-304q0 -61 -22 -92q-31 -42 -101 -42q-39 0 -70 9v60q25 -10 61 -10q35 0 53 21q13 15 13 61v311q0 158 -212 158q-106 0 -164.5 -44.5t-58.5 -104.5
v-296z" />
    <glyph glyph-name="Omacron" unicode="&#x14c;" horiz-adv-x="917" 
d="M42 354q0 89 35 162t94.5 118.5t133 69.5t153.5 24q26 0 51 -2t70.5 -12t84 -27.5t82 -52.5t73.5 -83q57 -91 57 -196q0 -131 -81 -229q-40 -48 -91.5 -80t-102.5 -44.5t-83 -16.5t-62 -4q-25 0 -51 2t-73.5 13t-87.5 30t-83.5 57t-72.5 89q-46 82 -46 182zM799 369
q0 125 -92 211.5t-250 86.5q-131 0 -219 -65q-45 -33 -83.5 -95.5t-38.5 -155.5q0 -64 23 -121q20 -51 56.5 -88.5t72 -56t78.5 -29.5t67.5 -13t46.5 -2q89 0 156.5 28.5t106 76t57.5 104t19 119.5zM626 809h-335v52h335v-52z" />
    <glyph glyph-name="omacron" unicode="&#x14d;" 
d="M43 247q0 49 15.5 90t40.5 68.5t46 43t43 26.5q70 35 172 35q131 0 212 -67q53 -44 72.5 -100t19.5 -100q0 -75 -41 -134q-34 -49 -101 -86t-170 -37q-42 0 -78 7q-126 23 -188 113q-43 63 -43 141zM590 247q0 97 -68 153t-167 56q-87 0 -151 -42q-86 -57 -86 -168
q0 -72 40 -124q32 -41 84 -60.5t109 -19.5q127 0 193 75q46 53 46 130zM521 569h-335v52h335v-52z" />
    <glyph glyph-name="Obreve" unicode="&#x14e;" horiz-adv-x="917" 
d="M42 354q0 89 35 162t94.5 118.5t133 69.5t153.5 24q26 0 51 -2t70.5 -12t84 -27.5t82 -52.5t73.5 -83q57 -91 57 -196q0 -131 -81 -229q-40 -48 -91.5 -80t-102.5 -44.5t-83 -16.5t-62 -4q-25 0 -51 2t-73.5 13t-87.5 30t-83.5 57t-72.5 89q-46 82 -46 182zM799 369
q0 125 -92 211.5t-250 86.5q-131 0 -219 -65q-45 -33 -83.5 -95.5t-38.5 -155.5q0 -64 23 -121q20 -51 56.5 -88.5t72 -56t78.5 -29.5t67.5 -13t46.5 -2q89 0 156.5 28.5t106 76t57.5 104t19 119.5zM605 897q-8 -64 -50 -91t-98 -27q-21 0 -40 4t-42.5 14.5t-40.5 36
t-22 63.5h50q12 -72 93 -72q91 0 101 72h49z" />
    <glyph glyph-name="obreve" unicode="&#x14f;" 
d="M43 247q0 49 15.5 90t40.5 68.5t46 43t43 26.5q70 35 172 35q131 0 212 -67q53 -44 72.5 -100t19.5 -100q0 -75 -41 -134q-34 -49 -101 -86t-170 -37q-42 0 -78 7q-126 23 -188 113q-43 63 -43 141zM590 247q0 97 -68 153t-167 56q-87 0 -151 -42q-86 -57 -86 -168
q0 -72 40 -124q32 -41 84 -60.5t109 -19.5q127 0 193 75q46 53 46 130zM444 682h49q-7 -63 -46.5 -93.5t-93.5 -30.5q-18 0 -36 4t-41.5 15.5t-40 38.5t-21.5 66h50q4 -29 24 -53.5t63 -24.5q16 0 32 3.5t36 22.5t25 52z" />
    <glyph glyph-name="Ohungarumlaut" unicode="&#x150;" horiz-adv-x="917" 
d="M42 354q0 89 35 162t94.5 118.5t133 69.5t153.5 24q26 0 51 -2t70.5 -12t84 -27.5t82 -52.5t73.5 -83q57 -91 57 -196q0 -131 -81 -229q-40 -48 -91.5 -80t-102.5 -44.5t-83 -16.5t-62 -4q-25 0 -51 2t-73.5 13t-87.5 30t-83.5 57t-72.5 89q-46 82 -46 182zM799 369
q0 125 -92 211.5t-250 86.5q-131 0 -219 -65q-45 -33 -83.5 -95.5t-38.5 -155.5q0 -64 23 -121q20 -51 56.5 -88.5t72 -56t78.5 -29.5t67.5 -13t46.5 -2q89 0 156.5 28.5t106 76t57.5 104t19 119.5zM538 900l-146 -126h-39l83 126h102zM690 900l-146 -126h-39l83 126h102z
" />
    <glyph glyph-name="ohungarumlaut" unicode="&#x151;" 
d="M43 247q0 49 15.5 90t40.5 68.5t46 43t43 26.5q70 35 172 35q131 0 212 -67q53 -44 72.5 -100t19.5 -100q0 -75 -41 -134q-34 -49 -101 -86t-170 -37q-42 0 -78 7q-126 23 -188 113q-43 63 -43 141zM590 247q0 97 -68 153t-167 56q-87 0 -151 -42q-86 -57 -86 -168
q0 -72 40 -124q32 -41 84 -60.5t109 -19.5q127 0 193 75q46 53 46 130zM429 700l-137 -145h-41l81 145h97zM570 700l-137 -145h-41l81 145h97z" />
    <glyph glyph-name="OE" unicode="&#x152;" horiz-adv-x="1146" 
d="M1111 0h-515v23q-3 -1 -16 -7t-20 -9t-23.5 -8t-31.5 -8t-37.5 -5t-48.5 -2q-162 0 -267 100q-58 56 -85.5 128.5t-27.5 143.5q0 118 64 211q17 25 40.5 48t61 49t91.5 41.5t116 15.5q54 0 91.5 -9t92.5 -32v26h500v-58h-431v-252h401v-59h-401v-278h446v-59zM596 83v534
q-1 0 -12 6t-19 9.5t-25.5 9.5t-33.5 10t-40 7t-48 3q-117 0 -199 -70q-43 -37 -68.5 -89.5t-31 -86t-5.5 -61.5q0 -59 23.5 -122t73.5 -109q86 -79 222 -79q75 0 163 38z" />
    <glyph glyph-name="oe" unicode="&#x153;" horiz-adv-x="1188" 
d="M1093 173l53 -38q-35 -57 -108.5 -102t-173.5 -45q-24 0 -54.5 5.5t-71 18.5t-78 43.5t-59.5 72.5q-35 -58 -102 -98.5t-164 -40.5q-22 0 -47 3.5t-65 14t-79 37.5t-65 68q-39 60 -39 136q0 113 77 183q87 80 224 80q142 0 219 -85q17 -18 36 -48q36 66 103.5 99
t148.5 33q60 0 110 -16t81 -42.5t49 -49t29 -45.5q18 -36 29 -116h-511q8 -94 75 -144.5t161 -50.5q76 0 135 36t87 91zM636 296h430q-2 11 -7 25.5t-21 40t-38.5 45t-63.5 34t-92 14.5q-22 0 -44.5 -4t-58.5 -17.5t-64.5 -49t-40.5 -88.5zM559 248q0 93 -64 150t-157 57
q-94 0 -158.5 -57t-64.5 -150q0 -91 59 -146q62 -57 163 -57q48 0 91 16q19 7 38 19t42 33.5t37 56.5t14 78z" />
    <glyph glyph-name="Racute" unicode="&#x154;" horiz-adv-x="875" 
d="M848 0h-95l-279 315h-323v-315h-68v706h520q127 0 181 -82q31 -47 31 -112q0 -98 -72 -152q-25 -18 -58.5 -28t-56 -12.5t-64.5 -4.5zM151 375h381q28 0 44.5 0.5t43 4.5t43.5 11t34.5 21.5t27.5 35.5q16 32 16 68q0 13 -2.5 29t-16 40.5t-35.5 39.5q-35 23 -114 23h-422
v-273zM546 900l-150 -126h-45l84 126h111z" />
    <glyph glyph-name="racute" unicode="&#x155;" horiz-adv-x="396" 
d="M71 494h66v-80q34 52 94.5 74t120.5 22l32 -1v-69q-34 4 -52 4q-54 0 -94 -17.5t-60 -39.5q-41 -45 -41 -121v-266h-66v494zM316 700l-144 -145h-43l78 145h109z" />
    <glyph glyph-name="Rcommaaccent" unicode="&#x156;" horiz-adv-x="875" 
d="M848 0h-95l-279 315h-323v-315h-68v706h520q127 0 181 -82q31 -47 31 -112q0 -98 -72 -152q-25 -18 -58.5 -28t-56 -12.5t-64.5 -4.5zM151 375h381q28 0 44.5 0.5t43 4.5t43.5 11t34.5 21.5t27.5 35.5q16 32 16 68q0 13 -2.5 29t-16 40.5t-35.5 39.5q-35 23 -114 23h-422
v-273zM402 -40h71v-65q0 -74 -71 -80v29q33 8 33 45h-33v71z" />
    <glyph glyph-name="rcommaaccent" unicode="&#x157;" horiz-adv-x="396" 
d="M71 494h66v-80q34 52 94.5 74t120.5 22l32 -1v-69q-34 4 -52 4q-54 0 -94 -17.5t-60 -39.5q-41 -45 -41 -121v-266h-66v494zM68 -40h71v-65q0 -74 -71 -80v29q33 8 33 45h-33v71z" />
    <glyph glyph-name="Rcaron" unicode="&#x158;" horiz-adv-x="875" 
d="M848 0h-95l-279 315h-323v-315h-68v706h520q127 0 181 -82q31 -47 31 -112q0 -98 -72 -152q-25 -18 -58.5 -28t-56 -12.5t-64.5 -4.5zM151 375h381q28 0 44.5 0.5t43 4.5t43.5 11t34.5 21.5t27.5 35.5q16 32 16 68q0 13 -2.5 29t-16 40.5t-35.5 39.5q-35 23 -114 23h-422
v-273zM558 900l-115 -126h-81l-107 126h65l85 -76l88 76h65z" />
    <glyph glyph-name="rcaron" unicode="&#x159;" horiz-adv-x="396" 
d="M71 494h66v-80q34 52 94.5 74t120.5 22l32 -1v-69q-34 4 -52 4q-54 0 -94 -17.5t-60 -39.5q-41 -45 -41 -121v-266h-66v494zM341 681l-107 -132h-61l-103 132h53l81 -85l83 85h54z" />
    <glyph glyph-name="Sacute" unicode="&#x15a;" horiz-adv-x="812" 
d="M32 177l74 28q8 -21 14 -34t29 -40t53 -43.5t85.5 -30t126.5 -13.5q73 0 134.5 17.5t102 55t40.5 89.5q0 21 -7 37.5t-16.5 28t-30 21t-35.5 15t-45.5 11.5t-48 8.5t-54.5 7.5l-154 21q-90 13 -129 33q-84 42 -84 131t85.5 147t239.5 58q30 0 60 -3.5t81.5 -15t102 -42.5
t87.5 -78l-64 -34q-80 112 -272 112q-100 0 -174 -35.5t-74 -105.5q0 -49 55 -76q31 -15 131 -28q25 -4 71 -10t66 -9t53 -8.5t50.5 -9.5t38 -9.5t35.5 -12.5q49 -21 77 -60t28 -90q0 -58 -33 -105q-87 -123 -334 -123q-25 0 -55.5 3t-77.5 12.5t-93.5 32.5t-78.5 57
q-27 28 -60 90zM535 900l-150 -126h-45l84 126h111z" />
    <glyph glyph-name="sacute" unicode="&#x15b;" horiz-adv-x="625" 
d="M577 392l-73 -15q-13 22 -21 29q-27 23 -80 33.5t-102 10.5q-27 0 -53 -3t-57.5 -11.5t-51 -28.5t-19.5 -48q0 -19 13 -35.5t33 -21.5q18 -5 96 -10q18 -1 57.5 -3t54 -3t42.5 -3.5t42 -5t31 -7.5t29 -11q70 -35 70 -111q0 -16 -4 -33t-20.5 -41t-42.5 -42t-76.5 -31
t-116.5 -13q-254 0 -298 134l72 16q16 -42 71 -66q60 -24 153 -24q84 0 139.5 25.5t55.5 73.5q0 62 -136 71q-35 2 -82.5 4t-72.5 3.5t-52.5 5t-45.5 10.5q-11 4 -22 11t-25.5 19.5t-23.5 34t-9 47.5q0 56 36 92t90 49.5t127 13.5q223 0 272 -116zM456 700l-144 -145h-43
l78 145h109z" />
    <glyph glyph-name="Scircumflex" unicode="&#x15c;" horiz-adv-x="812" 
d="M32 177l74 28q8 -21 14 -34t29 -40t53 -43.5t85.5 -30t126.5 -13.5q73 0 134.5 17.5t102 55t40.5 89.5q0 21 -7 37.5t-16.5 28t-30 21t-35.5 15t-45.5 11.5t-48 8.5t-54.5 7.5l-154 21q-90 13 -129 33q-84 42 -84 131t85.5 147t239.5 58q30 0 60 -3.5t81.5 -15t102 -42.5
t87.5 -78l-64 -34q-80 112 -272 112q-100 0 -174 -35.5t-74 -105.5q0 -49 55 -76q31 -15 131 -28q25 -4 71 -10t66 -9t53 -8.5t50.5 -9.5t38 -9.5t35.5 -12.5q49 -21 77 -60t28 -90q0 -58 -33 -105q-87 -123 -334 -123q-25 0 -55.5 3t-77.5 12.5t-93.5 32.5t-78.5 57
q-27 28 -60 90zM564 774h-64l-85 77l-89 -77h-63l114 126h79z" />
    <glyph glyph-name="scircumflex" unicode="&#x15d;" horiz-adv-x="625" 
d="M577 392l-73 -15q-13 22 -21 29q-27 23 -80 33.5t-102 10.5q-27 0 -53 -3t-57.5 -11.5t-51 -28.5t-19.5 -48q0 -19 13 -35.5t33 -21.5q18 -5 96 -10q18 -1 57.5 -3t54 -3t42.5 -3.5t42 -5t31 -7.5t29 -11q70 -35 70 -111q0 -16 -4 -33t-20.5 -41t-42.5 -42t-76.5 -31
t-116.5 -13q-254 0 -298 134l72 16q16 -42 71 -66q60 -24 153 -24q84 0 139.5 25.5t55.5 73.5q0 62 -136 71q-35 2 -82.5 4t-72.5 3.5t-52.5 5t-45.5 10.5q-11 4 -22 11t-25.5 19.5t-23.5 34t-9 47.5q0 56 36 92t90 49.5t127 13.5q223 0 272 -116zM455 549h-51l-82 85
l-83 -85h-55l108 132h59z" />
    <glyph glyph-name="Scedilla" unicode="&#x15e;" horiz-adv-x="812" 
d="M32 177l74 28q8 -21 14 -34t29 -40t53 -43.5t85.5 -30t126.5 -13.5q73 0 134.5 17.5t102 55t40.5 89.5q0 21 -7 37.5t-16.5 28t-30 21t-35.5 15t-45.5 11.5t-48 8.5t-54.5 7.5l-154 21q-90 13 -129 33q-84 42 -84 131t85.5 147t239.5 58q30 0 60 -3.5t81.5 -15t102 -42.5
t87.5 -78l-64 -34q-80 112 -272 112q-100 0 -174 -35.5t-74 -105.5q0 -49 55 -76q31 -15 131 -28q25 -4 71 -10t66 -9t53 -8.5t50.5 -9.5t38 -9.5t35.5 -12.5q49 -21 77 -60t28 -90q0 -58 -33 -105q-82 -118 -314 -123v-42q37 0 66.5 -16.5t29.5 -53.5q0 -33 -29 -54
t-88 -21q-30 0 -80 6v33q44 -4 65 -4q69 0 69 35q0 38 -73 38h-5v80q-192 9 -280 104q-27 28 -60 90z" />
    <glyph glyph-name="scedilla" unicode="&#x15f;" horiz-adv-x="625" 
d="M577 392l-73 -15q-13 22 -21 29q-27 23 -80 33.5t-102 10.5q-27 0 -53 -3t-57.5 -11.5t-51 -28.5t-19.5 -48q0 -19 13 -35.5t33 -21.5q18 -5 96 -10q18 -1 57.5 -3t54 -3t42.5 -3.5t42 -5t31 -7.5t29 -11q70 -35 70 -111q0 -16 -4 -33t-20.5 -41t-43 -42t-77 -31
t-117.5 -13v-48q37 0 66.5 -16.5t29.5 -53.5q0 -33 -29 -54t-88 -21q-30 0 -80 6v33q44 -4 65 -4q69 0 69 35q0 38 -73 38h-5v87q-212 11 -251 132l72 16q16 -42 71 -66q60 -24 153 -24q84 0 139.5 25.5t55.5 73.5q0 62 -136 71q-35 2 -82.5 4t-72.5 3.5t-52.5 5t-45.5 10.5
q-11 4 -22 11t-25.5 19.5t-23.5 34t-9 47.5q0 56 36 92t90 49.5t127 13.5q223 0 272 -116z" />
    <glyph glyph-name="Scaron" unicode="&#x160;" horiz-adv-x="812" 
d="M32 177l74 28q8 -21 14 -34t29 -40t53 -43.5t85.5 -30t126.5 -13.5q73 0 134.5 17.5t102 55t40.5 89.5q0 21 -7 37.5t-16.5 28t-30 21t-35.5 15t-45.5 11.5t-48 8.5t-54.5 7.5l-154 21q-90 13 -129 33q-84 42 -84 131t85.5 147t239.5 58q30 0 60 -3.5t81.5 -15t102 -42.5
t87.5 -78l-64 -34q-80 112 -272 112q-100 0 -174 -35.5t-74 -105.5q0 -49 55 -76q31 -15 131 -28q25 -4 71 -10t66 -9t53 -8.5t50.5 -9.5t38 -9.5t35.5 -12.5q49 -21 77 -60t28 -90q0 -58 -33 -105q-87 -123 -334 -123q-25 0 -55.5 3t-77.5 12.5t-93.5 32.5t-78.5 57
q-27 28 -60 90zM560 900l-115 -126h-81l-107 126h65l85 -76l88 76h65z" />
    <glyph glyph-name="scaron" unicode="&#x161;" horiz-adv-x="625" 
d="M577 392l-73 -15q-13 22 -21 29q-27 23 -80 33.5t-102 10.5q-27 0 -53 -3t-57.5 -11.5t-51 -28.5t-19.5 -48q0 -19 13 -35.5t33 -21.5q18 -5 96 -10q18 -1 57.5 -3t54 -3t42.5 -3.5t42 -5t31 -7.5t29 -11q70 -35 70 -111q0 -16 -4 -33t-20.5 -41t-42.5 -42t-76.5 -31
t-116.5 -13q-254 0 -298 134l72 16q16 -42 71 -66q60 -24 153 -24q84 0 139.5 25.5t55.5 73.5q0 62 -136 71q-35 2 -82.5 4t-72.5 3.5t-52.5 5t-45.5 10.5q-11 4 -22 11t-25.5 19.5t-23.5 34t-9 47.5q0 56 36 92t90 49.5t127 13.5q223 0 272 -116zM452 681l-107 -132h-61
l-103 132h53l81 -85l83 85h54z" />
    <glyph glyph-name="Tcommaaccent" unicode="&#x162;" horiz-adv-x="688" 
d="M686 648h-303v-648h-67v648h-317v58h687v-58zM314 -40h71v-65q0 -74 -71 -80v29q33 8 33 45h-33v71z" />
    <glyph glyph-name="tcommaaccent" unicode="&#x163;" horiz-adv-x="313" 
d="M309 494v-51h-140v-235q0 -36 1 -57t6.5 -44t15.5 -34t28 -18.5t45 -7.5q2 0 44 3v-54q-45 -7 -66 -7q-84 0 -117 53q-15 23 -19 55.5t-4 98.5v247h-94v51h94v169l66 31v-200h140zM157 -40h71v-65q0 -74 -71 -80v29q33 8 33 45h-33v71z" />
    <glyph glyph-name="Tcaron" unicode="&#x164;" horiz-adv-x="688" 
d="M686 648h-303v-648h-67v648h-317v58h687v-58zM502 900l-115 -126h-81l-107 126h65l85 -76l88 76h65z" />
    <glyph glyph-name="tcaron" unicode="&#x165;" horiz-adv-x="313" 
d="M309 494v-51h-140v-235q0 -36 1 -57t6.5 -44t15.5 -34t28 -18.5t45 -7.5q2 0 44 3v-54q-45 -7 -66 -7q-84 0 -117 53q-15 23 -19 55.5t-4 98.5v247h-94v51h94v169l66 31v-200h140zM206 706h74v-100q0 -77 -74 -83v32q37 6 37 49v19h-37v83z" />
    <glyph glyph-name="Tbar" unicode="&#x166;" horiz-adv-x="688" 
d="M109 435v59h207v154h-317v58h687v-58h-303v-154h207v-59h-207v-435h-67v435h-207z" />
    <glyph glyph-name="tbar" unicode="&#x167;" horiz-adv-x="313" 
d="M295 303h-126v-95q0 -36 1 -57t6.5 -44t15.5 -34t28 -18.5t45 -7.5q2 0 44 3v-54q-45 -7 -66 -7q-84 0 -117 53q-15 23 -19 55.5t-4 98.5v107h-90v51h90v89h-94v51h94v169l66 31v-200h140v-51h-140v-89h126v-51z" />
    <glyph glyph-name="Utilde" unicode="&#x168;" horiz-adv-x="875" 
d="M79 706h65v-405q0 -55 7 -93.5t31 -72.5q65 -89 239 -89q118 0 182.5 24.5t96.5 79.5q18 31 24 70.5t6 112.5v373h64v-426q0 -104 -42 -171q-53 -87 -177 -114q-60 -13 -131 -13q-101 0 -174 21q-131 37 -173 152q-18 49 -18 143v408zM587 889l30 -13q-18 -42 -39.5 -66
t-59.5 -24q-27 0 -88 25t-86 25q-13 0 -24 -8t-17.5 -16.5t-17.5 -25.5l-29 17q42 86 104 86q34 0 91.5 -24.5t78.5 -24.5q31 0 57 49z" />
    <glyph glyph-name="utilde" unicode="&#x169;" 
d="M637 0h-65v71q-94 -84 -244 -84q-189 0 -238 113q-19 42 -19 118v276h66v-289q0 -29 5.5 -51.5t23 -49t59 -41.5t104.5 -15q64 0 130 19.5t95 62.5q18 27 18 70v294h65v-494zM498 670l29 -14q-17 -42 -38 -65.5t-57 -23.5q-25 0 -83.5 25t-82.5 25q-30 0 -57 -50l-28 15
q41 88 100 88q33 0 87.5 -24.5t74.5 -24.5q31 0 55 49z" />
    <glyph glyph-name="Umacron" unicode="&#x16a;" horiz-adv-x="875" 
d="M79 706h65v-405q0 -55 7 -93.5t31 -72.5q65 -89 239 -89q118 0 182.5 24.5t96.5 79.5q18 31 24 70.5t6 112.5v373h64v-426q0 -104 -42 -171q-53 -87 -177 -114q-60 -13 -131 -13q-101 0 -174 21q-131 37 -173 152q-18 49 -18 143v408zM605 809h-335v52h335v-52z" />
    <glyph glyph-name="umacron" unicode="&#x16b;" 
d="M637 0h-65v71q-94 -84 -244 -84q-189 0 -238 113q-19 42 -19 118v276h66v-289q0 -29 5.5 -51.5t23 -49t59 -41.5t104.5 -15q64 0 130 19.5t95 62.5q18 27 18 70v294h65v-494zM523 569h-335v52h335v-52z" />
    <glyph glyph-name="Ubreve" unicode="&#x16c;" horiz-adv-x="875" 
d="M79 706h65v-405q0 -55 7 -93.5t31 -72.5q65 -89 239 -89q118 0 182.5 24.5t96.5 79.5q18 31 24 70.5t6 112.5v373h64v-426q0 -104 -42 -171q-53 -87 -177 -114q-60 -13 -131 -13q-101 0 -174 21q-131 37 -173 152q-18 49 -18 143v408zM584 897q-8 -64 -50 -91t-98 -27
q-21 0 -40 4t-42.5 14.5t-40.5 36t-22 63.5h50q12 -72 93 -72q91 0 101 72h49z" />
    <glyph glyph-name="ubreve" unicode="&#x16d;" 
d="M637 0h-65v71q-94 -84 -244 -84q-189 0 -238 113q-19 42 -19 118v276h66v-289q0 -29 5.5 -51.5t23 -49t59 -41.5t104.5 -15q64 0 130 19.5t95 62.5q18 27 18 70v294h65v-494zM444 682h49q-7 -63 -46.5 -93.5t-93.5 -30.5q-18 0 -36 4t-41.5 15.5t-40 38.5t-21.5 66h50
q4 -29 24 -53.5t63 -24.5q16 0 32 3.5t36 22.5t25 52z" />
    <glyph glyph-name="Uring" unicode="&#x16e;" horiz-adv-x="875" 
d="M79 706h65v-405q0 -55 7 -93.5t31 -72.5q65 -89 239 -89q118 0 182.5 24.5t96.5 79.5q18 31 24 70.5t6 112.5v373h64v-426q0 -104 -42 -171q-53 -87 -177 -114q-60 -13 -131 -13q-101 0 -174 21q-131 37 -173 152q-18 49 -18 143v408zM550 831q0 -44 -34.5 -66.5
t-77.5 -22.5q-63 0 -89 27t-26 58q0 45 38 65.5t82 20.5q53 0 80 -25t27 -57zM497 828q0 17 -14.5 30.5t-44.5 13.5q-32 0 -47.5 -13.5t-15.5 -31.5q0 -17 15.5 -29t45.5 -12q23 0 42 10t19 32z" />
    <glyph glyph-name="uring" unicode="&#x16f;" 
d="M637 0h-65v71q-94 -84 -244 -84q-189 0 -238 113q-19 42 -19 118v276h66v-289q0 -29 5.5 -51.5t23 -49t59 -41.5t104.5 -15q64 0 130 19.5t95 62.5q18 27 18 70v294h65v-494zM468 631q0 -44 -38.5 -65.5t-78.5 -21.5q-41 0 -76.5 21.5t-35.5 64.5t35 64.5t79 21.5
q56 0 85.5 -24.5t29.5 -60.5zM414 630q0 19 -15.5 32t-45.5 13q-29 0 -46 -13.5t-17 -31.5t16.5 -29.5t45.5 -11.5t45.5 11.5t16.5 29.5z" />
    <glyph glyph-name="Uhungarumlaut" unicode="&#x170;" horiz-adv-x="875" 
d="M79 706h65v-405q0 -55 7 -93.5t31 -72.5q65 -89 239 -89q118 0 182.5 24.5t96.5 79.5q18 31 24 70.5t6 112.5v373h64v-426q0 -104 -42 -171q-53 -87 -177 -114q-60 -13 -131 -13q-101 0 -174 21q-131 37 -173 152q-18 49 -18 143v408zM504 900l-146 -126h-39l83 126h102z
M656 900l-146 -126h-39l83 126h102z" />
    <glyph glyph-name="uhungarumlaut" unicode="&#x171;" 
d="M637 0h-65v71q-94 -84 -244 -84q-189 0 -238 113q-19 42 -19 118v276h66v-289q0 -29 5.5 -51.5t23 -49t59 -41.5t104.5 -15q64 0 130 19.5t95 62.5q18 27 18 70v294h65v-494zM423 700l-137 -145h-41l81 145h97zM564 700l-137 -145h-41l81 145h97z" />
    <glyph glyph-name="Uogonek" unicode="&#x172;" horiz-adv-x="875" 
d="M79 706h65v-405q0 -55 7 -93.5t31 -72.5q65 -89 239 -89q118 0 182.5 24.5t96.5 79.5q18 31 24 70.5t6 112.5v373h64v-426q0 -104 -42 -171q-32 -53 -89 -83.5t-152 -40.5q-29 -3 -51.5 -17.5t-22.5 -44.5q0 -23 18 -39t53 -16q13 0 53 4v-50q-48 -6 -67 -6
q-58 0 -88 22.5t-30 61.5q0 46 50 82q-92 3 -156 21q-131 37 -173 152q-18 49 -18 143v408z" />
    <glyph glyph-name="uogonek" unicode="&#x173;" 
d="M637 494v-494q-46 -8 -70.5 -30t-24.5 -47q0 -23 18 -39t53 -16q13 0 53 4v-50q-48 -6 -67 -6q-58 0 -88 22.5t-30 61.5q0 27 21.5 55.5t69.5 48.5v67q-94 -84 -244 -84q-189 0 -238 113q-19 42 -19 118v276h66v-289q0 -29 5.5 -51.5t23 -49t59 -41.5t104.5 -15
q64 0 130 19.5t95 62.5q18 27 18 70v294h65z" />
    <glyph glyph-name="Wcircumflex" unicode="&#x174;" horiz-adv-x="1062" 
d="M1059 706l-224 -706h-82l-219 635l-217 -635h-80l-234 706h71l206 -634l218 634h73l223 -634l198 634h67zM681 774h-64l-85 77l-89 -77h-63l114 126h79z" />
    <glyph glyph-name="wcircumflex" unicode="&#x175;" horiz-adv-x="854" 
d="M853 494l-200 -494h-63l-163 418l-160 -418h-63l-204 494h71l164 -413l158 413h69l160 -413l163 413h68zM562 549h-51l-82 85l-83 -85h-55l108 132h59z" />
    <glyph glyph-name="Ycircumflex" unicode="&#x176;" horiz-adv-x="729" 
d="M723 706l-320 -420v-286h-64v286l-333 420h84l281 -363l272 363h80zM523 774h-64l-85 77l-89 -77h-63l114 126h79z" />
    <glyph glyph-name="ycircumflex" unicode="&#x177;" horiz-adv-x="562" 
d="M489 494h71l-233 -532q-16 -38 -24.5 -55t-21.5 -36t-29 -31q-43 -34 -139 -34q-49 0 -102 12v62q52 -18 100 -18q39 0 66 8.5t44 27t25 33.5t19 42l-265 521h79l221 -448zM428 549h-51l-82 85l-83 -85h-55l108 132h59z" />
    <glyph glyph-name="Ydieresis" unicode="&#x178;" horiz-adv-x="729" 
d="M723 706l-320 -420v-286h-64v286l-333 420h84l281 -363l272 363h80zM565 798h-73v96h73v-96zM242 798h-73v96h73v-96z" />
    <glyph glyph-name="Zacute" unicode="&#x179;" horiz-adv-x="750" 
d="M750 644l-653 -585h635v-59h-732v57l659 591h-604v58h695v-62zM531 900l-150 -126h-45l84 126h111z" />
    <glyph glyph-name="zacute" unicode="&#x17a;" horiz-adv-x="562" 
d="M546 0h-535v54l440 386h-408v54h503v-46l-443 -393h443v-55zM430 700l-144 -145h-43l78 145h109z" />
    <glyph glyph-name="Zdotaccent" unicode="&#x17b;" horiz-adv-x="750" 
d="M750 644l-653 -585h635v-59h-732v57l659 591h-604v58h695v-62zM427 798h-65v94h65v-94z" />
    <glyph glyph-name="zdotaccent" unicode="&#x17c;" horiz-adv-x="562" 
d="M546 0h-535v54l440 386h-408v54h503v-46l-443 -393h443v-55zM320 586h-65v94h65v-94z" />
    <glyph glyph-name="Zcaron" unicode="&#x17d;" horiz-adv-x="750" 
d="M750 644l-653 -585h635v-59h-732v57l659 591h-604v58h695v-62zM549 900l-115 -126h-81l-107 126h65l85 -76l88 76h65z" />
    <glyph glyph-name="zcaron" unicode="&#x17e;" horiz-adv-x="562" 
d="M546 0h-535v54l440 386h-408v54h503v-46l-443 -393h443v-55zM431 681l-107 -132h-61l-103 132h53l81 -85l83 85h54z" />
    <glyph glyph-name="longs" unicode="&#x17f;" horiz-adv-x="264" 
d="M10 443v51h98v97q0 62 28 94q33 38 111 38q50 0 94 -10v-58q-45 10 -90 10q-13 0 -23 -2t-24 -8.5t-22 -23.5t-8 -44v-587h-66v443h-98z" />
    <glyph glyph-name="florin" unicode="&#x192;" horiz-adv-x="354" 
d="M387 696l-6 -58q-46 10 -84 10q-47 0 -66.5 -21.5t-25.5 -68.5l-9 -81h167l-6 -51h-167l-58 -523q-12 -91 -80 -120q-26 -11 -72 -11q-54 0 -94 10l6 58q42 -10 84 -10q48 0 67.5 21.5t24.5 68.5l56 506h-98l6 51h98l11 96q3 26 9.5 45.5t22 41.5t46 34t74.5 12
q54 0 94 -10z" />
    <glyph glyph-name="Aringacute" unicode="&#x1fa;" horiz-adv-x="792" 
d="M532 998l-150 -100h-45l84 100h111zM786 0h-73l-91 183h-455l-90 -183h-71l348 706h76zM594 239l-202 404l-198 -404h400zM477 812q0 -36 -26.5 -55t-59.5 -19q-48 0 -68 23t-20 48q0 38 28 54.5t61 16.5q42 0 63.5 -19.5t21.5 -48.5zM432 810q0 32 -41 32q-44 0 -44 -33
q0 -30 43 -30q42 0 42 31z" />
    <glyph glyph-name="aringacute" unicode="&#x1fb;" horiz-adv-x="667" 
d="M461 889l-148 -138h-43l82 138h109zM666 0q-34 -4 -66 -4q-17 0 -30 5t-20.5 11.5t-13 17t-7.5 17t-3 15.5l-2 10q-31 -23 -54 -36q-90 -49 -208 -49q-134 0 -188 65q-33 40 -33 96q0 79 62 122q48 33 143 42.5t278 11.5q0 51 -17 75q-35 49 -187 49q-74 0 -116.5 -13
t-58.5 -32.5t-28 -56.5l-70 4q24 88 90 123q65 35 177 35q180 0 238 -64q33 -38 33 -109v-217q0 -40 14.5 -53.5t49.5 -13.5h17v-51zM524 268h-31q-212 0 -296.5 -26t-84.5 -96q0 -53 48 -76.5t110 -23.5q59 0 132.5 23.5t103.5 74.5q18 32 18 98v26zM445 631
q0 -45 -36.5 -66t-80.5 -21q-43 0 -77.5 21t-34.5 65q0 43 35 64.5t79 21.5q56 0 85.5 -24.5t29.5 -60.5zM391 629q0 19 -15.5 32t-45.5 13t-46.5 -13t-16.5 -31q0 -19 16.5 -30.5t45.5 -11.5t45.5 11.5t16.5 29.5z" />
    <glyph glyph-name="AEacute" unicode="&#x1fc;" horiz-adv-x="1125" 
d="M1085 0h-568v174h-329l-124 -174h-76l506 706h577v-58h-487v-254h446v-60h-446v-275h501v-59zM518 642l-290 -412h290v412zM857 900l-150 -126h-45l84 126h111z" />
    <glyph glyph-name="aeacute" unicode="&#x1fd;" horiz-adv-x="1146" 
d="M1051 170l52 -34q-23 -50 -63 -83.5t-85 -46t-72 -16.5t-52 -4q-93 0 -163.5 34t-96.5 91q-5 -17 -20.5 -35.5t-46 -40t-87 -35.5t-129.5 -14q-170 0 -223 81q-25 36 -25 85q0 65 44 101q57 47 221 47h235q-1 69 -19 95q-40 58 -194 58q-87 0 -137 -26q-44 -23 -59 -78
l-71 7q6 21 10 33t22.5 38t44.5 41t77.5 28t118.5 13q218 0 258 -100q22 35 79.5 67.5t149.5 32.5q53 0 101 -15t89.5 -45.5t66.5 -83t26 -120.5h-497q0 -96 61.5 -148.5t166.5 -52.5q20 0 42 3t59 14t68.5 39t47.5 70zM609 300h419q-6 41 -27.5 71.5t-46 45.5t-55.5 23.5
t-47.5 10t-30.5 1.5q-78 0 -137.5 -38t-74.5 -114zM540 245h-254q-101 0 -140 -30q-31 -24 -31 -66q0 -51 39 -76q47 -31 144 -31q67 0 130 23t90 73q20 36 22 107zM737 700l-144 -145h-43l78 145h109z" />
    <glyph glyph-name="Oslashacute" unicode="&#x1fe;" horiz-adv-x="917" 
d="M877 657l-89 -73q87 -98 87 -234q0 -142 -94 -244q-120 -130 -327 -130q-175 0 -290 98l-94 -76l-34 42l89 74q-84 104 -84 234q0 29 5.5 61.5t21 77t51 89t87.5 77.5q108 68 256 68q172 0 287 -97l92 75zM177 155l522 428q-95 79 -245 79q-22 0 -44.5 -2t-61 -12
t-71 -26.5t-68 -49.5t-58.5 -77q-37 -68 -37 -146q0 -50 16.5 -104.5t46.5 -89.5zM737 543l-522 -427q38 -35 102 -57.5t145 -22.5q106 0 177 41t106 91q54 78 54 184q0 54 -16.5 106t-45.5 85zM596 900l-150 -126h-45l84 126h111z" />
    <glyph glyph-name="oslashacute" unicode="&#x1ff;" 
d="M619 514l35 -39l-65 -55q70 -81 70 -173q0 -105 -75 -177q-34 -32 -93 -57.5t-140 -25.5q-114 0 -208 62l-76 -64l-35 40l71 60q-62 85 -62 163q0 63 31 121q39 72 114.5 107t164.5 35q121 0 197 -56zM543 382l-352 -294q63 -44 160 -44q102 0 169 56q71 59 71 154
q0 69 -48 128zM152 125l349 291q-54 39 -147 39q-99 0 -172 -56t-73 -152q0 -71 43 -122zM473 700l-144 -145h-43l78 145h109z" />
    <glyph glyph-name="Scommaaccent" unicode="&#x218;" horiz-adv-x="812" 
d="M32 177l74 28q8 -21 14 -34t29 -40t53 -43.5t85.5 -30t126.5 -13.5q73 0 134.5 17.5t102 55t40.5 89.5q0 21 -7 37.5t-16.5 28t-30 21t-35.5 15t-45.5 11.5t-48 8.5t-54.5 7.5l-154 21q-90 13 -129 33q-84 42 -84 131t85.5 147t239.5 58q30 0 60 -3.5t81.5 -15t102 -42.5
t87.5 -78l-64 -34q-80 112 -272 112q-100 0 -174 -35.5t-74 -105.5q0 -49 55 -76q31 -15 131 -28q25 -4 71 -10t66 -9t53 -8.5t50.5 -9.5t38 -9.5t35.5 -12.5q49 -21 77 -60t28 -90q0 -58 -33 -105q-87 -123 -334 -123q-25 0 -55.5 3t-77.5 12.5t-93.5 32.5t-78.5 57
q-27 28 -60 90zM389 -40h71v-65q0 -74 -71 -80v29q33 8 33 45h-33v71z" />
    <glyph glyph-name="scommaaccent" unicode="&#x219;" horiz-adv-x="625" 
d="M577 392l-73 -15q-13 22 -21 29q-27 23 -80 33.5t-102 10.5q-27 0 -53 -3t-57.5 -11.5t-51 -28.5t-19.5 -48q0 -19 13 -35.5t33 -21.5q18 -5 96 -10q18 -1 57.5 -3t54 -3t42.5 -3.5t42 -5t31 -7.5t29 -11q70 -35 70 -111q0 -16 -4 -33t-20.5 -41t-42.5 -42t-76.5 -31
t-116.5 -13q-254 0 -298 134l72 16q16 -42 71 -66q60 -24 153 -24q84 0 139.5 25.5t55.5 73.5q0 62 -136 71q-35 2 -82.5 4t-72.5 3.5t-52.5 5t-45.5 10.5q-11 4 -22 11t-25.5 19.5t-23.5 34t-9 47.5q0 56 36 92t90 49.5t127 13.5q223 0 272 -116zM285 -40h71v-65
q0 -74 -71 -80v29q33 8 33 45h-33v71z" />
    <glyph glyph-name="uni021A" unicode="&#x21a;" horiz-adv-x="688" 
d="M686 648h-303v-648h-67v648h-317v58h687v-58zM314 -40h71v-65q0 -74 -71 -80v29q33 8 33 45h-33v71z" />
    <glyph glyph-name="uni021B" unicode="&#x21b;" horiz-adv-x="313" 
d="M309 494v-51h-140v-235q0 -36 1 -57t6.5 -44t15.5 -34t28 -18.5t45 -7.5q2 0 44 3v-54q-45 -7 -66 -7q-84 0 -117 53q-15 23 -19 55.5t-4 98.5v247h-94v51h94v169l66 31v-200h140zM157 -40h71v-65q0 -74 -71 -80v29q33 8 33 45h-33v71z" />
    <glyph glyph-name="circumflex" unicode="&#x2c6;" horiz-adv-x="375" 
d="M323 549h-51l-82 85l-83 -85h-55l108 132h59z" />
    <glyph glyph-name="caron" unicode="&#x2c7;" horiz-adv-x="375" 
d="M323 681l-107 -132h-61l-103 132h53l81 -85l83 85h54z" />
    <glyph glyph-name="uni02C9" unicode="&#x2c9;" horiz-adv-x="375" 
d="M355 569h-335v52h335v-52z" />
    <glyph glyph-name="breve" unicode="&#x2d8;" horiz-adv-x="375" 
d="M278 682h49q-7 -63 -46.5 -93.5t-93.5 -30.5q-18 0 -36 4t-41.5 15.5t-40 38.5t-21.5 66h50q4 -29 24 -53.5t63 -24.5q16 0 32 3.5t36 22.5t25 52z" />
    <glyph glyph-name="dotaccent" unicode="&#x2d9;" horiz-adv-x="375" 
d="M220 586h-65v94h65v-94z" />
    <glyph glyph-name="ring" unicode="&#x2da;" horiz-adv-x="375" 
d="M302 631q0 -44 -38.5 -65.5t-78.5 -21.5q-41 0 -76.5 21.5t-35.5 64.5t35 64.5t79 21.5q56 0 85.5 -24.5t29.5 -60.5zM248 630q0 19 -15.5 32t-45.5 13q-29 0 -46 -13.5t-17 -31.5t16.5 -29.5t45.5 -11.5t45.5 11.5t16.5 29.5z" />
    <glyph glyph-name="ogonek" unicode="&#x2db;" horiz-adv-x="375" 
d="M237 4v-4q-81 -29 -81 -77q0 -23 18 -39t53 -16q13 0 53 4v-50q-48 -6 -67 -6q-58 0 -88 22.5t-30 61.5q0 27 21.5 55.5t69.5 48.5h51z" />
    <glyph glyph-name="tilde" unicode="&#x2dc;" horiz-adv-x="375" 
d="M332 670l29 -14q-17 -42 -38 -65.5t-57 -23.5q-25 0 -83.5 25t-82.5 25q-30 0 -57 -50l-28 15q41 88 100 88q33 0 87.5 -24.5t74.5 -24.5q31 0 55 49z" />
    <glyph glyph-name="hungarumlaut" unicode="&#x2dd;" horiz-adv-x="375" 
d="M206 700l-137 -145h-41l81 145h97zM347 700l-137 -145h-41l81 145h97z" />
    <glyph glyph-name="uni037E" unicode="&#x37e;" horiz-adv-x="313" 
d="M217 391h-79v98h79v-98zM138 99h75v-125q0 -37 -18.5 -61.5t-54.5 -28.5v36q36 6 36 63v17h-38v99z" />
    <glyph glyph-name="tonos" unicode="&#x384;" horiz-adv-x="375" 
d="M281 700l-144 -145h-43l78 145h109z" />
    <glyph glyph-name="dieresistonos" unicode="&#x385;" horiz-adv-x="373" 
d="M277 700l-106 -136h-42l43 136h105zM353 564h-70v96h70v-96zM90 564h-70v96h70v-96z" />
    <glyph glyph-name="Alphatonos" unicode="&#x386;" horiz-adv-x="792" 
d="M786 0h-73l-91 183h-455l-90 -183h-71l348 706h76zM594 239l-202 404l-198 -404h400zM178 706l-144 -145h-43l78 145h109z" />
    <glyph glyph-name="anoteleia" unicode="&#x387;" horiz-adv-x="271" 
d="M173 291h-77v99h77v-99z" />
    <glyph glyph-name="Epsilontonos" unicode="&#x388;" horiz-adv-x="833" 
d="M788 0h-705v706h676v-58h-607v-248h561v-60h-561v-281h636v-59zM11 706l-144 -145h-43l78 145h109z" />
    <glyph glyph-name="Etatonos" unicode="&#x389;" horiz-adv-x="896" 
d="M812 0h-67v345h-593v-345h-69v706h69v-302h593v302h67v-706zM11 706l-144 -145h-43l78 145h109z" />
    <glyph glyph-name="Iotatonos" unicode="&#x38a;" horiz-adv-x="229" 
d="M149 0h-67v706h67v-706zM11 706l-144 -145h-43l78 145h109z" />
    <glyph glyph-name="Omicrontonos" unicode="&#x38c;" horiz-adv-x="917" 
d="M42 354q0 89 35 162t94.5 118.5t133 69.5t153.5 24q26 0 51 -2t70.5 -12t84 -27.5t82 -52.5t73.5 -83q57 -91 57 -196q0 -131 -81 -229q-40 -48 -91.5 -80t-102.5 -44.5t-83 -16.5t-62 -4q-25 0 -51 2t-73.5 13t-87.5 30t-83.5 57t-72.5 89q-46 82 -46 182zM799 369
q0 125 -92 211.5t-250 86.5q-131 0 -219 -65q-45 -33 -83.5 -95.5t-38.5 -155.5q0 -64 23 -121q20 -51 56.5 -88.5t72 -56t78.5 -29.5t67.5 -13t46.5 -2q89 0 156.5 28.5t106 76t57.5 104t19 119.5zM81 706l-144 -145h-43l78 145h109z" />
    <glyph glyph-name="Upsilontonos" unicode="&#x38e;" horiz-adv-x="729" 
d="M723 706l-320 -420v-286h-64v286l-333 420h84l281 -363l272 363h80zM-9 706l-144 -145h-43l78 145h109z" />
    <glyph glyph-name="Omegatonos" unicode="&#x38f;" horiz-adv-x="918" 
d="M459 667q-168 0 -254 -82t-86 -222q0 -117 70.5 -197t199.5 -104v-62h-349v62h197q-192 95 -192 297q0 165 106.5 267t307.5 102t309.5 -102.5t108.5 -266.5q0 -202 -192 -297h197v-62h-349v62q128 24 197.5 103.5t69.5 197.5q0 140 -86.5 222t-254.5 82zM81 706
l-144 -145h-43l78 145h109z" />
    <glyph glyph-name="iotadieresistonos" unicode="&#x390;" horiz-adv-x="224" 
d="M141 494v-395q0 -30 7.5 -41t25.5 -11q8 0 38 3v-47q-28 -14 -63 -14q-33 0 -53.5 23.5t-20.5 63.5v418h66zM227 700l-106 -136h-42l43 136h105zM303 564h-70v96h70v-96zM40 564h-70v96h70v-96z" />
    <glyph glyph-name="Alpha" unicode="&#x391;" horiz-adv-x="792" 
d="M786 0h-73l-91 183h-455l-90 -183h-71l348 706h76zM594 239l-202 404l-198 -404h400z" />
    <glyph glyph-name="Beta" unicode="&#x392;" horiz-adv-x="917" 
d="M82 706h553q99 0 154 -75q33 -45 33 -102q0 -65 -36 -105t-87 -50q74 -6 116.5 -58t42.5 -124q0 -102 -71 -153q-54 -39 -155 -39h-550v706zM151 649v-250h431q48 0 81.5 9t58.5 39q27 32 27 78q0 39 -19 70q-22 34 -55 44t-83 10h-441zM151 339v-280h482q102 0 137 64
q18 33 18 69q0 51 -27 87q-20 27 -54.5 41t-61 16.5t-69.5 2.5h-425z" />
    <glyph glyph-name="Gamma" unicode="&#x393;" horiz-adv-x="696" 
d="M694 648h-542v-648h-69v706h611v-58z" />
    <glyph glyph-name="uni0394" unicode="&#x394;" horiz-adv-x="729" 
d="M731 0h-733l335 706h60zM618 63l-257 558l-255 -558h512z" />
    <glyph glyph-name="Epsilon" unicode="&#x395;" horiz-adv-x="833" 
d="M788 0h-705v706h676v-58h-607v-248h561v-60h-561v-281h636v-59z" />
    <glyph glyph-name="Zeta" unicode="&#x396;" horiz-adv-x="750" 
d="M750 644l-653 -585h635v-59h-732v57l659 591h-604v58h695v-62z" />
    <glyph glyph-name="Eta" unicode="&#x397;" horiz-adv-x="896" 
d="M812 0h-67v345h-593v-345h-69v706h69v-302h593v302h67v-706z" />
    <glyph glyph-name="Theta" unicode="&#x398;" horiz-adv-x="917" 
d="M669 340h-423v60h423v-60zM42 354q0 89 35 162t94.5 118.5t133 69.5t153.5 24q26 0 51 -2t70.5 -12t84 -27.5t82 -52.5t73.5 -83q57 -91 57 -196q0 -131 -81 -229q-40 -48 -91.5 -80t-102.5 -44.5t-83 -16.5t-62 -4q-25 0 -51 2t-73.5 13t-87.5 30t-83.5 57t-72.5 89
q-46 82 -46 182zM799 369q0 125 -92 211.5t-250 86.5q-131 0 -219 -65q-45 -33 -83.5 -95.5t-38.5 -155.5q0 -64 23 -121q20 -51 56.5 -88.5t72 -56t78.5 -29.5t67.5 -13t46.5 -2q89 0 156.5 28.5t106 76t57.5 104t19 119.5z" />
    <glyph glyph-name="Iota" unicode="&#x399;" horiz-adv-x="229" 
d="M149 0h-67v706h67v-706z" />
    <glyph glyph-name="Kappa" unicode="&#x39a;" horiz-adv-x="792" 
d="M788 0h-89l-315 391l-234 -190v-201h-67v706h67v-429l528 429h93l-334 -272z" />
    <glyph glyph-name="Lambda" unicode="&#x39b;" horiz-adv-x="784" 
d="M388 639l-305 -639h-71l338 706h76l346 -706h-73z" />
    <glyph glyph-name="Mu" unicode="&#x39c;" horiz-adv-x="938" 
d="M857 0h-63v626l-288 -626h-70l-290 620v-620h-64v706h90l301 -642l296 642h88v-706z" />
    <glyph glyph-name="Nu" unicode="&#x39d;" horiz-adv-x="896" 
d="M814 0h-63l-605 616v-616h-63v706h63l605 -619v619h63v-706z" />
    <glyph glyph-name="Xi" unicode="&#x39e;" horiz-adv-x="870" 
d="M45 0v65h780v-65h-780zM65 642v64h739v-64h-739zM117 337v65h636v-65h-636z" />
    <glyph glyph-name="Omicron" unicode="&#x39f;" horiz-adv-x="917" 
d="M42 354q0 89 35 162t94.5 118.5t133 69.5t153.5 24q26 0 51 -2t70.5 -12t84 -27.5t82 -52.5t73.5 -83q57 -91 57 -196q0 -131 -81 -229q-40 -48 -91.5 -80t-102.5 -44.5t-83 -16.5t-62 -4q-25 0 -51 2t-73.5 13t-87.5 30t-83.5 57t-72.5 89q-46 82 -46 182zM799 369
q0 125 -92 211.5t-250 86.5q-131 0 -219 -65q-45 -33 -83.5 -95.5t-38.5 -155.5q0 -64 23 -121q20 -51 56.5 -88.5t72 -56t78.5 -29.5t67.5 -13t46.5 -2q89 0 156.5 28.5t106 76t57.5 104t19 119.5z" />
    <glyph glyph-name="Pi" unicode="&#x3a0;" horiz-adv-x="881" 
d="M797 0h-67v646h-578v-646h-69v706h714v-706z" />
    <glyph glyph-name="Rho" unicode="&#x3a1;" horiz-adv-x="812" 
d="M82 0v706h469q71 0 123 -14.5t83 -61.5q37 -51 37 -117q0 -96 -72 -151q-59 -46 -187 -46h-383v-316h-70zM152 374h359q40 0 62.5 1.5t55.5 12t54 30.5q38 36 38 95q0 73 -51 109q-37 26 -112 26h-406v-274z" />
    <glyph glyph-name="Sigma" unicode="&#x3a3;" horiz-adv-x="765" 
d="M15 57l342 308l-311 279v62h690v-58h-599l317 -283l-342 -306h635v-59h-732v57z" />
    <glyph glyph-name="Tau" unicode="&#x3a4;" horiz-adv-x="685" 
d="M686 648h-303v-648h-67v648h-317v58h687v-58z" />
    <glyph glyph-name="Upsilon" unicode="&#x3a5;" horiz-adv-x="729" 
d="M723 706l-320 -420v-286h-64v286l-333 420h84l281 -363l272 363h80z" />
    <glyph glyph-name="Phi" unicode="&#x3a6;" horiz-adv-x="972" 
d="M519 0h-67v59q-101 4 -178 25t-121.5 50.5t-73 69.5t-38 76.5t-9.5 76.5t9.5 76.5t38 76.5t73 70t121.5 51t178 25v50h67v-50q101 -4 178 -24.5t122 -49.5t73.5 -68t38 -75t9.5 -76t-9.5 -77t-38 -78t-73.5 -71.5t-122 -52t-178 -25.5v-59zM866 364q0 99 -82.5 165
t-264.5 72v-484q94 3 163.5 25t108 57.5t57 76.5t18.5 88zM106 356q0 -99 82.5 -166t263.5 -73v484q-94 -3 -163 -25t-108 -57t-57 -75.5t-18 -87.5z" />
    <glyph glyph-name="Chi" unicode="&#x3a7;" horiz-adv-x="736" 
d="M740 0h-87l-293 315l-272 -315h-84l313 362l-321 344h87l277 -296l257 296h84l-299 -344z" />
    <glyph glyph-name="Psi" unicode="&#x3a8;" horiz-adv-x="967" 
d="M516 0h-65v162q-82 2 -144.5 16t-117.5 45.5t-85 90.5t-30 143v249h65v-253q0 -114 75.5 -171t236.5 -62v486h65v-486q313 10 313 233v253h64v-249q0 -282 -377 -295v-162z" />
    <glyph glyph-name="uni03A9" unicode="&#x3a9;" horiz-adv-x="830" 
d="M786 0h-309v62q107 24 165 112t58 211q0 127 -77 205.5t-202 78.5q-133 0 -213.5 -81t-80.5 -215q0 -120 58.5 -204t167.5 -107v-62h-309v62h178q-81 47 -124.5 126t-43.5 181q0 157 103.5 256t268.5 99q158 0 252.5 -93.5t94.5 -248.5q0 -108 -47.5 -191t-135.5 -129
h196v-62z" />
    <glyph glyph-name="Iotadieresis" unicode="&#x3aa;" horiz-adv-x="229" 
d="M149 0h-67v706h67v-706zM315 798h-73v96h73v-96zM-8 798h-73v96h73v-96z" />
    <glyph glyph-name="Upsilondieresis" unicode="&#x3ab;" horiz-adv-x="729" 
d="M723 706l-320 -420v-286h-64v286l-333 420h84l281 -363l272 363h80zM565 798h-73v96h73v-96zM242 798h-73v96h73v-96z" />
    <glyph glyph-name="alphatonos" unicode="&#x3ac;" horiz-adv-x="715" 
d="M568 249q0 90 -55.5 147t-173.5 57q-102 0 -162 -54.5t-60 -143.5q0 -97 61 -153.5t171 -56.5q96 0 157.5 52.5t61.5 151.5zM703 50v-47q-28 -14 -63 -14q-33 0 -53 22.5t-21 63.5q-71 -89 -222 -89q-129 0 -215 71t-86 193t81.5 192t209.5 70q157 0 233 -86v68h65v-395
q0 -30 7.5 -41t25.5 -11q8 0 38 3zM525 700l-144 -145h-43l78 145h109z" />
    <glyph glyph-name="epsilontonos" unicode="&#x3ad;" horiz-adv-x="647" 
d="M602 395l-64 -31q-23 38 -76 64.5t-137 26.5q-188 0 -188 -84q0 -42 38 -61t119 -19h157v-56h-155q-183 0 -183 -100q0 -27 14.5 -45.5t61.5 -31.5t128 -13q179 0 263 123l52 -38q-99 -143 -328 -143q-266 0 -266 145q0 53 44.5 88.5t116.5 40.5q-70 8 -101 39t-31 72
q0 68 69 103.5t187 35.5q187 0 279 -116zM486 700l-144 -145h-43l78 145h109z" />
    <glyph glyph-name="etatonos" unicode="&#x3ae;" horiz-adv-x="728" 
d="M91 0v370q0 44 -7.5 59.5t-29.5 15.5q-9 0 -29 -2v51q36 6 62 6q69 0 69 -75q8 10 21.5 20.5t40.5 26.5t72 26t99 10q120 0 194.5 -53.5t74.5 -162.5v-479h-66v474q0 158 -212 158q-106 0 -164.5 -44.5t-58.5 -104.5v-296h-66zM543 700l-144 -145h-43l78 145h109z" />
    <glyph glyph-name="iotatonos" unicode="&#x3af;" horiz-adv-x="224" 
d="M141 494v-395q0 -30 7.5 -41t25.5 -11q8 0 38 3v-47q-28 -14 -63 -14q-33 0 -53.5 23.5t-20.5 63.5v418h66zM275 700l-144 -145h-43l78 145h109z" />
    <glyph glyph-name="upsilondieresistonos" unicode="&#x3b0;" horiz-adv-x="707" 
d="M354 -14q-29 0 -61.5 4.5t-73.5 19.5t-72.5 39t-53.5 67t-22 98v280h66v-271q0 -50 19.5 -86.5t52.5 -56.5t69 -29t76 -9t76 9t69 29t52.5 56.5t19.5 86.5v271h65v-280q0 -55 -22 -98t-53 -67t-72 -39t-73.5 -19.5t-61.5 -4.5zM464 700l-106 -136h-42l43 136h105z
M540 564h-70v96h70v-96zM277 564h-70v96h70v-96z" />
    <glyph glyph-name="alpha" unicode="&#x3b1;" horiz-adv-x="715" 
d="M568 249q0 90 -55.5 147t-173.5 57q-102 0 -162 -54.5t-60 -143.5q0 -97 61 -153.5t171 -56.5q96 0 157.5 52.5t61.5 151.5zM703 50v-47q-28 -14 -63 -14q-33 0 -53 22.5t-21 63.5q-71 -89 -222 -89q-129 0 -215 71t-86 193t81.5 192t209.5 70q157 0 233 -86v68h65v-395
q0 -30 7.5 -41t25.5 -11q8 0 38 3z" />
    <glyph glyph-name="beta" unicode="&#x3b2;" horiz-adv-x="702" 
d="M138 -187h-66v682q0 108 67 168t206 60q133 0 192 -46t59 -109q0 -58 -38.5 -102t-116.5 -62q115 -12 167 -64t52 -133q0 -39 -15 -76t-46 -70t-89 -53t-134 -20q-162 0 -238 88v-263zM288 371v55h52q71 0 129 35t58 106q0 46 -43 73.5t-136 27.5q-209 0 -209 -168v-271
q0 -81 60 -130.5t180 -49.5q209 0 209 168q0 66 -55.5 110t-176.5 44h-68z" />
    <glyph glyph-name="gamma" unicode="&#x3b3;" horiz-adv-x="611" 
d="M612 494l-255 -492v-189h-64v191l-186 378q-19 40 -35 49t-49 9h-17v54h21q58 0 86.5 -14.5t54.5 -70.5l158 -337l211 422h75z" />
    <glyph glyph-name="delta" unicode="&#x3b4;" horiz-adv-x="706" 
d="M591 230q0 78 -61.5 133.5t-181.5 55.5q-107 0 -168.5 -53t-61.5 -139q0 -52 20 -89.5t54.5 -57.5t74 -29t85.5 -9q45 0 85 9.5t76 29.5t57 58.5t21 90.5zM352 -14q-140 0 -224.5 64t-84.5 177q0 93 65 160t201 73q-179 33 -179 131q0 47 35.5 78t83.5 42.5t106 11.5
q91 0 156.5 -34.5t89.5 -85.5l-75 -15q-21 43 -72 61.5t-101 18.5q-58 0 -105.5 -18t-47.5 -57q0 -68 207 -117q256 -60 256 -244q0 -121 -89.5 -183.5t-221.5 -62.5z" />
    <glyph glyph-name="epsilon" unicode="&#x3b5;" horiz-adv-x="647" 
d="M602 395l-64 -31q-23 38 -76 64.5t-137 26.5q-188 0 -188 -84q0 -42 38 -61t119 -19h157v-56h-155q-183 0 -183 -100q0 -27 14.5 -45.5t61.5 -31.5t128 -13q179 0 263 123l52 -38q-99 -143 -328 -143q-266 0 -266 145q0 53 44.5 88.5t116.5 40.5q-70 8 -101 39t-31 72
q0 68 69 103.5t187 35.5q187 0 279 -116z" />
    <glyph glyph-name="zeta" unicode="&#x3b6;" horiz-adv-x="549" 
d="M431 648h-362v58h485v-51q-81 -43 -151.5 -89.5t-141.5 -108.5t-112.5 -134.5t-41.5 -145.5q0 -38 16 -62t51.5 -36t77 -16t108.5 -4q99 0 143.5 -20.5t44.5 -81.5q0 -66 -98 -144l-44 56q73 39 73 83q0 32 -28 40t-98 8q-76 0 -128.5 6t-99 23.5t-70 53t-23.5 89.5
q0 126 107 248.5t292 227.5z" />
    <glyph glyph-name="eta" unicode="&#x3b7;" horiz-adv-x="728" 
d="M91 0v370q0 44 -7.5 59.5t-29.5 15.5q-9 0 -29 -2v51q36 6 62 6q69 0 69 -75q8 10 21.5 20.5t40.5 26.5t72 26t99 10q120 0 194.5 -53.5t74.5 -162.5v-479h-66v474q0 158 -212 158q-106 0 -164.5 -44.5t-58.5 -104.5v-296h-66z" />
    <glyph glyph-name="theta" unicode="&#x3b8;" 
d="M653 373q0 -86 -13.5 -151.5t-45.5 -121t-92.5 -85t-147.5 -29.5t-147 29.5t-92.5 85t-46 121t-13.5 151.5q0 24 1.5 47.5t8.5 60t18.5 67.5t34 64.5t53 57t78 38.5t105.5 15t105.5 -15t78 -38.5t53 -57t34 -64.5t18.5 -67.5t8.5 -59.5t1.5 -48zM577 399
q-15 269 -223 269t-223 -269h446zM577 346h-446q0 -66 10 -117t33.5 -95t69 -68t110.5 -24q53 0 93 16t64.5 42.5t39.5 66.5t20.5 83t5.5 96z" />
    <glyph glyph-name="iota" unicode="&#x3b9;" horiz-adv-x="224" 
d="M141 494v-395q0 -30 7.5 -41t25.5 -11q8 0 38 3v-47q-28 -14 -63 -14q-33 0 -53.5 23.5t-20.5 63.5v418h66z" />
    <glyph glyph-name="kappa" unicode="&#x3ba;" horiz-adv-x="674" 
d="M137 0h-66v494h66v-261l336 224q37 25 66.5 31t80.5 6h9v-54h-12q-37 0 -59.5 -6t-63.5 -34l-148 -100l318 -300h-100l-276 263l-151 -102v-161z" />
    <glyph glyph-name="lambda" unicode="&#x3bb;" horiz-adv-x="633" 
d="M635 50v-47q-29 -14 -57 -14q-43 0 -71 21.5t-60 94.5l-141 317l-239 -422h-67l276 489l-46 103q-18 39 -40 56t-58 17q-47 0 -84 -16v57q36 17 92 17q61 0 96 -32t69 -108l203 -457q21 -48 41 -63.5t45 -15.5q11 0 41 3z" />
    <glyph glyph-name="uni03BC" unicode="&#x3bc;" horiz-adv-x="721" 
d="M572 494h65v-386q0 -28 15 -43.5t41 -15.5q15 0 25 1v-51q-43 -4 -58 -4q-41 0 -59.5 18.5t-23.5 63.5q-97 -90 -250 -90q-134 0 -190 64v-238h-66v681h66v-290q0 -81 47 -118.5t144 -37.5q105 0 174.5 38t69.5 107v301z" />
    <glyph glyph-name="nu" unicode="&#x3bd;" horiz-adv-x="563" 
d="M291 73l156 299q24 48 24 78q0 28 -4 44h68q6 -33 6 -49q0 -38 -31 -93l-189 -352h-61l-250 494h75z" />
    <glyph glyph-name="xi" unicode="&#x3be;" horiz-adv-x="583" 
d="M493 413v-54h-142q-102 0 -170 -42.5t-68 -126.5q0 -76 65 -103.5t209 -27.5q99 0 143.5 -20.5t44.5 -81.5q0 -66 -98 -144l-44 56q73 39 73 83q0 32 -28 40t-98 8q-79 0 -137 8t-106.5 27t-73.5 56t-25 90q0 78 54 134.5t164 74.5q-85 11 -124.5 48.5t-39.5 86.5
q0 52 39.5 83.5t100.5 42.5h-150v55h490v-55h-114q-130 0 -211.5 -31t-81.5 -91q0 -116 225 -116h103z" />
    <glyph glyph-name="omicron" unicode="&#x3bf;" 
d="M43 247q0 49 15.5 90t40.5 68.5t46 43t43 26.5q70 35 172 35q131 0 212 -67q53 -44 72.5 -100t19.5 -100q0 -75 -41 -134q-34 -49 -101 -86t-170 -37q-42 0 -78 7q-126 23 -188 113q-43 63 -43 141zM590 247q0 97 -68 153t-167 56q-87 0 -151 -42q-86 -57 -86 -168
q0 -72 40 -124q32 -41 84 -60.5t109 -19.5q127 0 193 75q46 53 46 130z" />
    <glyph glyph-name="pi" unicode="&#x3c0;" horiz-adv-x="626" 
d="M587 0h-23q-68 0 -94 25.5t-26 92.5v321h-278v-439h-66v439h-58v54h529v-54h-60v-340q0 -26 13.5 -35.5t44.5 -9.5h18v-54z" />
    <glyph glyph-name="rho" unicode="&#x3c1;" horiz-adv-x="680" 
d="M118 246q0 -94 56.5 -147.5t168.5 -53.5q109 0 165 58.5t56 145.5q0 101 -65.5 154t-155.5 53q-39 0 -77 -12t-72 -35.5t-55 -66t-21 -96.5zM114 -187h-64v425q0 59 18.5 106.5t48 77.5t69.5 50.5t81 29t84 8.5q119 0 202 -71t83 -191q0 -106 -78.5 -184t-209.5 -78
q-155 0 -234 90v-263z" />
    <glyph glyph-name="sigma1" unicode="&#x3c2;" horiz-adv-x="614" 
d="M595 415l-48 -51q-30 38 -64 58q-57 35 -138 35q-76 0 -127.5 -29.5t-75.5 -71.5q-29 -47 -29 -105q0 -127 108 -160q21 -6 47.5 -11t42.5 -7.5t53 -6.5t48 -5q124 -15 124 -104q0 -66 -98 -144l-44 56q73 39 73 83q0 42 -59 49q-165 18 -206 31q-90 30 -126.5 82.5
t-36.5 135.5q0 101 65 170q43 46 109 70t134 24q156 0 248 -99z" />
    <glyph glyph-name="sigma" unicode="&#x3c3;" horiz-adv-x="725" 
d="M590 239q0 94 -68 147.5t-167 53.5q-42 0 -82.5 -11.5t-76 -35t-57 -63.5t-21.5 -92q0 -87 63 -141.5t170 -54.5q98 0 168.5 50.5t70.5 146.5zM705 494v-54h-169q39 -15 66 -42.5t39.5 -58t17.5 -55t5 -46.5q0 -108 -87.5 -180t-224.5 -72q-134 0 -221.5 70.5
t-87.5 182.5q0 67 28 118t75 80t101 43t113 14h345z" />
    <glyph glyph-name="tau" unicode="&#x3c4;" horiz-adv-x="520" 
d="M227 440h-104q-50 0 -98 -18l-15 -6v58q56 20 152 20h348v-54h-217v-232q0 -36 1 -57t6.5 -44t15.5 -34t28 -18.5t45 -7.5q2 0 44 3v-54q-46 -7 -66 -7q-45 0 -74.5 14t-43 41.5t-18 55t-4.5 66.5v274z" />
    <glyph glyph-name="upsilon" unicode="&#x3c5;" horiz-adv-x="707" 
d="M354 -14q-29 0 -61.5 4.5t-73.5 19.5t-72.5 39t-53.5 67t-22 98v280h66v-271q0 -50 19.5 -86.5t52.5 -56.5t69 -29t76 -9t76 9t69 29t52.5 56.5t19.5 86.5v271h65v-280q0 -55 -22 -98t-53 -67t-72 -39t-73.5 -19.5t-61.5 -4.5z" />
    <glyph glyph-name="phi" unicode="&#x3c6;" horiz-adv-x="846" 
d="M391 -187v171q-171 4 -259 75.5t-88 183.5q0 53 19 98.5t58.5 84t108.5 61.5t161 25v151l66 31v-182q94 -2 164.5 -27t108 -64.5t55 -82t17.5 -88.5q0 -118 -94 -189.5t-251 -76.5v-171h-66zM391 37v423q-130 -3 -201 -60.5t-71 -156.5q0 -97 73.5 -150.5t198.5 -55.5z
M457 460v-423q124 3 197.5 59t73.5 156q0 97 -73 150.5t-198 57.5z" />
    <glyph glyph-name="chi" unicode="&#x3c7;" horiz-adv-x="602" 
d="M569 -200q-46 0 -80 28t-72 91l-119 197l-216 -303h-72l254 353l-149 229q-19 30 -37.5 40t-51.5 10q-6 0 -20 -2v51q22 6 47 6q39 0 65 -17t52 -57l133 -210l203 278h73l-243 -328l138 -220q33 -53 53.5 -71.5t49.5 -18.5q17 0 40 5v-54q-34 -7 -48 -7z" />
    <glyph glyph-name="psi" unicode="&#x3c8;" horiz-adv-x="886" 
d="M476 -187h-66v175q-186 8 -266 63.5t-80 199.5v243h66v-247q0 -59 17.5 -98.5t56 -61.5t86.5 -31.5t120 -13.5v621l66 31v-652q140 7 210 56.5t70 147.5v248h66v-243q0 -128 -84.5 -192t-261.5 -71v-175z" />
    <glyph glyph-name="omega" unicode="&#x3c9;" horiz-adv-x="886" 
d="M843 241q0 -44 -10.5 -85t-34.5 -81t-69.5 -64t-108.5 -24q-64 0 -112 29t-65 75q-16 -46 -64 -75t-112 -29q-51 0 -91 15.5t-64.5 40t-40.5 57.5t-22 65.5t-6 66.5q0 275 254 277v-56q-33 -3 -52 -6.5t-46.5 -17t-42.5 -35t-26.5 -62.5t-11.5 -98q0 -89 37.5 -140
t117.5 -51q72 0 104.5 43t32.5 100v151h66v-155q0 -56 33 -97.5t105 -41.5q44 0 75 16.5t48 45.5t24.5 62.5t7.5 74.5q0 32 -4 59t-8.5 46.5t-15.5 35.5t-18.5 26t-24 18t-24.5 12t-28 7t-27.5 4t-28.5 3v56q52 0 93.5 -11.5t79.5 -39.5t59 -83t21 -134z" />
    <glyph glyph-name="iotadieresis" unicode="&#x3ca;" horiz-adv-x="224" 
d="M141 494v-395q0 -30 7.5 -41t25.5 -11q8 0 38 3v-47q-28 -14 -63 -14q-33 0 -53.5 23.5t-20.5 63.5v418h66zM284 564h-70v96h70v-96zM19 564h-70v96h70v-96z" />
    <glyph glyph-name="upsilondieresis" unicode="&#x3cb;" horiz-adv-x="707" 
d="M354 -14q-29 0 -61.5 4.5t-73.5 19.5t-72.5 39t-53.5 67t-22 98v280h66v-271q0 -50 19.5 -86.5t52.5 -56.5t69 -29t76 -9t76 9t69 29t52.5 56.5t19.5 86.5v271h65v-280q0 -55 -22 -98t-53 -67t-72 -39t-73.5 -19.5t-61.5 -4.5zM529 564h-70v96h70v-96zM264 564h-70v96h70
v-96z" />
    <glyph glyph-name="omicrontonos" unicode="&#x3cc;" horiz-adv-x="707" 
d="M43 247q0 49 15.5 90t40.5 68.5t46 43t43 26.5q70 35 172 35q131 0 212 -67q53 -44 72.5 -100t19.5 -100q0 -75 -41 -134q-34 -49 -101 -86t-170 -37q-42 0 -78 7q-126 23 -188 113q-43 63 -43 141zM590 247q0 97 -68 153t-167 56q-87 0 -151 -42q-86 -57 -86 -168
q0 -72 40 -124q32 -41 84 -60.5t109 -19.5q127 0 193 75q46 53 46 130zM524 700l-144 -145h-43l78 145h109z" />
    <glyph glyph-name="upsilontonos" unicode="&#x3cd;" horiz-adv-x="707" 
d="M354 -14q-29 0 -61.5 4.5t-73.5 19.5t-72.5 39t-53.5 67t-22 98v280h66v-271q0 -50 19.5 -86.5t52.5 -56.5t69 -29t76 -9t76 9t69 29t52.5 56.5t19.5 86.5v271h65v-280q0 -55 -22 -98t-53 -67t-72 -39t-73.5 -19.5t-61.5 -4.5zM513 700l-144 -145h-43l78 145h109z" />
    <glyph glyph-name="omegatonos" unicode="&#x3ce;" horiz-adv-x="886" 
d="M843 241q0 -44 -10.5 -85t-34.5 -81t-69.5 -64t-108.5 -24q-64 0 -112 29t-65 75q-16 -46 -64 -75t-112 -29q-51 0 -91 15.5t-64.5 40t-40.5 57.5t-22 65.5t-6 66.5q0 275 254 277v-56q-33 -3 -52 -6.5t-46.5 -17t-42.5 -35t-26.5 -62.5t-11.5 -98q0 -89 37.5 -140
t117.5 -51q72 0 104.5 43t32.5 100v151h66v-155q0 -56 33 -97.5t105 -41.5q44 0 75 16.5t48 45.5t24.5 62.5t7.5 74.5q0 32 -4 59t-8.5 46.5t-15.5 35.5t-18.5 26t-24 18t-24.5 12t-28 7t-27.5 4t-28.5 3v56q52 0 93.5 -11.5t79.5 -39.5t59 -83t21 -134zM612 700l-144 -145
h-43l78 145h109z" />
    <glyph glyph-name="afii10023" unicode="&#x401;" horiz-adv-x="833" 
d="M617 798h-73v96h73v-96zM294 798h-73v96h73v-96zM788 0h-705v706h676v-58h-607v-248h561v-60h-561v-281h636v-59z" />
    <glyph glyph-name="afii10051" unicode="&#x402;" horiz-adv-x="950" 
d="M686 646h-303v-257q168 28 255 28q150 0 212 -46q74 -56 74 -164q0 -74 -37 -131q-31 -47 -83 -61.5t-123 -14.5h-101v60h108q77 0 112 26q51 38 51 119q0 70 -40 108q-22 20 -55.5 30.5t-58 12t-64.5 1.5q-119 0 -250 -28v-329h-68v646h-316v60h687v-60z" />
    <glyph glyph-name="afii10052" unicode="&#x403;" horiz-adv-x="668" 
d="M667 706v-60h-516v-646h-68v706h584zM525 900l-150 -126h-45l84 126h111z" />
    <glyph glyph-name="afii10053" unicode="&#x404;" horiz-adv-x="828" 
d="M570 330h-453q7 -116 87 -194q91 -91 238 -91q197 0 304 174l61 -29q-45 -79 -111 -128q-109 -80 -258 -80q-148 0 -247 72q-72 53 -111 132t-39 170q0 133 82 231q38 45 85.5 76t94 43.5t77 17t59.5 4.5q165 0 276 -101q35 -31 74 -93l-60 -33q-24 43 -57 75.5
t-63.5 48.5t-66 26t-57.5 12t-44 2q-147 0 -240 -95q-70 -72 -82 -180h451v-60z" />
    <glyph glyph-name="afii10054" unicode="&#x405;" horiz-adv-x="812" 
d="M32 177l74 28q8 -21 14 -34t29 -40.5t53 -44t85.5 -30.5t126.5 -14q113 0 195 43.5t82 120.5q0 21 -7 37.5t-16.5 28t-30 21t-35.5 15t-45.5 11.5t-48 8.5t-54.5 7.5l-154 21q-213 28 -213 164q0 89 85.5 147t239.5 58q30 0 60 -3.5t81.5 -15t102 -42.5t87.5 -78l-64 -34
q-81 113 -272 113q-100 0 -173.5 -36t-73.5 -106q0 -22 10.5 -38.5t25 -26.5t42 -18t49 -12t58.5 -9q25 -4 71 -10t66 -9t53 -8.5t50.5 -9.5t38 -9.5t35.5 -12.5q49 -21 77 -60t28 -90q0 -58 -33 -105q-87 -123 -334 -123q-25 0 -55.5 3t-77.5 12.5t-93.5 32.5t-78.5 57
q-27 28 -60 90z" />
    <glyph glyph-name="afii10055" unicode="&#x406;" horiz-adv-x="229" 
d="M149 0h-67v706h67v-706z" />
    <glyph glyph-name="afii10056" unicode="&#x407;" horiz-adv-x="260" 
d="M234 798h-73v96h73v-96zM99 798h-73v96h73v-96zM164 0h-68v706h68v-706z" />
    <glyph glyph-name="afii10057" unicode="&#x408;" horiz-adv-x="625" 
d="M492 706h66v-436q0 -91 -26 -155.5t-97 -100.5q-64 -32 -146 -32q-104 0 -176 47q-69 44 -107 144l70 26q13 -52 43 -86.5t68.5 -47.5t61.5 -16.5t45 -3.5q108 0 155 62q43 56 43 209v390z" />
    <glyph glyph-name="afii10058" unicode="&#x409;" horiz-adv-x="1396" 
d="M668 0v646h-436v-100q0 -134 -4.5 -219t-16 -153t-34 -103.5t-55.5 -53t-84 -17.5h-26v60h26q51 0 77 41.5t37.5 144t11.5 300.5v160h572v-307h375q128 0 187 -46q72 -56 72 -155q0 -68 -37 -122q-31 -47 -83 -61.5t-123 -14.5h-459zM736 339v-279h398q75 0 112 26
q51 36 51 112q0 63 -38 99q-21 19 -54 29t-55.5 11.5t-62.5 1.5h-351z" />
    <glyph glyph-name="afii10059" unicode="&#x40a;" horiz-adv-x="1416" 
d="M688 0v339h-537v-339h-68v706h68v-307h537v307h68v-307h375q128 0 187 -46q72 -56 72 -155q0 -68 -37 -122q-31 -47 -83 -61.5t-123 -14.5h-459zM756 339v-279h398q75 0 112 26q51 36 51 112q0 63 -38 99q-21 19 -54 29t-55.5 11.5t-62.5 1.5h-351z" />
    <glyph glyph-name="afii10060" unicode="&#x40b;" horiz-adv-x="972" 
d="M686 646h-303v-257q168 28 255 28q154 0 217.5 -49t63.5 -142v-226h-68v203q0 84 -51 119t-167 35q-119 0 -250 -28v-329h-68v646h-316v60h687v-60z" />
    <glyph glyph-name="afii10061" unicode="&#x40c;" horiz-adv-x="820" 
d="M83 706h68v-300h275q70 0 116.5 18t71 52.5t37 68t27.5 83t30 78.5h74q-18 -29 -33.5 -72.5t-27 -79t-28.5 -71t-47 -62.5t-73 -41q55 -11 91 -41.5t54 -74t29.5 -87.5t27 -94.5t37.5 -82.5h-74q-19 25 -32.5 65t-20 76t-22 74.5t-38.5 66.5t-70.5 46t-115.5 18h-288
v-346h-68v706zM526 900l-150 -126h-45l84 126h111z" />
    <glyph glyph-name="afii10062" unicode="&#x40e;" horiz-adv-x="728" 
d="M388 226l260 480h74l-282 -510q-44 -80 -67.5 -114t-50.5 -55q-46 -35 -130 -35q-34 0 -82 8v60q48 -8 80 -8q34 0 59 7.5t44 27t28 32t27 41.5l-342 546h84zM492 897l56 -16q-8 -34 -28.5 -57.5t-48.5 -33.5t-49.5 -13.5t-43.5 -3.5t-43 3.5t-48.5 13.5t-48.5 33.5
t-30 57.5l56 16q5 -26 31 -48t83 -22t83.5 22t30.5 48z" />
    <glyph glyph-name="afii10145" unicode="&#x40f;" horiz-adv-x="880" 
d="M797 706v-706h-324v-160h-66v160h-324v706h68v-646h578v646h68z" />
    <glyph glyph-name="afii10017" unicode="&#x410;" horiz-adv-x="792" 
d="M786 0h-73l-91 183h-455l-90 -183h-71l348 706h76zM594 239l-202 404l-198 -404h400z" />
    <glyph glyph-name="afii10018" unicode="&#x411;" horiz-adv-x="900" 
d="M82 706h706v-60h-638v-247h449q128 0 187 -46q72 -56 72 -155q0 -68 -37 -122q-31 -47 -83 -61.5t-123 -14.5h-533v706zM150 339v-279h472q75 0 112 26q51 36 51 112q0 63 -38 99q-21 19 -54 29t-55.5 11.5t-62.5 1.5h-425z" />
    <glyph glyph-name="afii10019" unicode="&#x412;" horiz-adv-x="917" 
d="M82 706h553q99 0 154 -75q33 -45 33 -102q0 -65 -36 -105t-87 -50q74 -6 116.5 -58t42.5 -124q0 -102 -71 -153q-54 -39 -155 -39h-550v706zM151 649v-250h431q48 0 81.5 9t58.5 39q27 32 27 78q0 39 -19 70q-22 34 -55 44t-83 10h-441zM151 339v-280h482q102 0 137 64
q18 33 18 69q0 51 -27 87q-20 27 -54.5 41t-61 16.5t-69.5 2.5h-425z" />
    <glyph glyph-name="afii10020" unicode="&#x413;" horiz-adv-x="668" 
d="M667 706v-60h-516v-646h-68v706h584z" />
    <glyph glyph-name="afii10021" unicode="&#x414;" horiz-adv-x="932" 
d="M789 706v-646h100v-210h-66v150h-744v-150h-66v210h14q21 0 50.5 29.5t59 82t50 140t20.5 188.5v206h582zM273 646v-87q0 -354 -141 -499h589v586h-448z" />
    <glyph glyph-name="afii10022" unicode="&#x415;" horiz-adv-x="833" 
d="M788 0h-705v706h676v-60h-608v-246h562v-60h-562v-280h637v-60z" />
    <glyph glyph-name="afii10024" unicode="&#x416;" horiz-adv-x="1040" 
d="M554 706v-300h112q63 0 104.5 18t63.5 52.5t33.5 68t25 83t26.5 78.5h74q-20 -34 -39 -92t-32 -99t-46 -80.5t-83 -54.5q68 -13 109 -59.5t54.5 -97t32.5 -118.5t43 -105h-74q-19 25 -32.5 65t-20 76t-22 74.5t-38.5 66.5t-70.5 46t-115.5 18h-105v-346h-68v346h-105
q-68 0 -115.5 -18t-70.5 -46t-38.5 -66.5t-22 -74.5t-20 -76t-32.5 -65h-74q24 37 43 105t32.5 118.5t54.5 97t109 59.5q-50 15 -83 54.5t-46 80.5t-32 99t-39 92h74q13 -29 26.5 -78.5t25 -83t33.5 -68t63.5 -52.5t104.5 -18h112v300h68z" />
    <glyph glyph-name="afii10025" unicode="&#x417;" horiz-adv-x="810" 
d="M120 537l-64 34q60 154 343 154q325 0 325 -191q0 -61 -34.5 -103t-97.5 -57q68 -5 114 -45.5t46 -118.5q0 -58 -33 -105q-87 -123 -334 -123q-204 0 -305 105q-27 28 -60 90l74 28q6 -16 17 -33.5t36 -41.5t57 -43t84 -32t114 -13q113 0 195 43t82 121q0 50 -27 82
q-20 23 -52.5 35t-58.5 14t-67 2h-220v60h228q46 0 79 12q91 35 91 116q0 138 -258 138q-63 0 -115.5 -10.5t-97 -40.5t-61.5 -77z" />
    <glyph glyph-name="afii10026" unicode="&#x418;" horiz-adv-x="900" 
d="M83 0v706h68v-555l598 490v65h68v-706h-68v565l-598 -490v-75h-68z" />
    <glyph glyph-name="afii10027" unicode="&#x419;" horiz-adv-x="900" 
d="M83 0v706h68v-555l598 490v65h68v-706h-68v565l-598 -490v-75h-68zM584 897l60 -22q-15 -40 -51 -66t-71 -34t-72 -8q-26 0 -52 4.5t-55 15.5t-52.5 33.5t-34.5 54.5l60 22q34 -70 134 -70q59 0 92.5 21t41.5 49z" />
    <glyph glyph-name="afii10028" unicode="&#x41a;" horiz-adv-x="820" 
d="M83 706h68v-300h275q70 0 116.5 18t71 52.5t37 68t27.5 83t30 78.5h74q-18 -29 -33.5 -72.5t-27 -79t-28.5 -71t-47 -62.5t-73 -41q55 -11 91 -41.5t54 -74t29.5 -87.5t27 -94.5t37.5 -82.5h-74q-19 25 -32.5 65t-20 76t-22 74.5t-38.5 66.5t-70.5 46t-115.5 18h-288
v-346h-68v706z" />
    <glyph glyph-name="afii10029" unicode="&#x41b;" horiz-adv-x="820" 
d="M737 0h-68v646h-436v-100q0 -134 -4.5 -219t-16 -153t-34 -103.5t-55.5 -53t-84 -17.5h-26v60h26q51 0 77 41t37.5 143.5t11.5 301.5v160h572v-706z" />
    <glyph glyph-name="afii10030" unicode="&#x41c;" horiz-adv-x="938" 
d="M857 0h-63v626l-288 -626h-70l-290 620v-620h-64v706h90l301 -642l296 642h88v-706z" />
    <glyph glyph-name="afii10031" unicode="&#x41d;" horiz-adv-x="896" 
d="M812 0h-67v345h-593v-345h-69v706h69v-302h593v302h67v-706z" />
    <glyph glyph-name="afii10032" unicode="&#x41e;" horiz-adv-x="917" 
d="M42 354q0 89 35 162t94.5 118.5t133 69.5t153.5 24q26 0 51 -2t70.5 -12t84 -27.5t82 -52.5t73.5 -83q57 -91 57 -196q0 -131 -81 -229q-40 -48 -91.5 -80t-102.5 -44.5t-83 -16.5t-62 -4q-25 0 -51 2t-73.5 13t-87.5 30t-83.5 57t-72.5 89q-46 82 -46 182zM799 369
q0 125 -92 211.5t-250 86.5q-131 0 -219 -65q-45 -33 -83.5 -95.5t-38.5 -155.5q0 -64 23 -121q20 -51 56.5 -88.5t72 -56t78.5 -29.5t67.5 -13t46.5 -2q89 0 156.5 28.5t106 76t57.5 104t19 119.5z" />
    <glyph glyph-name="afii10033" unicode="&#x41f;" horiz-adv-x="880" 
d="M797 0h-68v646h-578v-646h-68v706h714v-706z" />
    <glyph glyph-name="afii10034" unicode="&#x420;" horiz-adv-x="812" 
d="M82 0v706h469q71 0 123 -14.5t83 -61.5q37 -51 37 -117q0 -96 -72 -151q-59 -46 -187 -46h-385v-316h-68zM150 376h366q121 0 167 42q38 36 38 95q0 71 -51 107q-37 26 -112 26h-408v-270z" />
    <glyph glyph-name="afii10035" unicode="&#x421;" horiz-adv-x="827" 
d="M789 534l-60 -33q-24 43 -57 75.5t-63.5 48.5t-66 26t-57.5 12t-44 2q-147 0 -240 -95q-85 -87 -85 -219q0 -129 88 -216q91 -91 238 -91q201 0 304 175l61 -29q-45 -79 -111 -128q-109 -80 -258 -80q-148 0 -247 72q-72 53 -111 132t-39 170q0 133 82 231q38 45 85.5 76
t94 43.5t77 17t59.5 4.5q165 0 276 -101q35 -31 74 -93z" />
    <glyph glyph-name="afii10036" unicode="&#x422;" horiz-adv-x="688" 
d="M686 646h-303v-646h-68v646h-316v60h687v-60z" />
    <glyph glyph-name="afii10037" unicode="&#x423;" horiz-adv-x="728" 
d="M388 226l260 480h74l-282 -510q-44 -80 -67.5 -114t-50.5 -55q-46 -35 -130 -35q-34 0 -82 8v60q48 -8 80 -8q34 0 59 7.5t44 27t28 32t27 41.5l-342 546h84z" />
    <glyph glyph-name="afii10038" unicode="&#x424;" horiz-adv-x="1000" 
d="M534 726v-89q110 0 190.5 -17.5t124.5 -43.5t70 -65t33 -72.5t7 -75.5q0 -29 -3.5 -53.5t-14.5 -53.5t-29.5 -52t-51 -45.5t-76 -37t-107.5 -23.5t-143 -9v-99h-68v99q-111 0 -191.5 16t-125 40.5t-69.5 63.5t-32 73t-7 81q0 42 7 75.5t33 72.5t70 65t124.5 43.5
t190.5 17.5v89h68zM466 149v428q-106 0 -177.5 -15t-108.5 -45.5t-51.5 -66.5t-14.5 -86q0 -51 14.5 -87.5t52 -67t108.5 -45.5t177 -15zM534 577v-428q106 0 177 15t108.5 45.5t52 67t14.5 87.5q0 50 -14.5 86t-51.5 66.5t-108.5 45.5t-177.5 15z" />
    <glyph glyph-name="afii10039" unicode="&#x425;" horiz-adv-x="729" 
d="M740 0h-87l-293 315l-272 -315h-84l313 362l-321 344h87l277 -296l257 296h84l-299 -344z" />
    <glyph glyph-name="afii10040" unicode="&#x426;" horiz-adv-x="940" 
d="M797 706v-646h100v-210h-66v150h-748v706h68v-646h578v646h68z" />
    <glyph glyph-name="afii10041" unicode="&#x427;" horiz-adv-x="780" 
d="M697 706v-706h-68v287q-194 -28 -295 -28q-154 0 -217.5 49t-63.5 142v256h68v-233q0 -84 51 -119t167 -35q137 0 290 28v359h68z" />
    <glyph glyph-name="afii10042" unicode="&#x428;" horiz-adv-x="1170" 
d="M619 706v-646h400v646h68v-706h-1004v706h68v-646h400v646h68z" />
    <glyph glyph-name="afii10043" unicode="&#x429;" horiz-adv-x="1230" 
d="M619 706v-646h400v646h68v-646h100v-210h-66v150h-1038v706h68v-646h400v646h68z" />
    <glyph glyph-name="afii10044" unicode="&#x42a;" horiz-adv-x="1000" 
d="M290 706v-307h425q128 0 187 -46q72 -56 72 -155q0 -68 -37 -122q-31 -47 -83 -61.5t-123 -14.5h-509v646h-212v60h280zM290 339v-279h448q75 0 112 26q51 36 51 112q0 63 -38 99q-21 19 -54 29t-55.5 11.5t-62.5 1.5h-401z" />
    <glyph glyph-name="afii10045" unicode="&#x42b;" horiz-adv-x="1020" 
d="M83 706h68v-307h375q128 0 187 -46q72 -56 72 -155q0 -68 -37 -122q-31 -47 -83 -61.5t-123 -14.5h-459v706zM151 339v-279h398q75 0 112 26q51 36 51 112q0 63 -38 99q-21 19 -54 29t-55.5 11.5t-62.5 1.5h-351zM937 0h-68v706h68v-706z" />
    <glyph glyph-name="afii10046" unicode="&#x42c;" horiz-adv-x="860" 
d="M82 706h68v-307h425q128 0 187 -46q72 -56 72 -155q0 -68 -37 -122q-31 -47 -83 -61.5t-123 -14.5h-509v706zM150 339v-279h448q75 0 112 26q51 36 51 112q0 63 -38 99q-21 19 -54 29t-55.5 11.5t-62.5 1.5h-401z" />
    <glyph glyph-name="afii10047" unicode="&#x42d;" horiz-adv-x="828" 
d="M258 330v60h451q-12 108 -82 180q-96 98 -240 98q-22 0 -44 -2t-57.5 -12t-66 -26t-63.5 -48.5t-57 -75.5l-60 30q39 62 74 93q111 101 276 101q29 0 59.5 -4.5t77 -17t94 -43.5t85.5 -76q82 -98 82 -231q0 -91 -39 -170t-111 -132q-99 -72 -247 -72q-149 0 -258 80
q-66 49 -111 128l61 29q108 -177 304 -177q43 0 72.5 3t78.5 24t89 61q77 76 85 200h-453z" />
    <glyph glyph-name="afii10048" unicode="&#x42e;" horiz-adv-x="1220" 
d="M151 404h197q19 153 138 238.5t275 85.5q26 0 51 -2t70.5 -12t84 -27.5t82 -52.5t73.5 -83q53 -84 53 -196q0 -136 -77 -229q-40 -48 -91.5 -80t-102.5 -44.5t-83 -16.5t-62 -4q-25 0 -51 2t-73.5 13t-87.5 30t-83.5 57t-72.5 89q-46 82 -46 172h-194v-344h-68v706h68
v-302zM419 351q0 -70 23 -121q24 -54 68 -94t92.5 -59t88.5 -27.5t72 -8.5q89 0 156.5 27t106 72.5t57.5 100.5t19 118q0 125 -94 217t-248 92q-136 0 -221 -63q-44 -32 -82 -96.5t-38 -157.5z" />
    <glyph glyph-name="afii10049" unicode="&#x42f;" horiz-adv-x="880" 
d="M797 706v-706h-68v311h-300q-79 0 -128 -20t-72 -55.5t-35.5 -73.5t-31.5 -84.5t-48 -77.5h-88q29 23 50.5 64t35 81.5t30.5 79.5t48.5 67t78.5 34q-179 1 -179 170q0 101 64.5 155.5t175.5 54.5h467zM729 371v275h-386q-85 0 -132.5 -37t-47.5 -110q0 -35 11.5 -59.5
t27.5 -37.5t44 -20.5t51.5 -9t58.5 -1.5h373z" />
    <glyph glyph-name="afii10065" unicode="&#x430;" horiz-adv-x="667" 
d="M666 0q-34 -4 -66 -4q-17 0 -30 5t-20.5 11.5t-13 17t-7.5 17t-3 15.5l-2 10q-31 -23 -54 -36q-90 -49 -208 -49q-134 0 -188 65q-33 40 -33 96q0 79 62 122q48 33 143 42.5t278 11.5q0 51 -17 75q-35 49 -187 49q-74 0 -116.5 -13t-58.5 -32.5t-28 -56.5l-70 4
q24 88 90 123q65 35 177 35q180 0 238 -64q33 -38 33 -109v-217q0 -40 14.5 -53.5t49.5 -13.5h17v-51zM524 268h-31q-212 0 -296.5 -26t-84.5 -96q0 -53 48 -76.5t110 -23.5q59 0 132.5 23.5t103.5 74.5q18 32 18 98v26z" />
    <glyph glyph-name="afii10066" unicode="&#x431;" 
d="M552 735h63q0 -126 -208 -126q-140 0 -212.5 -56t-88.5 -179q32 58 102.5 89t151.5 31q139 0 216 -57q88 -64 88 -188q0 -97 -66 -169q-87 -94 -246 -94q-148 0 -228.5 72.5t-80.5 215.5q0 93 15.5 160.5t43.5 111t76.5 71t104.5 40t136 18.5q28 2 48 5t41.5 9t32.5 17.5
t11 28.5zM591 247q0 93 -62 143t-160 50q-52 0 -99 -11.5t-71 -29.5q-81 -60 -81 -153q0 -72 40 -124q32 -41 84.5 -61.5t108.5 -20.5q130 0 194 73q46 52 46 134z" />
    <glyph glyph-name="afii10067" unicode="&#x432;" horiz-adv-x="660" 
d="M72 494h384q75 0 112.5 -35t37.5 -92q0 -79 -88 -107q106 -18 106 -122q0 -67 -48.5 -102.5t-129.5 -35.5h-374v494zM138 440v-156h286q114 0 114 79q0 77 -110 77h-290zM138 230v-176h284q29 0 50 3t41.5 11t31.5 26t11 45q0 49 -36 70t-119 21h-263z" />
    <glyph glyph-name="afii10068" unicode="&#x433;" horiz-adv-x="540" 
d="M528 494v-54h-390v-440h-66v494h456z" />
    <glyph glyph-name="afii10069" unicode="&#x434;" horiz-adv-x="720" 
d="M590 54h90v-174h-62v120h-546v-120h-62v174q76 21 105.5 108.5t30.5 237.5v94h444v-440zM524 440h-316v-40q0 -134 -23 -225t-66 -121h405v386z" />
    <glyph glyph-name="afii10070" unicode="&#x435;" horiz-adv-x="667" 
d="M575 172l52 -37q-43 -62 -99 -98q-81 -50 -184 -50q-115 0 -194 51q-103 68 -103 215q0 114 82 185q29 26 85.5 49t125.5 23q144 0 218 -85q66 -76 69 -185h-511q0 -90 67 -141.5t168 -51.5q149 0 224 125zM118 294h429q-15 72 -70 118q-46 38 -145 38q-97 0 -154 -48
q-50 -42 -60 -108z" />
    <glyph glyph-name="afii10072" unicode="&#x436;" horiz-adv-x="840" 
d="M389 494h62v-202h116q47 0 72 22.5t30 51t14 67.5t25 61h71q-21 -30 -32.5 -68.5t-14.5 -65.5t-21 -53.5t-53 -39.5q38 -5 60 -24t30.5 -48t13 -60t15 -69t29.5 -66h-70q-15 19 -22.5 52t-12.5 63.5t-17 59t-43 46t-83 17.5h-107v-238h-62v238h-107q-52 0 -83 -17.5
t-43 -46t-17 -59t-12.5 -63.5t-22.5 -52h-70q23 33 35 80t16.5 79.5t27.5 63.5t69 44q-35 13 -53 39.5t-21 53.5t-14.5 65.5t-32.5 68.5h71q16 -22 25 -61t14 -67.5t30 -51t72 -22.5h116v202z" />
    <glyph glyph-name="afii10073" unicode="&#x437;" horiz-adv-x="624" 
d="M221 238v54h150q39 0 71 8q58 21 58 63q0 24 -12.5 40.5t-29 25t-44 13t-45.5 5.5t-45 1q-165 0 -204 -86l-73 20q60 126 277 126q134 0 189 -33.5t55 -104.5q0 -76 -88 -102q49 -11 78.5 -41t29.5 -80q0 -17 -3 -32.5t-18 -40t-41 -42.5t-77.5 -31t-120.5 -13
q-253 0 -298 134l72 16q16 -42 71 -66q60 -24 153 -24q89 0 141.5 25t52.5 74q0 91 -154 91h-145z" />
    <glyph glyph-name="afii10074" unicode="&#x438;" horiz-adv-x="712" 
d="M640 0h-66v375l-436 -315v-60h-66v494h66v-364l436 315v49h66v-494z" />
    <glyph glyph-name="afii10075" unicode="&#x439;" horiz-adv-x="712" 
d="M640 0h-66v375l-436 -315v-60h-66v494h66v-364l436 315v49h66v-494zM452 682l58 -10q-7 -48 -36 -76t-57 -35t-61 -7t-61 7t-57 35t-36 76l58 10q4 -27 26 -50.5t70 -23.5t70 23.5t26 50.5z" />
    <glyph glyph-name="afii10076" unicode="&#x43a;" horiz-adv-x="660" 
d="M138 494v-202h249q46 0 71.5 22.5t32 51t17 67.5t27.5 61h71q-23 -30 -36 -68.5t-18 -65.5t-22.5 -53.5t-51.5 -39.5q42 -7 64.5 -36t28 -64t19 -84t36.5 -83h-70q-17 22 -27.5 67t-17 80t-39.5 63t-94 28h-240v-238h-66v494h66z" />
    <glyph glyph-name="afii10077" unicode="&#x43b;" horiz-adv-x="680" 
d="M608 0h-66v440h-341v-78q0 -202 -33 -282t-128 -80h-30v54h30q40 1 61.5 28.5t30.5 92.5t9 187v132h467v-494z" />
    <glyph glyph-name="afii10078" unicode="&#x43c;" horiz-adv-x="726" 
d="M650 0h-60v435l-201 -435h-50l-202 433v-433h-60v494h98l190 -429l187 429h98v-494z" />
    <glyph glyph-name="afii10079" unicode="&#x43d;" horiz-adv-x="700" 
d="M628 0h-66v238h-424v-238h-66v494h66v-202h424v202h66v-494z" />
    <glyph glyph-name="afii10080" unicode="&#x43e;" 
d="M43 247q0 49 15.5 90t40.5 68.5t46 43t43 26.5q70 35 172 35q131 0 212 -67q53 -44 72.5 -100t19.5 -100q0 -75 -41 -134q-34 -49 -101 -86t-170 -37q-42 0 -78 7q-126 23 -188 113q-43 63 -43 141zM590 247q0 97 -68 153t-167 56q-87 0 -151 -42q-86 -57 -86 -168
q0 -72 40 -124q32 -41 84 -60.5t109 -19.5q127 0 193 75q46 53 46 130z" />
    <glyph glyph-name="afii10081" unicode="&#x43f;" horiz-adv-x="700" 
d="M628 0h-66v440h-424v-440h-66v494h556v-494z" />
    <glyph glyph-name="afii10082" unicode="&#x440;" 
d="M138 494v-77q25 30 62 50.5t74.5 28t60 10t42.5 2.5q81 0 148 -33.5t103 -100.5q31 -56 31 -126q0 -112 -73 -182q-80 -78 -224 -78q-52 0 -101 13.5t-76 33.5q-30 22 -47 41v-263h-64v681h64zM586 249q0 46 -20 89q-51 110 -205 110q-116 0 -169 -57.5t-53 -148.5
q0 -87 48 -134q63 -60 171 -60q134 0 189 74q39 52 39 127z" />
    <glyph glyph-name="afii10083" unicode="&#x441;" horiz-adv-x="667" 
d="M582 193l66 -25q-40 -65 -75 -98q-87 -81 -236 -81q-61 0 -111 15q-27 8 -53 22.5t-59 42t-53.5 74.5t-20.5 107q0 101 65 170q43 46 109 70t134 24q196 0 290 -158l-66 -27q-9 19 -35 48t-53 45q-57 35 -138 35q-76 0 -127.5 -29.5t-75.5 -71.5q-29 -47 -29 -105
q0 -99 69.5 -151.5t160.5 -52.5q50 0 101.5 18t84.5 50q26 26 52 78z" />
    <glyph glyph-name="afii10084" unicode="&#x442;" horiz-adv-x="560" 
d="M548 440h-235v-440h-66v440h-235v54h536v-54z" />
    <glyph glyph-name="afii10085" unicode="&#x443;" horiz-adv-x="562" 
d="M489 494h71l-233 -532q-16 -38 -24.5 -55t-21.5 -36t-29 -31q-43 -34 -139 -34q-49 0 -102 12v62q52 -18 100 -18q39 0 66 8.5t44 27t25 33.5t19 42l-265 521h79l221 -448z" />
    <glyph glyph-name="afii10086" unicode="&#x444;" horiz-adv-x="800" 
d="M433 706v-212q68 0 123.5 -12.5t102 -40t72 -77t25.5 -117.5t-25.5 -117.5t-72 -77t-102 -40t-123.5 -12.5v-187h-66v187q-68 0 -123.5 12.5t-102 40t-72 77t-25.5 117.5t25.5 117.5t72 77t102 40t123.5 12.5v212h66zM367 54v386q-139 -6 -194.5 -55t-55.5 -140
q0 -87 56 -136t194 -55zM433 440v-386q138 6 194 54.5t56 135.5q0 91 -55.5 140.5t-194.5 55.5z" />
    <glyph glyph-name="afii10087" unicode="&#x445;" horiz-adv-x="562" 
d="M566 0h-87l-198 211l-198 -211h-87l244 257l-229 237h89l181 -192l181 192h85l-226 -237z" />
    <glyph glyph-name="afii10088" unicode="&#x446;" horiz-adv-x="760" 
d="M628 494v-440h92v-174h-62v120h-586v494h66v-440h424v440h66z" />
    <glyph glyph-name="afii10089" unicode="&#x447;" horiz-adv-x="620" 
d="M110 494v-143q0 -36 15.5 -60t44.5 -35t57 -15t65 -4q82 0 190 19v238h66v-494h-66v202q-101 -19 -191 -19q-247 0 -247 158v153h66z" />
    <glyph glyph-name="afii10090" unicode="&#x448;" horiz-adv-x="920" 
d="M848 494v-494h-776v494h66v-438h289v438h66v-438h289v438h66z" />
    <glyph glyph-name="afii10091" unicode="&#x449;" horiz-adv-x="980" 
d="M848 494v-440h92v-174h-62v120h-806v494h66v-438h289v438h66v-438h289v438h66z" />
    <glyph glyph-name="afii10092" unicode="&#x44a;" horiz-adv-x="724" 
d="M176 0v440h-164v54h230v-196h210q49 0 79 -2t66 -10t56 -23.5t33.5 -44t13.5 -70.5q0 -69 -42 -108.5t-111 -39.5h-371zM242 54h244q80 0 114 17t34 79q0 31 -10.5 50.5t-33.5 28.5t-47.5 12t-64.5 3h-236v-190z" />
    <glyph glyph-name="afii10093" unicode="&#x44b;" horiz-adv-x="780" 
d="M72 0v494h66v-196h180q49 0 77.5 -1.5t65 -9.5t55.5 -23.5t32.5 -44.5t13.5 -71q0 -75 -39.5 -111.5t-109.5 -36.5h-341zM138 54h214q77 0 109.5 17t32.5 79q0 59 -36 76.5t-114 17.5h-206v-190zM708 0h-66v494h66v-494z" />
    <glyph glyph-name="afii10094" unicode="&#x44c;" horiz-adv-x="620" 
d="M72 0v494h66v-196h210q47 0 78.5 -2t66.5 -10.5t55.5 -24.5t34 -44.5t13.5 -68.5q0 -74 -41.5 -111t-111.5 -37h-371zM138 54h244q33 0 51.5 1t40 6t32 15t17.5 28t7 44q0 54 -40 75t-116 21h-236v-190z" />
    <glyph glyph-name="afii10095" unicode="&#x44d;" horiz-adv-x="667" 
d="M225 293h324q-7 34 -25 63q-24 41 -75.5 69.5t-127.5 28.5q-136 0 -198 -86l-57 38q41 56 113.5 82t147.5 26q67 0 129.5 -24t105.5 -70q65 -69 65 -170q0 -60 -20.5 -107t-53.5 -74.5t-59 -42t-53 -22.5q-50 -15 -111 -15q-80 0 -156 32t-129 103l66 29
q31 -51 90.5 -77.5t127.5 -26.5q88 0 156 47.5t68 142.5h-328v54z" />
    <glyph glyph-name="afii10096" unicode="&#x44e;" horiz-adv-x="960" 
d="M138 292h161q17 101 102.5 159.5t210.5 58.5q142 0 220 -69q51 -44 67.5 -91t16.5 -107q0 -75 -41 -134q-34 -49 -101 -86t-170 -37q-135 0 -220 67.5t-89 184.5h-157v-238h-66v494h66v-202zM843 247q0 52 -20 92t-54.5 63.5t-75 35.5t-86.5 12q-92 0 -151 -36
q-33 -20 -60.5 -62t-27.5 -106q0 -21 10 -56t34 -66q61 -78 191 -78t193 71q47 52 47 130z" />
    <glyph glyph-name="afii10097" unicode="&#x44f;" horiz-adv-x="620" 
d="M482 200h-211q-51 0 -81 -23t-38.5 -52.5t-22 -67.5t-32.5 -57h-75q23 19 38.5 55t23.5 67.5t28.5 59.5t53.5 35q-51 10 -72 38t-21 79q0 75 44.5 117.5t131.5 42.5h299v-494h-66v200zM482 440h-236q-41 0 -74 -25.5t-33 -79.5q0 -47 29.5 -64t79.5 -17h234v186z" />
    <glyph glyph-name="afii10071" unicode="&#x451;" horiz-adv-x="667" 
d="M503 569h-70v96h70v-96zM237 569h-70v96h70v-96zM575 172l52 -37q-43 -62 -99 -98q-81 -50 -184 -50q-102 0 -180 52q-55 36 -86 94t-31 125q0 114 79 182q29 26 81.5 48t121.5 22q137 0 222 -87q71 -71 76 -183h-511q6 -92 73 -143.5t162 -51.5q148 0 224 127zM118 296
h429q-16 77 -84 121q-58 37 -139 37q-91 0 -146 -52q-48 -46 -60 -106z" />
    <glyph glyph-name="afii10099" unicode="&#x452;" 
d="M634 219v-273q0 -21 -1 -35t-8.5 -35t-20.5 -33.5t-39.5 -22.5t-63.5 -10q-45 0 -93 12v60q42 -13 78 -13q27 0 44.5 6.5t25 18.5t10 23.5t2.5 27.5v262q0 102 -50 144q-52 45 -164 45q-105 0 -167 -54q-31 -27 -41 -54t-10 -68v-220h-66v571h-61v51h61v84h66v-84h253
v-51h-253v-208q23 40 86 66.5t149 26.5q73 0 142 -24.5t99 -88.5q22 -45 22 -124z" />
    <glyph glyph-name="afii10100" unicode="&#x453;" horiz-adv-x="540" 
d="M528 494v-54h-390v-440h-66v494h456zM441 700l-144 -145h-43l78 145h109z" />
    <glyph glyph-name="afii10101" unicode="&#x454;" horiz-adv-x="667" 
d="M442 292v-54h-328q3 -65 40.5 -109.5t86 -62t103.5 -17.5q51 0 102 17t84 49q26 26 52 78l66 -25q-40 -65 -75 -98q-87 -81 -236 -81q-61 0 -111 15q-27 8 -53 22.5t-59 42t-53.5 74.5t-20.5 107q0 101 65 170q43 46 109 70t134 24q192 0 290 -158l-66 -27
q-8 17 -34.5 44t-53.5 43q-62 38 -138 38t-127.5 -28.5t-75.5 -69.5q-17 -28 -25 -64h324z" />
    <glyph glyph-name="afii10102" unicode="&#x455;" horiz-adv-x="625" 
d="M577 392l-73 -15q-13 22 -21 29q-27 23 -80 33.5t-102 10.5q-27 0 -53 -3t-57.5 -11.5t-51 -28.5t-19.5 -48q0 -19 13 -35.5t33 -21.5q18 -5 96 -10q18 -1 57.5 -3t54 -3t42.5 -3.5t42 -5t31 -7.5t29 -11q70 -35 70 -111q0 -16 -4 -33t-20.5 -41t-42.5 -42t-76.5 -31
t-116.5 -13q-254 0 -298 134l72 16q16 -42 71 -66q60 -24 153 -24q84 0 139.5 25.5t55.5 73.5q0 62 -136 71q-35 2 -82.5 4t-72.5 3.5t-52.5 5t-45.5 10.5q-11 4 -22 11t-25.5 19.5t-23.5 34t-9 47.5q0 56 36 92t90 49.5t127 13.5q223 0 272 -116z" />
    <glyph glyph-name="afii10103" unicode="&#x456;" horiz-adv-x="208" 
d="M137 582h-66v96h66v-96zM137 0h-66v494h66v-494z" />
    <glyph glyph-name="afii10104" unicode="&#x457;" horiz-adv-x="240" 
d="M218 582h-66v96h66v-96zM88 582h-66v96h66v-96zM153 0h-66v494h66v-494z" />
    <glyph glyph-name="afii10105" unicode="&#x458;" horiz-adv-x="208" 
d="M136 580h-64v97h64v-97zM72 494h64v-548q0 -21 -1 -34.5t-8 -35t-20 -34t-39.5 -22.5t-63.5 -10q-45 0 -93 12v60q42 -13 78 -13q27 0 44.5 6.5t25.5 18.5t10.5 23.5t2.5 27.5v549z" />
    <glyph glyph-name="afii10106" unicode="&#x459;" horiz-adv-x="1040" 
d="M526 0v440h-325v-78q0 -202 -33 -282t-128 -80h-30v54h30q57 1 79 66.5t22 241.5v132h451v-196h176q35 0 56.5 -0.5t50.5 -3.5t46.5 -9t37.5 -17t30.5 -27t18 -39.5t8.5 -53.5q-6 -148 -153 -148h-337zM592 54h210q80 0 114 17t34 79q0 56 -39 75t-117 19h-202v-190z" />
    <glyph glyph-name="afii10107" unicode="&#x45a;" horiz-adv-x="1040" 
d="M520 0v244h-382v-244h-66v494h66v-196h382v196h66v-196h176q54 0 88 -2.5t68 -11t52 -24.5t29 -43.5t11 -68.5q0 -74 -41.5 -111t-111.5 -37h-337zM586 54h210q80 0 114 17t34 79q0 55 -39 74.5t-117 19.5h-202v-190z" />
    <glyph glyph-name="afii10108" unicode="&#x45b;" 
d="M634 219v-219h-65v209q0 100 -50 142q-52 45 -165 45q-105 0 -167 -54q-31 -27 -41 -53t-10 -67v-222h-66v568h-61v54h61v84h66v-84h253v-54h-253v-205q23 40 86 66.5t149 26.5q73 0 142 -24.5t99 -88.5q22 -45 22 -124z" />
    <glyph glyph-name="afii10109" unicode="&#x45c;" horiz-adv-x="660" 
d="M138 494v-202h249q46 0 71.5 22.5t32 51t17 67.5t27.5 61h71q-23 -30 -36 -68.5t-18 -65.5t-22.5 -53.5t-51.5 -39.5q42 -7 64.5 -36t28 -64t19 -84t36.5 -83h-70q-17 22 -27.5 67t-17 80t-39.5 63t-94 28h-240v-238h-66v494h66zM461 700l-144 -145h-43l78 145h109z" />
    <glyph glyph-name="afii10110" unicode="&#x45e;" horiz-adv-x="562" 
d="M489 494h71l-233 -532q-16 -38 -24.5 -55t-21.5 -36t-29 -31q-43 -34 -139 -34q-49 0 -102 12v62q52 -18 100 -18q39 0 66 8.5t44 27t25 33.5t19 42l-265 521h79l221 -448zM384 682l54 -10q-4 -29 -17.5 -51t-30 -33.5t-37 -18.5t-35.5 -9t-30 -2t-30 2t-35.5 9t-37 18.5
t-30 33.5t-17.5 51l54 10q4 -27 26 -50.5t70 -23.5t70 23.5t26 50.5z" />
    <glyph glyph-name="afii10193" unicode="&#x45f;" horiz-adv-x="700" 
d="M628 494v-494h-247v-140h-62v140h-247v494h66v-440h424v440h66z" />
    <glyph glyph-name="afii10050" unicode="&#x490;" horiz-adv-x="668" 
d="M601 706v150h66v-210h-516v-646h-68v706h518z" />
    <glyph glyph-name="afii10098" unicode="&#x491;" horiz-adv-x="540" 
d="M528 440h-390v-440h-66v494h394v120h62v-174z" />
    <glyph glyph-name="Wgrave" unicode="&#x1e80;" horiz-adv-x="1062" 
d="M1059 706l-224 -706h-82l-219 635l-217 -635h-80l-234 706h71l206 -634l218 634h73l223 -634l198 634h67zM594 774h-48l-149 126h111z" />
    <glyph glyph-name="wgrave" unicode="&#x1e81;" horiz-adv-x="854" 
d="M853 494l-200 -494h-63l-163 418l-160 -418h-63l-204 494h71l164 -413l158 413h69l160 -413l163 413h68zM480 554h-43l-142 145h110z" />
    <glyph glyph-name="Wacute" unicode="&#x1e82;" horiz-adv-x="1062" 
d="M1059 706l-224 -706h-82l-219 635l-217 -635h-80l-234 706h71l206 -634l218 634h73l223 -634l198 634h67zM670 900l-150 -126h-45l84 126h111z" />
    <glyph glyph-name="wacute" unicode="&#x1e83;" horiz-adv-x="854" 
d="M853 494l-200 -494h-63l-163 418l-160 -418h-63l-204 494h71l164 -413l158 413h69l160 -413l163 413h68zM563 700l-144 -145h-43l78 145h109z" />
    <glyph glyph-name="Wdieresis" unicode="&#x1e84;" horiz-adv-x="1062" 
d="M1059 706l-224 -706h-82l-219 635l-217 -635h-80l-234 706h71l206 -634l218 634h73l223 -634l198 634h67zM729 798h-73v96h73v-96zM406 798h-73v96h73v-96z" />
    <glyph glyph-name="wdieresis" unicode="&#x1e85;" horiz-adv-x="854" 
d="M853 494l-200 -494h-63l-163 418l-160 -418h-63l-204 494h71l164 -413l158 413h69l160 -413l163 413h68zM594 564h-70v96h70v-96zM329 564h-70v96h70v-96z" />
    <glyph glyph-name="Ygrave" unicode="&#x1ef2;" horiz-adv-x="729" 
d="M723 706l-320 -420v-286h-64v286l-333 420h84l281 -363l272 363h80zM423 774h-48l-149 126h111z" />
    <glyph glyph-name="ygrave" unicode="&#x1ef3;" horiz-adv-x="562" 
d="M489 494h71l-233 -532q-16 -38 -24.5 -55t-21.5 -36t-29 -31q-43 -34 -139 -34q-49 0 -102 12v62q52 -18 100 -18q39 0 66 8.5t44 27t25 33.5t19 42l-265 521h79l221 -448zM333 554h-43l-142 145h110z" />
    <glyph glyph-name="endash" unicode="&#x2013;" horiz-adv-x="610" 
d="M572 264h-534v60h534v-60z" />
    <glyph glyph-name="emdash" unicode="&#x2014;" horiz-adv-x="911" 
d="M873 264h-835v60h835v-60z" />
    <glyph glyph-name="quoteleft" unicode="&#x2018;" horiz-adv-x="271" 
d="M180 491h-84v127q0 89 79 94v-37q-42 -4 -42 -54v-25h47v-105z" />
    <glyph glyph-name="quoteright" unicode="&#x2019;" horiz-adv-x="271" 
d="M92 706h85v-126q0 -88 -79 -93v36q42 4 42 54v25h-48v104z" />
    <glyph glyph-name="quotesinglbase" unicode="&#x201a;" horiz-adv-x="271" 
d="M92 104h85v-126q0 -89 -79 -94v37q42 4 42 54v25h-48v104z" />
    <glyph glyph-name="quotedblleft" unicode="&#x201c;" horiz-adv-x="417" 
d="M321 494h-85v119q0 101 80 101v-40q-39 0 -39 -68v-8h44v-104zM182 494h-85v119q0 101 79 101v-40q-18 0 -27 -13t-10 -24t-1 -30v-9h44v-104z" />
    <glyph glyph-name="quotedblright" unicode="&#x201d;" horiz-adv-x="417" 
d="M235 706h85v-118q0 -101 -80 -101v39q17 0 26.5 13t10.5 24.5t1 30.5v8h-43v104zM95 706h85v-118q0 -101 -79 -101v39q18 0 27 13t10 24t1 31v8h-44v104z" />
    <glyph glyph-name="quotedblbase" unicode="&#x201e;" horiz-adv-x="417" 
d="M235 104h85v-118q0 -102 -80 -102v40q38 0 38 67v9h-43v104zM95 104h85v-118q0 -102 -79 -102v40q38 1 38 67v9h-44v104z" />
    <glyph glyph-name="dagger" unicode="&#x2020;" horiz-adv-x="542" 
d="M505 444h-204v-444h-60v444h-205v52h205v210h60v-210h204v-52z" />
    <glyph glyph-name="daggerdbl" unicode="&#x2021;" horiz-adv-x="542" 
d="M509 220h-208v-220h-60v220h-205v53h205v192h-208v53h208v188h60v-188h208v-53h-208v-192h208v-53z" />
    <glyph glyph-name="bullet" unicode="&#x2022;" horiz-adv-x="334" 
d="M278 244h-222v218h222v-218z" />
    <glyph glyph-name="ellipsis" unicode="&#x2026;" horiz-adv-x="1000" 
d="M872 80v-80h-78v80h78zM538 0h-77v80h77v-80zM205 0h-77v80h77v-80z" />
    <glyph glyph-name="perthousand" unicode="&#x2030;" horiz-adv-x="1563" 
d="M765 688l-399 -688h-53l399 688h53zM448 469q0 -89 -57 -155.5t-155 -66.5q-94 0 -150 68t-56 156q0 102 62.5 161.5t146.5 59.5q67 0 116 -35t71 -84t22 -104zM397 467q0 74 -40.5 127.5t-117.5 53.5q-76 0 -117.5 -50.5t-41.5 -127.5q0 -80 44 -129.5t114 -49.5
q67 0 113 47t46 129zM1050 216q0 -89 -57 -155.5t-155 -66.5q-94 0 -150 68t-56 156q0 102 62.5 161.5t146.5 59.5q67 0 116 -35t71 -84t22 -104zM999 214q0 74 -40.5 127.5t-117.5 53.5q-76 0 -117.5 -50.5t-41.5 -127.5q0 -80 44 -129.5t114 -49.5q67 0 113 47t46 129z
M1530 216q0 -89 -57 -155.5t-155 -66.5q-94 0 -150 68t-56 156q0 102 62.5 161.5t146.5 59.5q67 0 116 -35t71 -84t22 -104zM1479 214q0 74 -40.5 127.5t-117.5 53.5q-76 0 -117.5 -50.5t-41.5 -127.5q0 -80 44 -129.5t114 -49.5q67 0 113 47t46 129z" />
    <glyph glyph-name="guilsinglleft" unicode="&#x2039;" horiz-adv-x="250" 
d="M225 90l-202 175v55l202 173v-56l-137 -145l137 -145v-57z" />
    <glyph glyph-name="guilsinglright" unicode="&#x203a;" horiz-adv-x="250" 
d="M224 266l-200 -173v58l135 141l-135 142v58l200 -173v-53z" />
    <glyph glyph-name="fraction" unicode="&#x2044;" horiz-adv-x="125" 
d="M289 688l-399 -688h-54l400 688h53z" />
    <glyph glyph-name="zero.superior" unicode="&#x2070;" horiz-adv-x="479" 
d="M449 631q0 -97 -60 -160.5t-152 -63.5q-89 0 -148 62.5t-59 156.5q0 95 59.5 158.5t148.5 63.5q92 0 151.5 -61.5t59.5 -155.5zM396 627q0 80 -43 128.5t-114 48.5t-114 -49t-43 -128q0 -78 43.5 -127t113.5 -49q69 0 113 49.5t44 126.5z" />
    <glyph glyph-name="four.superior" unicode="&#x2074;" horiz-adv-x="479" 
d="M443 528h-93v-113h-46v113h-269v39l267 280h48v-277h93v-42zM304 570v222l-211 -222h211z" />
    <glyph glyph-name="five.superior" unicode="&#x2075;" horiz-adv-x="479" 
d="M407 845v-44h-289l-9 -131q60 51 144 51q82 0 133 -42.5t51 -111.5q0 -72 -54.5 -116t-143.5 -44q-142 0 -196 115l45 25q41 -98 152 -98q67 0 107 32t40 85q0 50 -38 81t-101 31q-102 0 -143 -72h-43l13 239h332z" />
    <glyph glyph-name="six.superior" unicode="&#x2076;" horiz-adv-x="479" 
d="M425 755l-42 -21q-53 74 -134 74q-133 0 -150 -179q49 72 157 72q80 0 130.5 -40.5t50.5 -104.5q0 -65 -53.5 -107t-136.5 -42q-91 0 -143 55.5t-52 152.5q0 107 55 170.5t147 63.5q116 0 171 -94zM387 557q0 45 -36.5 73t-96.5 28q-65 0 -101.5 -28t-36.5 -75t37.5 -76
t98.5 -29t98 29t37 78z" />
    <glyph glyph-name="seven.superior" unicode="&#x2077;" horiz-adv-x="479" 
d="M61 800v45h354v-31q-50 -41 -94 -105q-88 -129 -103 -294h-55q7 114 61 222q46 91 117 163h-280z" />
    <glyph glyph-name="eight.superior" unicode="&#x2078;" horiz-adv-x="479" 
d="M323 638q114 -20 114 -107q0 -56 -53.5 -90t-142.5 -34q-91 0 -144.5 34t-53.5 90q0 41 29.5 68.5t84.5 38.5q-46 8 -70.5 33t-24.5 60q0 52 50 84.5t131 32.5t129 -29.5t48 -85.5q0 -35 -26 -61t-71 -34zM371 732q0 76 -129 76q-61 0 -94.5 -19.5t-33.5 -54.5t34.5 -55
t96.5 -20q58 0 92 19.5t34 53.5zM385 531q0 40 -38 62t-105 22q-68 0 -108 -22t-40 -60q0 -37 40.5 -60t107.5 -23q65 0 104 22t39 59z" />
    <glyph glyph-name="nine.superior" unicode="&#x2079;" horiz-adv-x="479" 
d="M381 625q-46 -70 -156 -70q-79 0 -128.5 40.5t-49.5 104.5q0 65 52.5 107t134.5 42q91 0 143 -56t52 -153q0 -107 -54 -170t-147 -63q-121 0 -176 95l43 23q51 -76 135 -76q67 0 106.5 45.5t44.5 130.5zM365 701q0 47 -37 76t-97 29q-59 0 -96.5 -29.5t-37.5 -76.5
q0 -46 37 -74t96 -28q64 0 99.5 28t35.5 75z" />
    <glyph glyph-name="parenleft.superior" unicode="&#x207d;" horiz-adv-x="223" 
d="M215 332l-22 -22q-69 54 -106 131t-37 165q0 87 36.5 162.5t106.5 126.5l22 -20q-56 -51 -85 -124.5t-29 -152.5q0 -155 114 -266z" />
    <glyph glyph-name="parenright.superior" unicode="&#x207e;" horiz-adv-x="223" 
d="M8 873l22 22q69 -54 106 -131t37 -165q0 -87 -36.5 -162.5t-106.5 -126.5l-22 20q56 51 85 124.5t29 152.5q0 155 -114 266z" />
    <glyph glyph-name="zero.inferior" unicode="&#x2080;" horiz-adv-x="479" 
d="M449 66q0 -97 -60 -160.5t-152 -63.5q-89 0 -148 62.5t-59 156.5q0 95 59.5 158.5t148.5 63.5q92 0 151.5 -61.5t59.5 -155.5zM396 62q0 80 -43 128.5t-114 48.5t-114 -49t-43 -128q0 -78 43.5 -127t113.5 -49q69 0 113 49.5t44 126.5z" />
    <glyph glyph-name="one.inferior" unicode="&#x2081;" horiz-adv-x="479" 
d="M290 -150h-47v331q-43 -26 -96 -26h-17v41q62 0 87.5 19.5t39.5 65.5h33v-431z" />
    <glyph glyph-name="two.inferior" unicode="&#x2082;" horiz-adv-x="479" 
d="M423 -150h-370v46q197 89 253 136q63 52 63 109q0 41 -32.5 73t-96.5 32q-61 0 -101.5 -31.5t-40.5 -95.5l-47 7q9 55 25 82q49 80 161 80q89 0 135 -44.5t46 -102.5q0 -33 -14.5 -62t-35.5 -51.5t-61 -47.5t-77 -43t-97 -46h290v-41z" />
    <glyph glyph-name="three.inferior" unicode="&#x2083;" horiz-adv-x="479" 
d="M194 54v40h71q15 0 29.5 2.5t32.5 9t29 22.5t11 38q0 43 -39 60.5t-81 17.5q-89 0 -120 -45q-14 -20 -23 -53l-44 15q33 123 187 123q77 0 122.5 -32t45.5 -87q0 -58 -66 -85q48 -12 66.5 -42.5t18.5 -56.5q0 -60 -50.5 -99.5t-141.5 -39.5q-77 0 -127 33.5t-69 84.5
l49 16q8 -21 19 -35q43 -57 131 -57q66 0 102.5 27t36.5 68q0 36 -29 55.5t-74 19.5h-87z" />
    <glyph glyph-name="four.inferior" unicode="&#x2084;" horiz-adv-x="479" 
d="M443 -37h-93v-113h-46v113h-269v39l267 280h48v-277h93v-42zM304 5v222l-211 -222h211z" />
    <glyph glyph-name="five.inferior" unicode="&#x2085;" horiz-adv-x="479" 
d="M407 280v-44h-289l-9 -131q60 51 144 51q82 0 133 -42.5t51 -111.5q0 -72 -54.5 -116t-143.5 -44q-142 0 -196 115l45 25q41 -98 152 -98q67 0 107 32t40 85q0 50 -38 81t-101 31q-102 0 -143 -72h-43l13 239h332z" />
    <glyph glyph-name="six.inferior" unicode="&#x2086;" horiz-adv-x="479" 
d="M425 190l-42 -21q-53 74 -134 74q-133 0 -150 -179q49 72 157 72q80 0 130.5 -40.5t50.5 -104.5q0 -65 -53.5 -107t-136.5 -42q-91 0 -143 55.5t-52 152.5q0 107 55 170.5t147 63.5q116 0 171 -94zM387 -8q0 45 -36.5 73t-96.5 28q-65 0 -101.5 -28t-36.5 -75t37.5 -76
t98.5 -29t98 29t37 78z" />
    <glyph glyph-name="seven.inferior" unicode="&#x2087;" horiz-adv-x="479" 
d="M61 235v45h354v-31q-50 -41 -94 -105q-88 -129 -103 -294h-55q7 114 61 222q46 91 117 163h-280z" />
    <glyph glyph-name="eight.inferior" unicode="&#x2088;" horiz-adv-x="479" 
d="M323 73q114 -20 114 -107q0 -56 -53.5 -90t-142.5 -34q-91 0 -144.5 34t-53.5 90q0 41 29.5 68.5t84.5 38.5q-46 8 -70.5 33t-24.5 60q0 52 50 84.5t131 32.5t129 -29.5t48 -85.5q0 -35 -26 -61t-71 -34zM371 167q0 76 -129 76q-61 0 -94.5 -19.5t-33.5 -54.5t34.5 -55
t96.5 -20q58 0 92 19.5t34 53.5zM385 -34q0 40 -38 62t-105 22q-68 0 -108 -22t-40 -60q0 -37 40.5 -60t107.5 -23q65 0 104 22t39 59z" />
    <glyph glyph-name="nine.inferior" unicode="&#x2089;" horiz-adv-x="479" 
d="M381 60q-46 -70 -156 -70q-79 0 -128.5 40.5t-49.5 104.5q0 65 52.5 107t134.5 42q91 0 143 -56t52 -153q0 -107 -54 -170t-147 -63q-121 0 -176 95l43 23q51 -76 135 -76q67 0 106.5 45.5t44.5 130.5zM365 136q0 47 -37 76t-97 29q-59 0 -96.5 -29.5t-37.5 -76.5
q0 -46 37 -74t96 -28q64 0 99.5 28t35.5 75z" />
    <glyph glyph-name="parenleft.inferior" unicode="&#x208d;" horiz-adv-x="223" 
d="M215 -233l-22 -22q-69 54 -106 131t-37 165q0 87 36.5 162.5t106.5 126.5l22 -20q-56 -51 -85 -124.5t-29 -152.5q0 -155 114 -266z" />
    <glyph glyph-name="parenright.inferior" unicode="&#x208e;" horiz-adv-x="223" 
d="M8 308l22 22q69 -54 106 -131t37 -165q0 -87 -36.5 -162.5t-106.5 -126.5l-22 20q56 51 85 124.5t29 152.5q0 155 -114 266z" />
    <glyph glyph-name="Euro" unicode="&#x20ac;" horiz-adv-x="840" 
d="M797 606l-37 -69q-84 124 -258 124q-129 0 -210.5 -59t-101.5 -166h521l-26 -53h-504q-1 -15 -1 -35v-24h475l-26 -53h-442q26 -109 108 -168t208 -59q82 0 155 29.5t117 79.5v-87q-114 -84 -279 -84q-156 0 -257.5 75.5t-126.5 213.5h-82l29 53h46v24q0 1 0.5 13.5
t0.5 21.5h-76l28 53h54q27 134 130.5 210.5t257.5 76.5q192 0 297 -117z" />
    <glyph glyph-name="afii61289" unicode="&#x2113;" horiz-adv-x="560" 
d="M505 134l40 -36q-48 -58 -97.5 -83.5t-112.5 -25.5q-179 0 -189 186q-22 -15 -42 -27t-28 -17l-27 44q40 22 97 60v249q0 72 7.5 104.5t30.5 58.5q47 54 131 54q67 0 105.5 -37.5t38.5 -102.5q0 -46 -21 -97.5t-55 -92.5q-51 -63 -173 -160l-1 -17q0 -72 35.5 -112
t99.5 -40q47 0 80 19t81 73zM210 273q88 75 126 124q63 83 63 159q0 43 -22.5 68t-62.5 25q-41 0 -66 -20q-24 -20 -31 -45.5t-7 -97.5v-213z" />
    <glyph glyph-name="afii61352" unicode="&#x2116;" horiz-adv-x="1239" 
d="M1213 169v-54h-419v54h419zM728 0h-66l-525 610v-610h-66v706h66l530 -604q-5 589 -5 604h66v-706zM1212 483q0 -89 -56.5 -155.5t-154.5 -66.5q-94 0 -150 68t-56 156q0 102 62.5 161.5t146.5 59.5q67 0 116 -35t70.5 -84t21.5 -104zM1162 481q0 74 -40.5 127.5
t-117.5 53.5q-76 0 -117.5 -50.5t-41.5 -127.5q0 -80 44 -129.5t114 -49.5q67 0 113 47t46 129z" />
    <glyph glyph-name="trademark" unicode="&#x2122;" horiz-adv-x="687" 
d="M615 374h-44l2 285l-89 -285h-42l-89 284q4 -255 4 -284h-48v332h67l86 -272l85 272h68v-332zM281 665h-106v-291h-48v291h-108v41h262v-41z" />
    <glyph glyph-name="Omega" unicode="&#x2126;" horiz-adv-x="830" 
d="M786 0h-309v62q107 24 165 112t58 211q0 127 -77 205.5t-202 78.5q-133 0 -213.5 -81t-80.5 -215q0 -120 58.5 -204t167.5 -107v-62h-309v62h178q-81 47 -124.5 126t-43.5 181q0 157 103.5 256t268.5 99q158 0 252.5 -93.5t94.5 -248.5q0 -108 -47.5 -191t-135.5 -129
h196v-62z" />
    <glyph glyph-name="estimated" unicode="&#x212e;" horiz-adv-x="935" 
d="M910 329h-784q14 -134 113 -208.5t262 -74.5q121 0 208 48q83 47 139 128l54 -35q-43 -54 -81 -86q-133 -113 -328 -113q-194 0 -316 100t-122 260q0 157 117.5 255t305.5 98q185 0 303 -96t129 -276zM126 389l702 -1q-9 48 -19 73t-31 53q-44 59 -126.5 93.5
t-180.5 34.5q-177 0 -277 -106q-30 -31 -44.5 -63t-23.5 -84z" />
    <glyph glyph-name="onethird" unicode="&#x2153;" horiz-adv-x="1083" 
d="M716 688l-399 -688h-54l400 688h53zM277 258h-47v331q-43 -26 -96 -26h-17v41q62 0 87.5 19.5t39.5 65.5h33v-431zM769 204v40h71q15 0 29.5 2.5t32.5 9t29 22.5t11 38q0 43 -39 60.5t-81 17.5q-89 0 -120 -45q-14 -20 -23 -53l-44 15q33 123 187 123q77 0 122.5 -32
t45.5 -87q0 -58 -66 -85q48 -12 66.5 -42.5t18.5 -56.5q0 -60 -50.5 -99.5t-141.5 -39.5q-77 0 -127 33.5t-69 84.5l49 16q8 -21 19 -35q43 -57 131 -57q66 0 102.5 27t36.5 68q0 36 -29 55.5t-74 19.5h-87z" />
    <glyph glyph-name="twothirds" unicode="&#x2154;" horiz-adv-x="1083" 
d="M790 688l-399 -688h-54l400 688h53zM423 258h-370v46q197 89 253 136q63 52 63 109q0 41 -32.5 73t-96.5 32q-61 0 -101.5 -31.5t-40.5 -95.5l-47 7q9 55 25 82q49 80 161 80q89 0 135 -44.5t46 -102.5q0 -33 -14.5 -62t-35.5 -51.5t-61 -47.5t-77 -43t-97 -46h290v-41z
M801 204v40h71q15 0 29.5 2.5t32.5 9t29 22.5t11 38q0 43 -39 60.5t-81 17.5q-89 0 -120 -45q-14 -20 -23 -53l-44 15q33 123 187 123q77 0 122.5 -32t45.5 -87q0 -58 -66 -85q48 -12 66.5 -42.5t18.5 -56.5q0 -60 -50.5 -99.5t-141.5 -39.5q-77 0 -127 33.5t-69 84.5l49 16
q8 -21 19 -35q43 -57 131 -57q66 0 102.5 27t36.5 68q0 36 -29 55.5t-74 19.5h-87z" />
    <glyph glyph-name="oneeighth" unicode="&#x215b;" horiz-adv-x="1083" 
d="M710 688l-399 -688h-54l400 688h53zM263 258h-47v331q-43 -26 -96 -26h-17v41q62 0 87.5 19.5t39.5 65.5h33v-431zM898 223q54 -10 84 -38t30 -69q0 -56 -53.5 -90t-142.5 -34q-91 0 -144.5 34t-53.5 90q0 41 29.5 68.5t84.5 38.5q-95 17 -95 93q0 52 50 84.5t131 32.5
q77 0 127 -32.5t50 -83.5q0 -37 -25.5 -62t-71.5 -32zM946 317q0 36 -34.5 56t-94.5 20q-61 0 -94.5 -19.5t-33.5 -54.5t34.5 -55t96.5 -20q58 0 92 19.5t34 53.5zM960 116q0 39 -38.5 61.5t-104.5 22.5q-68 0 -108 -22t-40 -60q0 -37 40.5 -60t107.5 -23q65 0 104 22t39 59
z" />
    <glyph glyph-name="threeeighths" unicode="&#x215c;" horiz-adv-x="1083" 
d="M760 688l-399 -688h-54l400 688h53zM917 223q54 -10 84 -38t30 -69q0 -56 -53.5 -90t-142.5 -34q-91 0 -144.5 34t-53.5 90q0 41 29.5 68.5t84.5 38.5q-95 17 -95 93q0 52 50 84.5t131 32.5q77 0 127 -32.5t50 -83.5q0 -37 -25.5 -62t-71.5 -32zM965 317q0 36 -34.5 56
t-94.5 20q-61 0 -94.5 -19.5t-33.5 -54.5t34.5 -55t96.5 -20q58 0 92 19.5t34 53.5zM979 116q0 39 -38.5 61.5t-104.5 22.5q-68 0 -108 -22t-40 -60q0 -37 40.5 -60t107.5 -23q65 0 104 22t39 59zM186 462v40h71q15 0 29.5 2.5t32.5 9t29 22.5t11 38q0 43 -39 60.5t-81 17.5
q-89 0 -120 -45q-14 -20 -23 -53l-44 15q33 123 187 123q77 0 122.5 -32t45.5 -87q0 -58 -66 -85q48 -12 66.5 -42.5t18.5 -56.5q0 -60 -50.5 -99.5t-141.5 -39.5q-77 0 -127 33.5t-69 84.5l49 16q8 -21 19 -35q43 -57 131 -57q66 0 102.5 27t36.5 68q0 36 -29 55.5
t-74 19.5h-87z" />
    <glyph glyph-name="fiveeighths" unicode="&#x215d;" horiz-adv-x="1083" 
d="M764 688l-399 -688h-54l400 688h53zM919 223q54 -10 84 -38t30 -69q0 -56 -53.5 -90t-142.5 -34q-91 0 -144.5 34t-53.5 90q0 41 29.5 68.5t84.5 38.5q-95 17 -95 93q0 52 50 84.5t131 32.5q77 0 127 -32.5t50 -83.5q0 -37 -25.5 -62t-71.5 -32zM967 317q0 36 -34.5 56
t-94.5 20q-61 0 -94.5 -19.5t-33.5 -54.5t34.5 -55t96.5 -20q58 0 92 19.5t34 53.5zM981 116q0 39 -38.5 61.5t-104.5 22.5q-68 0 -108 -22t-40 -60q0 -37 40.5 -60t107.5 -23q65 0 104 22t39 59zM408 688v-45h-288l-9 -130q60 51 143 51q82 0 133 -42.5t51 -111.5
q0 -72 -54.5 -116t-143.5 -44q-142 0 -196 115l45 25q41 -98 152 -98q67 0 107 32t40 85q0 50 -38 80.5t-101 30.5q-102 0 -143 -71h-43l13 239h332z" />
    <glyph glyph-name="seveneighths" unicode="&#x215e;" horiz-adv-x="1083" 
d="M710 688l-399 -688h-54l400 688h53zM905 223q54 -10 84 -38t30 -69q0 -56 -53.5 -90t-142.5 -34q-91 0 -144.5 34t-53.5 90q0 41 29.5 68.5t84.5 38.5q-95 17 -95 93q0 52 50 84.5t131 32.5q77 0 127 -32.5t50 -83.5q0 -37 -25.5 -62t-71.5 -32zM953 317q0 36 -34.5 56
t-94.5 20q-61 0 -94.5 -19.5t-33.5 -54.5t34.5 -55t96.5 -20q58 0 92 19.5t34 53.5zM967 116q0 39 -38.5 61.5t-104.5 22.5q-68 0 -108 -22t-40 -60q0 -37 40.5 -60t107.5 -23q65 0 104 22t39 59zM81 643v45h354v-31q-50 -41 -94 -105q-88 -129 -103 -294h-55q7 114 61 222
q46 91 117 163h-280z" />
    <glyph glyph-name="partialdiff" unicode="&#x2202;" horiz-adv-x="574" 
d="M177 644l-9 57q68 16 118 16q124 0 185 -77t61 -235q0 -415 -261 -415q-105 0 -171 59t-66 152q0 101 66.5 162t176.5 61q100 0 187 -62q2 17 2 40q0 133 -43.5 194t-138.5 61q-46 0 -107 -13zM457 302q-85 64 -186 64q-76 0 -120.5 -45.5t-44.5 -122.5q0 -68 45 -109
t118 -41q169 0 188 254z" />
    <glyph glyph-name="Delta" unicode="&#x2206;" horiz-adv-x="729" 
d="M731 0h-733l335 706h60zM618 63l-257 558l-255 -558h512z" />
    <glyph glyph-name="product" unicode="&#x220f;" horiz-adv-x="805" 
d="M729 -122h-67v768h-520v-768h-66v828h653v-828z" />
    <glyph glyph-name="summation" unicode="&#x2211;" horiz-adv-x="758" 
d="M718 -122h-674v59l357 366l-357 342v61h674v-59h-587l358 -341l-365 -370h594v-58z" />
    <glyph glyph-name="minus" unicode="&#x2212;" horiz-adv-x="772" 
d="M698 264h-624v59h624v-59z" />
    <glyph glyph-name="uni2215" unicode="&#x2215;" horiz-adv-x="125" 
d="M289 688l-399 -688h-54l400 688h53z" />
    <glyph glyph-name="uni2219" unicode="&#x2219;" horiz-adv-x="271" 
d="M173 244h-77v99h77v-99z" />
    <glyph glyph-name="radical" unicode="&#x221a;" horiz-adv-x="770" 
d="M706 706l-310 -891h-62l-171 305l-66 -35l-28 54l126 62l163 -302l279 807h69z" />
    <glyph glyph-name="infinity" unicode="&#x221e;" horiz-adv-x="772" 
d="M390 350l25 28q51 56 89 78.5t81 22.5q65 0 109 -48t44 -121q0 -82 -48 -133t-125 -51q-53 0 -93.5 27t-90.5 102q-98 -128 -193 -128q-67 0 -110 49t-43 124q0 80 47.5 130t124.5 50q55 0 95 -29t88 -101zM422 302q47 -70 78.5 -95.5t69.5 -25.5q46 0 76 36.5t30 91.5
q0 51 -25 82.5t-65 31.5q-50 0 -111 -65zM348 304q-46 68 -78 94.5t-70 26.5q-46 0 -74.5 -35.5t-28.5 -91.5q0 -51 24.5 -83t64.5 -32q51 0 102 56z" />
    <glyph glyph-name="integral" unicode="&#x222b;" horiz-adv-x="353" 
d="M298 708v-62q-29 19 -50 19q-29 0 -37 -17.5t-8 -57.5v-634q0 -68 -14 -92q-24 -41 -85 -41q-25 0 -59 10v63q25 -14 48 -14q26 0 35.5 14.5t9.5 54.5v656q0 113 100 113q29 0 60 -12z" />
    <glyph glyph-name="approxequal" unicode="&#x2248;" horiz-adv-x="827" 
d="M701 263l46 -38q-90 -96 -191 -96q-45 0 -102 23l-79 32q-68 27 -120 27q-32 0 -56 -13.5t-61 -50.5l-11 -11l-47 39q46 54 87.5 75.5t95.5 21.5q56 0 154 -38l52 -20q62 -24 92 -24q38 0 66 14.5t74 58.5zM701 447l46 -39q-89 -95 -191 -95q-46 0 -103 23l-78 31
q-71 28 -120 28q-33 0 -58 -13.5t-59 -50.5l-11 -12l-47 39q46 54 87.5 75.5t95.5 21.5q56 0 154 -38l52 -20q62 -24 92 -24q34 0 64.5 15.5t75.5 58.5z" />
    <glyph glyph-name="notequal" unicode="&#x2260;" horiz-adv-x="772" 
d="M677 175h-325l-102 -181h-70l102 181h-186v56h219l65 120h-284v57h319l96 167h70l-96 -167h192v-57h-227l-66 -120h293v-56z" />
    <glyph glyph-name="lessequal" unicode="&#x2264;" horiz-adv-x="772" 
d="M646 104l-542 233v67l542 228v-63l-479 -196l479 -203v-66zM646 0h-542v58h542v-58z" />
    <glyph glyph-name="greaterequal" unicode="&#x2265;" horiz-adv-x="772" 
d="M668 332l-542 -228v63l479 196l-479 203v66l542 -233v-67zM668 0h-542v58h542v-58z" />
    <glyph glyph-name="lozenge" unicode="&#x25ca;" horiz-adv-x="772" 
d="M614 352l-199 -352h-63l-194 356l194 350h63zM542 351l-157 297l-157 -288l156 -301z" />
    <glyph glyph-name="uniF6C1" unicode="&#xf6c1;" horiz-adv-x="812" 
d="M32 177l74 28q8 -21 14 -34t29 -40t53 -43.5t85.5 -30t126.5 -13.5q73 0 134.5 17.5t102 55t40.5 89.5q0 21 -7 37.5t-16.5 28t-30 21t-35.5 15t-45.5 11.5t-48 8.5t-54.5 7.5l-154 21q-90 13 -129 33q-84 42 -84 131t85.5 147t239.5 58q30 0 60 -3.5t81.5 -15t102 -42.5
t87.5 -78l-64 -34q-80 112 -272 112q-100 0 -174 -35.5t-74 -105.5q0 -49 55 -76q31 -15 131 -28q25 -4 71 -10t66 -9t53 -8.5t50.5 -9.5t38 -9.5t35.5 -12.5q49 -21 77 -60t28 -90q0 -58 -33 -105q-82 -118 -314 -123v-42q37 0 66.5 -16.5t29.5 -53.5q0 -33 -29 -54
t-88 -21q-30 0 -80 6v33q44 -4 65 -4q69 0 69 35q0 38 -73 38h-5v80q-192 9 -280 104q-27 28 -60 90z" />
    <glyph glyph-name="uniF6C2" unicode="&#xf6c2;" horiz-adv-x="625" 
d="M577 392l-73 -15q-13 22 -21 29q-27 23 -80 33.5t-102 10.5q-27 0 -53 -3t-57.5 -11.5t-51 -28.5t-19.5 -48q0 -19 13 -35.5t33 -21.5q18 -5 96 -10q18 -1 57.5 -3t54 -3t42.5 -3.5t42 -5t31 -7.5t29 -11q70 -35 70 -111q0 -16 -4 -33t-20.5 -41t-43 -42t-77 -31
t-117.5 -13v-48q37 0 66.5 -16.5t29.5 -53.5q0 -33 -29 -54t-88 -21q-30 0 -80 6v33q44 -4 65 -4q69 0 69 35q0 38 -73 38h-5v87q-212 11 -251 132l72 16q16 -42 71 -66q60 -24 153 -24q84 0 139.5 25.5t55.5 73.5q0 62 -136 71q-35 2 -82.5 4t-72.5 3.5t-52.5 5t-45.5 10.5
q-11 4 -22 11t-25.5 19.5t-23.5 34t-9 47.5q0 56 36 92t90 49.5t127 13.5q223 0 272 -116z" />
    <glyph glyph-name="acute.cap" horiz-adv-x="375" 
d="M285 900l-150 -126h-45l84 126h111z" />
    <glyph glyph-name="breve.cap" horiz-adv-x="375" 
d="M334 897q-8 -64 -50 -91t-98 -27q-21 0 -40 4t-42.5 14.5t-40.5 36t-22 63.5h50q12 -72 93 -72q91 0 101 72h49z" />
    <glyph glyph-name="caron.cap" horiz-adv-x="375" 
d="M339 900l-115 -126h-81l-107 126h65l85 -76l88 76h65z" />
    <glyph glyph-name="cedilla.cap" horiz-adv-x="375" 
d="M145 19h45v-79q37 0 66.5 -16.5t29.5 -53.5q0 -33 -29 -54t-88 -21q-30 0 -80 6v33q44 -4 65 -4q69 0 69 35q0 38 -73 38h-5v116z" />
    <glyph glyph-name="circumflex.cap" horiz-adv-x="375" 
d="M338 774h-64l-85 77l-89 -77h-63l114 126h79z" />
    <glyph glyph-name="commaaccent" horiz-adv-x="375" 
d="M152 -40h71v-65q0 -74 -71 -80v29q33 8 33 45h-33v71z" />
    <glyph glyph-name="dieresis.cap" horiz-adv-x="375" 
d="M386 798h-73v96h73v-96zM63 798h-73v96h73v-96z" />
    <glyph glyph-name="dotaccent.cap" horiz-adv-x="375" 
d="M220 798h-65v94h65v-94z" />
    <glyph glyph-name="grave.cap" horiz-adv-x="375" 
d="M286 774h-48l-149 126h111z" />
    <glyph glyph-name="hungarumlaut.cap" horiz-adv-x="375" 
d="M204 900l-146 -126h-39l83 126h102zM356 900l-146 -126h-39l83 126h102z" />
    <glyph glyph-name="macron.cap" horiz-adv-x="375" 
d="M355 809h-335v52h335v-52z" />
    <glyph glyph-name="ring.cap" horiz-adv-x="375" 
d="M301 831q0 -44 -34.5 -66.5t-77.5 -22.5q-63 0 -89 27t-26 58q0 45 38 65.5t82 20.5q53 0 80 -25t27 -57zM248 828q0 17 -14.5 30.5t-44.5 13.5q-32 0 -47.5 -13.5t-15.5 -31.5q0 -17 15.5 -29t45.5 -12q23 0 42 10t19 32z" />
    <glyph glyph-name="tilde.cap" horiz-adv-x="375" 
d="M338 889l30 -13q-18 -42 -39.5 -66t-59.5 -24q-27 0 -88 25t-86 25q-13 0 -24 -8t-17.5 -16.5t-17.5 -25.5l-29 17q42 86 104 86q34 0 91.5 -24.5t78.5 -24.5q31 0 57 49z" />
    <glyph glyph-name="caron.alt" horiz-adv-x="375" 
d="M150 706h74v-100q0 -77 -74 -83v32q37 6 37 49v19h-37v83z" />
    <glyph glyph-name="zero.tab" horiz-adv-x="729" 
d="M697 344q0 -87 -36 -164t-103 -127q-86 -64 -199 -64q-145 0 -237 103.5t-92 252.5q0 122 62 215q14 20 34 40t53.5 45t82.5 40.5t104 15.5q25 0 52.5 -4.5t65 -17t76 -40.5t67.5 -69q70 -95 70 -226zM624 348q0 150 -91 229q-72 62 -170 62q-67 0 -127 -32
q-69 -37 -101.5 -108t-32.5 -157q0 -65 17 -114q27 -81 92.5 -129t150.5 -48q57 0 104 21q63 27 110.5 94t47.5 182z" />
    <glyph glyph-name="one.tab" horiz-adv-x="729" 
d="M417 0h-69v543q-60 -47 -170 -47h-13v57q54 0 91 10t68.5 42t46.5 88h46v-693z" />
    <glyph glyph-name="two.tab" horiz-adv-x="729" 
d="M670 0h-597v64q243 112 326 162q162 98 186 201q5 21 5 42q0 14 -3.5 31.5t-17 44t-35.5 47t-63.5 35.5t-96.5 15q-70 0 -129 -28t-85 -85q-18 -39 -18 -93l-69 11q12 122 92.5 188.5t211.5 66.5q120 0 199 -63q85 -67 85 -170q0 -48 -21 -97q-22 -51 -71 -96.5
t-143 -100.5q-87 -51 -246 -116h490v-59z" />
    <glyph glyph-name="three.tab" horiz-adv-x="729" 
d="M298 330v59h121q44 0 75 11q11 4 22.5 10t28 19t26.5 34t10 47q0 35 -18.5 61t-42.5 39t-57 20t-52 8.5t-37 1.5q-19 0 -35 -1t-50 -9.5t-60 -23.5t-51 -46.5t-35 -75.5l-66 22q63 194 297 194q76 0 132.5 -19t86 -49.5t43 -61.5t13.5 -62q0 -53 -33 -90t-92 -50
q30 -3 62.5 -19t61 -54.5t28.5 -90.5q0 -100 -87 -160q-81 -56 -218 -56q-122 0 -203 51q-76 48 -113 133l71 24q27 -61 67 -92q72 -58 184 -58q98 0 164.5 41.5t66.5 116.5q0 39 -25 70q-28 35 -71 45.5t-101 10.5h-113z" />
    <glyph glyph-name="four.tab" horiz-adv-x="729" 
d="M685 185h-149v-185h-67v185h-435v59l428 451h74v-451h149v-59zM469 244v376l-355 -376h355z" />
    <glyph glyph-name="five.tab" horiz-adv-x="729" 
d="M624 632h-468l-14 -234q82 86 235 86q99 0 162.5 -35t95.5 -83q37 -53 37 -125q0 -64 -34 -120q-32 -53 -101 -92.5t-177 -39.5q-130 0 -217 59q-68 47 -97 125l68 19q20 -69 81.5 -107t157.5 -38q59 0 113.5 18t96.5 64t42 113q0 49 -23.5 86.5t-61 57.5t-77 30
t-78.5 10q-114 0 -187 -66q-16 -14 -41 -46h-63l22 374h528v-56z" />
    <glyph glyph-name="six.tab" horiz-adv-x="729" 
d="M675 548l-63 -29q-81 118 -231 118q-59 0 -106 -20t-75.5 -51.5t-47.5 -74t-26.5 -82.5t-8.5 -81q25 66 104.5 98t164.5 32q21 0 44.5 -2.5t66.5 -11t84 -33t69 -60.5q42 -54 42 -120q0 -64 -37 -119q-42 -62 -116.5 -92.5t-157.5 -30.5q-69 0 -132 22q-44 16 -78.5 41
t-55 55t-34 59t-19 61t-7.5 52t-2 40q0 75 16.5 136t43.5 100.5t53 63t55 39.5q73 40 167 40q132 0 218 -72q31 -26 69 -78zM145 230q0 -36 15 -67.5t29.5 -46t29.5 -24.5q59 -41 159 -41q145 0 211 81q35 44 35 96q0 68 -60.5 118t-182.5 50q-98 0 -167 -42.5t-69 -123.5z
" />
    <glyph glyph-name="seven.tab" horiz-adv-x="729" 
d="M674 688v-50q-89 -64 -176 -191q-160 -236 -160 -447h-75q0 65 18.5 137.5t47 134t48.5 98t37 63.5q60 90 161 195h-503v60h602z" />
    <glyph glyph-name="eight.tab" horiz-adv-x="729" 
d="M497 361q72 -7 127 -53t55 -117q0 -50 -27 -91q-72 -111 -290 -111q-130 0 -211 45q-46 25 -74 65.5t-28 90.5q0 69 55.5 115.5t126.5 55.5q-15 3 -29 6.5t-38 14.5t-41 26t-30 42t-13 61q0 64 48 109t111.5 62.5t132.5 17.5q115 0 197 -47t83 -141q0 -55 -38 -96
q-40 -42 -117 -55zM585 516q0 33 -18 58t-42.5 38t-57 20.5t-54.5 9.5t-42 2q-59 0 -102 -10.5t-65 -25t-35 -34.5t-15.5 -33t-2.5 -26q0 -37 22.5 -63t59 -38t70 -17t67.5 -5q63 0 111.5 14.5t70.5 33.5q33 30 33 76zM610 190q0 43 -28 73t-72.5 42.5t-78 17t-63.5 4.5
q-122 0 -186 -37q-64 -34 -64 -99q0 -57 61 -98q73 -46 184 -46q110 0 176 36q71 40 71 107z" />
    <glyph glyph-name="nine.tab" horiz-adv-x="729" 
d="M73 130l62 30q26 -30 31 -35q78 -75 193 -75q70 0 128 32.5t91 92.5q39 70 45 197q-31 -74 -113 -108t-171 -34q-22 0 -45 2.5t-66.5 12t-84 35t-66.5 64.5q-33 51 -33 110t33 112t104 93.5t181 40.5q186 0 271 -133q53 -81 53 -204q0 -119 -39 -200q-27 -57 -70 -95
t-90 -53t-76.5 -20t-57.5 -5q-126 0 -213 68q-36 28 -67 72zM591 461q0 86 -64.5 131.5t-164.5 45.5q-77 0 -130 -24t-81 -56q-38 -44 -38 -100q0 -38 14 -68t38.5 -47t49 -28.5t53.5 -15.5t44.5 -5.5t29.5 -1.5q140 0 209 71q40 40 40 98z" />
    <glyph glyph-name="i.dot" horiz-adv-x="208" 
d="M137 582h-66v96h66v-96zM137 0h-66v494h66v-494z" />
    <glyph glyph-name="zero.numerator" horiz-adv-x="479" 
d="M449 474q0 -97 -60 -160.5t-152 -63.5q-89 0 -148 62.5t-59 156.5q0 95 59.5 158.5t148.5 63.5q92 0 151.5 -61.5t59.5 -155.5zM396 470q0 80 -43 128.5t-114 48.5t-114 -49t-43 -128q0 -78 43.5 -127t113.5 -49q69 0 113 49.5t44 126.5z" />
    <glyph glyph-name="one.numerator" horiz-adv-x="479" 
d="M290 258h-47v331q-43 -26 -96 -26h-17v41q62 0 87.5 19.5t39.5 65.5h33v-431z" />
    <glyph glyph-name="two.numerator" horiz-adv-x="479" 
d="M423 258h-370v46q197 89 253 136q63 52 63 109q0 41 -32.5 73t-96.5 32q-61 0 -101.5 -31.5t-40.5 -95.5l-47 7q9 55 25 82q49 80 161 80q89 0 135 -44.5t46 -102.5q0 -33 -14.5 -62t-35.5 -51.5t-61 -47.5t-77 -43t-97 -46h290v-41z" />
    <glyph glyph-name="three.numerator" horiz-adv-x="479" 
d="M194 462v40h71q15 0 29.5 2.5t32.5 9t29 22.5t11 38q0 43 -39 60.5t-81 17.5q-89 0 -120 -45q-14 -20 -23 -53l-44 15q33 123 187 123q77 0 122.5 -32t45.5 -87q0 -58 -66 -85q48 -12 66.5 -42.5t18.5 -56.5q0 -60 -50.5 -99.5t-141.5 -39.5q-77 0 -127 33.5t-69 84.5
l49 16q8 -21 19 -35q43 -57 131 -57q66 0 102.5 27t36.5 68q0 36 -29 55.5t-74 19.5h-87z" />
    <glyph glyph-name="four.numerator" horiz-adv-x="479" 
d="M443 371h-93v-113h-46v113h-269v39l267 280h48v-277h93v-42zM304 413v222l-211 -222h211z" />
    <glyph glyph-name="five.numerator" horiz-adv-x="479" 
d="M407 688v-44h-289l-9 -131q60 51 144 51q82 0 133 -42.5t51 -111.5q0 -72 -54.5 -116t-143.5 -44q-142 0 -196 115l45 25q41 -98 152 -98q67 0 107 32t40 85q0 50 -38 81t-101 31q-102 0 -143 -72h-43l13 239h332z" />
    <glyph glyph-name="six.numerator" horiz-adv-x="479" 
d="M425 598l-42 -21q-53 74 -134 74q-133 0 -150 -179q49 72 157 72q80 0 130.5 -40.5t50.5 -104.5q0 -65 -53.5 -107t-136.5 -42q-91 0 -143 55.5t-52 152.5q0 107 55 170.5t147 63.5q116 0 171 -94zM387 400q0 45 -36.5 73t-96.5 28q-65 0 -101.5 -28t-36.5 -75t37.5 -76
t98.5 -29t98 29t37 78z" />
    <glyph glyph-name="seven.numerator" horiz-adv-x="479" 
d="M61 643v45h354v-31q-50 -41 -94 -105q-88 -129 -103 -294h-55q7 114 61 222q46 91 117 163h-280z" />
    <glyph glyph-name="eight.numerator" horiz-adv-x="479" 
d="M323 481q114 -20 114 -107q0 -56 -53.5 -90t-142.5 -34q-91 0 -144.5 34t-53.5 90q0 41 29.5 68.5t84.5 38.5q-46 8 -70.5 33t-24.5 60q0 52 50 84.5t131 32.5t129 -29.5t48 -85.5q0 -35 -26 -61t-71 -34zM371 575q0 76 -129 76q-61 0 -94.5 -19.5t-33.5 -54.5t34.5 -55
t96.5 -20q58 0 92 19.5t34 53.5zM385 374q0 40 -38 62t-105 22q-68 0 -108 -22t-40 -60q0 -37 40.5 -60t107.5 -23q65 0 104 22t39 59z" />
    <glyph glyph-name="nine.numerator" horiz-adv-x="479" 
d="M381 468q-46 -70 -156 -70q-79 0 -128.5 40.5t-49.5 104.5q0 65 52.5 107t134.5 42q91 0 143 -56t52 -153q0 -107 -54 -170t-147 -63q-121 0 -176 95l43 23q44 -76 135 -76q67 0 106.5 45.5t44.5 130.5zM365 544q0 47 -37 76t-97 29q-59 0 -96.5 -29.5t-37.5 -76.5
q0 -46 37 -74t96 -28q64 0 99.5 28t35.5 75z" />
    <glyph glyph-name="period.numerator" horiz-adv-x="178" 
d="M117 258h-56v71h56v-71z" />
    <glyph glyph-name="comma.numerator" horiz-adv-x="178" 
d="M61 329h56v-84q0 -56 -55 -61v28q24 5 24 36v10h-25v71z" />
    <glyph glyph-name="hyphen.numerator" horiz-adv-x="228" 
d="M203 419h-178v45h178v-45z" />
    <glyph glyph-name="parenleft.numerator" horiz-adv-x="223" 
d="M215 175l-22 -22q-69 54 -106 131t-37 165q0 87 36.5 162.5t106.5 126.5l22 -20q-56 -51 -85 -124.5t-29 -152.5q0 -155 114 -266z" />
    <glyph glyph-name="parenright.numerator" horiz-adv-x="223" 
d="M8 716l22 22q69 -54 106 -131t37 -165q0 -87 -36.5 -162.5t-106.5 -126.5l-22 20q56 51 85 124.5t29 152.5q0 155 -114 266z" />
    <glyph glyph-name="dollar.numerator" horiz-adv-x="495" 
d="M451 602l-43 -22q-42 61 -134 67v-142q105 -14 147.5 -37.5t42.5 -81.5q0 -59 -57 -97q-50 -32 -133 -35v-57h-40v57q-44 2 -79 11.5t-54 19.5t-36 28.5t-22 27t-15 26.5l47 20q29 -88 159 -92v167q-97 11 -136.5 35.5t-39.5 74.5q0 28 19 56t64 44q40 14 93 16v56h40
v-56q95 -10 149 -54q15 -14 28 -32zM234 510v137q-52 -1 -90 -19t-38 -54q0 -31 31 -44t97 -20zM274 458v-162q64 5 95 21q48 24 48 67q0 28 -19 43q-22 17 -124 31z" />
    <glyph glyph-name="cent.numerator" horiz-adv-x="407" 
d="M363 373l40 -14q-42 -98 -171 -108v-64h-39v64q-64 4 -116 42t-52 116q0 63 43 108t125 50v63h39v-62q119 -5 166 -96l-43 -18q-29 71 -123 73v-236q100 6 131 82zM193 291v236q-54 -4 -87 -35.5t-33 -82.5q0 -34 14.5 -59.5t36 -37t39 -16.5t30.5 -5z" />
    <glyph glyph-name="sterling.numerator" horiz-adv-x="483" 
d="M39 455v39h81q-33 33 -33 83q0 21 10 40t19.5 28t17.5 14q45 32 119 32q48 0 84 -12.5t53.5 -28t28.5 -39t13 -35t4 -26.5h-50q-3 45 -32 71q-29 29 -99 29q-119 0 -119 -76q0 -40 50 -80h158v-39h-121q39 -43 39 -83q0 -17 -9 -35q5 -3 19.5 -11t22 -11.5t20 -9t23 -8
t20.5 -2.5q11 0 19 2t17.5 8t15 20.5t5.5 36.5q0 16 -1 25h44q1 -10 1 -17q0 -16 -0.5 -26.5t-6 -30t-16 -31.5t-31.5 -22t-51 -10q-51 0 -122 50q-52 -50 -115 -50q-32 0 -63 16.5t-31 54.5q0 28 21 47.5t66 19.5q44 0 104 -30q2 6 2 16q0 33 -57 81h-120zM197 321
q-51 28 -85 28q-45 0 -45 -31q0 -13 14.5 -21.5t34.5 -8.5q47 0 81 33z" />
    <glyph glyph-name="yen.numerator" horiz-adv-x="461" 
d="M455 688l-154 -193h101v-37h-128l-20 -27v-27h148v-38h-148v-108h-45v108h-156v38h156v27l-22 27h-134v37h106l-153 193h62l164 -209l165 209h58z" />
    <glyph glyph-name="florin.numerator" horiz-adv-x="237" 
d="M251 685l-5 -42q-28 6 -58 6q-27 0 -36.5 -14t-12.5 -45l-4 -39h91l-4 -41h-92l-33 -300q-7 -53 -37 -73q-25 -16 -64 -16q-32 0 -58 6l5 43q26 -7 51 -7q29 0 41 13t15 42l33 292h-63l5 41h62l7 59q2 16 6 27.5t13.5 25t28 21t45.5 7.5q40 0 64 -6z" />
    <glyph glyph-name="Euro.numerator" horiz-adv-x="512" 
d="M488 622l-23 -47q-23 34 -64 53t-88 19q-74 0 -115.5 -26.5t-60.5 -84.5h305l-17 -37h-294q-2 -21 -2 -54h281l-17 -38h-258q17 -60 60.5 -86.5t117.5 -26.5q49 0 92.5 17.5t68.5 47.5v-59q-68 -50 -164 -50q-190 0 -227 157h-54l17 38h31q0 27 3 54h-46l16 37h34
q20 76 80.5 115.5t147.5 39.5q107 0 176 -69z" />
    <glyph glyph-name="zero.denominator" horiz-adv-x="479" 
d="M449 216q0 -97 -60 -160.5t-152 -63.5q-89 0 -148 62.5t-59 156.5q0 95 59.5 158.5t148.5 63.5q92 0 151.5 -61.5t59.5 -155.5zM396 212q0 80 -43 128.5t-114 48.5t-114 -49t-43 -128q0 -78 43.5 -127t113.5 -49q69 0 113 49.5t44 126.5z" />
    <glyph glyph-name="one.denominator" horiz-adv-x="479" 
d="M290 0h-47v331q-43 -26 -96 -26h-17v41q62 0 87.5 19.5t39.5 65.5h33v-431z" />
    <glyph glyph-name="two.denominator" horiz-adv-x="479" 
d="M423 0h-370v46q197 89 253 136q63 52 63 109q0 41 -32.5 73t-96.5 32q-61 0 -101.5 -31.5t-40.5 -95.5l-47 7q9 55 25 82q49 80 161 80q89 0 135 -44.5t46 -102.5q0 -33 -14.5 -62t-35.5 -51.5t-61 -47.5t-77 -43t-97 -46h290v-41z" />
    <glyph glyph-name="three.denominator" horiz-adv-x="479" 
d="M194 204v40h71q15 0 29.5 2.5t32.5 9t29 22.5t11 38q0 43 -39 60.5t-81 17.5q-89 0 -120 -45q-14 -20 -23 -53l-44 15q33 123 187 123q77 0 122.5 -32t45.5 -87q0 -58 -66 -85q48 -12 66.5 -42.5t18.5 -56.5q0 -60 -50.5 -99.5t-141.5 -39.5q-77 0 -127 33.5t-69 84.5
l49 16q8 -21 19 -35q43 -57 131 -57q66 0 102.5 27t36.5 68q0 36 -29 55.5t-74 19.5h-87z" />
    <glyph glyph-name="four.denominator" horiz-adv-x="479" 
d="M443 113h-93v-113h-46v113h-269v39l267 280h48v-277h93v-42zM304 155v222l-211 -222h211z" />
    <glyph glyph-name="five.denominator" horiz-adv-x="479" 
d="M407 430v-44h-289l-9 -131q60 51 144 51q82 0 133 -42.5t51 -111.5q0 -72 -54.5 -116t-143.5 -44q-142 0 -196 115l45 25q41 -98 152 -98q67 0 107 32t40 85q0 50 -38 81t-101 31q-102 0 -143 -72h-43l13 239h332z" />
    <glyph glyph-name="six.denominator" horiz-adv-x="479" 
d="M425 340l-42 -21q-53 74 -134 74q-133 0 -150 -179q49 72 157 72q80 0 130.5 -40.5t50.5 -104.5q0 -65 -53.5 -107t-136.5 -42q-91 0 -143 55.5t-52 152.5q0 107 55 170.5t147 63.5q116 0 171 -94zM387 142q0 45 -36.5 73t-96.5 28q-65 0 -101.5 -28t-36.5 -75t37.5 -76
t98.5 -29t98 29t37 78z" />
    <glyph glyph-name="seven.denominator" horiz-adv-x="479" 
d="M61 385v45h354v-31q-50 -41 -94 -105q-88 -129 -103 -294h-55q7 114 61 222q46 91 117 163h-280z" />
    <glyph glyph-name="eight.denominator" horiz-adv-x="479" 
d="M323 223q114 -20 114 -107q0 -56 -53.5 -90t-142.5 -34q-91 0 -144.5 34t-53.5 90q0 41 29.5 68.5t84.5 38.5q-46 8 -70.5 33t-24.5 60q0 52 50 84.5t131 32.5t129 -29.5t48 -85.5q0 -35 -26 -61t-71 -34zM371 317q0 76 -129 76q-61 0 -94.5 -19.5t-33.5 -54.5t34.5 -55
t96.5 -20q58 0 92 19.5t34 53.5zM385 116q0 40 -38 62t-105 22q-68 0 -108 -22t-40 -60q0 -37 40.5 -60t107.5 -23q65 0 104 22t39 59z" />
    <glyph glyph-name="nine.denominator" horiz-adv-x="479" 
d="M381 210q-46 -70 -156 -70q-79 0 -128.5 40.5t-49.5 104.5q0 65 52.5 107t134.5 42q91 0 143 -56t52 -153q0 -107 -54 -170t-147 -63q-121 0 -176 95l43 23q44 -76 135 -76q67 0 106.5 45.5t44.5 130.5zM365 286q0 47 -37 76t-97 29q-59 0 -96.5 -29.5t-37.5 -76.5
q0 -46 37 -74t96 -28q64 0 99.5 28t35.5 75z" />
    <glyph glyph-name="period.denominator" horiz-adv-x="178" 
d="M117 0h-56v71h56v-71z" />
    <glyph glyph-name="comma.denominator" horiz-adv-x="178" 
d="M61 71h56v-84q0 -56 -55 -61v28q24 5 24 36v10h-25v71z" />
    <glyph glyph-name="hyphen.denominator" horiz-adv-x="228" 
d="M203 161h-178v45h178v-45z" />
    <glyph glyph-name="parenleft.denominator" horiz-adv-x="223" 
d="M215 -83l-22 -22q-69 54 -106 131t-37 165q0 87 36.5 162.5t106.5 126.5l22 -20q-56 -51 -85 -124.5t-29 -152.5q0 -155 114 -266z" />
    <glyph glyph-name="parenright.denominator" horiz-adv-x="223" 
d="M8 458l22 22q69 -54 106 -131t37 -165q0 -87 -36.5 -162.5t-106.5 -126.5l-22 20q56 51 85 124.5t29 152.5q0 155 -114 266z" />
    <glyph glyph-name="dollar.denominator" horiz-adv-x="495" 
d="M451 344l-43 -22q-42 61 -134 67v-142q105 -14 147.5 -37.5t42.5 -81.5q0 -59 -57 -97q-50 -32 -133 -35v-57h-40v57q-44 2 -79 11.5t-54 19.5t-36 28.5t-22 27t-15 26.5l47 20q29 -88 159 -92v167q-97 11 -136.5 35.5t-39.5 74.5q0 28 19 56t64 44q40 14 93 16v56h40
v-56q95 -10 149 -54q15 -14 28 -32zM234 252v137q-52 -1 -90 -19t-38 -54q0 -31 31 -44t97 -20zM274 200v-162q64 5 95 21q48 24 48 67q0 28 -19 43q-22 17 -124 31z" />
    <glyph glyph-name="cent.denominator" horiz-adv-x="407" 
d="M363 115l40 -14q-42 -98 -171 -108v-64h-39v64q-64 4 -116 42t-52 116q0 63 43 108t125 50v63h39v-62q119 -5 166 -96l-43 -18q-29 71 -123 73v-236q100 6 131 82zM193 33v236q-54 -4 -87 -35.5t-33 -82.5q0 -34 14.5 -59.5t36 -37t39 -16.5t30.5 -5z" />
    <glyph glyph-name="sterling.denominator" horiz-adv-x="483" 
d="M39 197v39h81q-33 33 -33 83q0 21 10 40t19.5 28t17.5 14q45 32 119 32q48 0 84 -12.5t53.5 -28t28.5 -39t13 -35t4 -26.5h-50q-3 45 -32 71q-29 29 -99 29q-119 0 -119 -76q0 -40 50 -80h158v-39h-121q39 -43 39 -83q0 -17 -9 -35q5 -3 19.5 -11t22 -11.5t20 -9t23 -8
t20.5 -2.5q11 0 19 2t17.5 8t15 20.5t5.5 36.5q0 16 -1 25h44q1 -10 1 -17q0 -16 -0.5 -26.5t-6 -30t-16 -31.5t-31.5 -22t-51 -10q-51 0 -122 50q-52 -50 -115 -50q-32 0 -63 16.5t-31 54.5q0 28 21 47.5t66 19.5q44 0 104 -30q2 6 2 16q0 33 -57 81h-120zM197 63
q-51 28 -85 28q-45 0 -45 -31q0 -13 14.5 -21.5t34.5 -8.5q47 0 81 33z" />
    <glyph glyph-name="yen.denominator" horiz-adv-x="461" 
d="M455 430l-154 -193h101v-37h-128l-20 -27v-27h148v-38h-148v-108h-45v108h-156v38h156v27l-22 27h-134v37h106l-153 193h62l164 -209l165 209h58z" />
    <glyph glyph-name="florin.denominator" horiz-adv-x="237" 
d="M251 427l-5 -42q-28 6 -58 6q-27 0 -36.5 -14t-12.5 -45l-4 -39h91l-4 -41h-92l-33 -300q-7 -53 -37 -73q-25 -16 -64 -16q-32 0 -58 6l5 43q26 -7 51 -7q29 0 41 13t15 42l33 292h-63l5 41h62l7 59q2 16 6 27.5t13.5 25t28 21t45.5 7.5q40 0 64 -6z" />
    <glyph glyph-name="Euro.denominator" horiz-adv-x="512" 
d="M488 364l-23 -47q-23 34 -64 53t-88 19q-74 0 -115.5 -26.5t-60.5 -84.5h305l-17 -37h-294q-2 -21 -2 -54h281l-17 -38h-258q17 -60 60.5 -86.5t117.5 -26.5q49 0 92.5 17.5t68.5 47.5v-59q-68 -50 -164 -50q-190 0 -227 157h-54l17 38h31q0 27 3 54h-46l16 37h34
q20 76 80.5 115.5t147.5 39.5q107 0 176 -69z" />
    <glyph glyph-name="one.superior" horiz-adv-x="479" 
d="M290 415h-47v331q-43 -26 -96 -26h-17v41q62 0 87.5 19.5t39.5 65.5h33v-431z" />
    <glyph glyph-name="two.superior" horiz-adv-x="479" 
d="M423 415h-370v46q197 89 253 136q63 52 63 109q0 41 -32.5 73t-96.5 32q-61 0 -101.5 -31.5t-40.5 -95.5l-47 7q9 55 25 82q49 80 161 80q89 0 135 -44.5t46 -102.5q0 -33 -14.5 -62t-35.5 -51.5t-61 -47.5t-77 -43t-97 -46h290v-41z" />
    <glyph glyph-name="three.superior" horiz-adv-x="479" 
d="M194 619v40h71q15 0 29.5 2.5t32.5 9t29 22.5t11 38q0 43 -39 60.5t-81 17.5q-89 0 -120 -45q-14 -20 -23 -53l-44 15q33 123 187 123q77 0 122.5 -32t45.5 -87q0 -58 -66 -85q48 -12 66.5 -42.5t18.5 -56.5q0 -60 -50.5 -99.5t-141.5 -39.5q-77 0 -127 33.5t-69 84.5
l49 16q8 -21 19 -35q43 -57 131 -57q66 0 102.5 27t36.5 68q0 36 -29 55.5t-74 19.5h-87z" />
    <glyph glyph-name="period.superior" horiz-adv-x="178" 
d="M117 415h-56v71h56v-71z" />
    <glyph glyph-name="comma.superior" horiz-adv-x="178" 
d="M61 486h56v-84q0 -56 -55 -61v28q24 5 24 36v10h-25v71z" />
    <glyph glyph-name="hyphen.superior" horiz-adv-x="228" 
d="M203 576h-178v45h178v-45z" />
    <glyph glyph-name="dollar.superior" horiz-adv-x="495" 
d="M451 759l-43 -22q-42 61 -134 67v-142q105 -14 147.5 -37.5t42.5 -81.5q0 -59 -57 -97q-50 -32 -133 -35v-57h-40v57q-44 2 -79 11.5t-54 19.5t-36 28.5t-22 27t-15 26.5l47 20q29 -88 159 -92v167q-97 11 -136.5 35.5t-39.5 74.5q0 28 19 56t64 44q40 14 93 16v56h40
v-56q95 -10 149 -54q15 -14 28 -32zM234 667v137q-52 -1 -90 -19t-38 -54q0 -31 31 -44t97 -20zM274 615v-162q64 5 95 21q48 24 48 67q0 28 -19 43q-22 17 -124 31z" />
    <glyph glyph-name="cent.superior" horiz-adv-x="407" 
d="M363 530l40 -14q-42 -98 -171 -108v-64h-39v64q-64 4 -116 42t-52 116q0 63 43 108t125 50v63h39v-62q119 -5 166 -96l-43 -18q-29 71 -123 73v-236q100 6 131 82zM193 448v236q-54 -4 -87 -35.5t-33 -82.5q0 -34 14.5 -59.5t36 -37t39 -16.5t30.5 -5z" />
    <glyph glyph-name="sterling.superior" horiz-adv-x="483" 
d="M39 612v39h81q-33 33 -33 83q0 21 10 40t19.5 28t17.5 14q45 32 119 32q48 0 84 -12.5t53.5 -28t28.5 -39t13 -35t4 -26.5h-50q-3 45 -32 71q-29 29 -99 29q-119 0 -119 -76q0 -40 50 -80h158v-39h-121q39 -43 39 -83q0 -17 -9 -35q5 -3 19.5 -11t22 -11.5t20 -9t23 -8
t20.5 -2.5q11 0 19 2t17.5 8t15 20.5t5.5 36.5q0 16 -1 25h44q1 -10 1 -17q0 -16 -0.5 -26.5t-6 -30t-16 -31.5t-31.5 -22t-51 -10q-51 0 -122 50q-52 -50 -115 -50q-32 0 -63 16.5t-31 54.5q0 28 21 47.5t66 19.5q44 0 104 -30q2 6 2 16q0 33 -57 81h-120zM197 478
q-51 28 -85 28q-45 0 -45 -31q0 -13 14.5 -21.5t34.5 -8.5q47 0 81 33z" />
    <glyph glyph-name="yen.superior" horiz-adv-x="461" 
d="M455 845l-154 -193h101v-37h-128l-20 -27v-27h148v-38h-148v-108h-45v108h-156v38h156v27l-22 27h-134v37h106l-153 193h62l164 -209l165 209h58z" />
    <glyph glyph-name="florin.superior" horiz-adv-x="237" 
d="M251 842l-5 -42q-28 6 -58 6q-27 0 -36.5 -14t-12.5 -45l-4 -39h91l-4 -41h-92l-33 -300q-7 -53 -37 -73q-25 -16 -64 -16q-32 0 -58 6l5 43q26 -7 51 -7q29 0 41 13t15 42l33 292h-63l5 41h62l7 59q2 16 6 27.5t13.5 25t28 21t45.5 7.5q40 0 64 -6z" />
    <glyph glyph-name="Euro.superior" horiz-adv-x="512" 
d="M488 779l-23 -47q-23 34 -64 53t-88 19q-74 0 -115.5 -26.5t-60.5 -84.5h305l-17 -37h-294q-2 -21 -2 -54h281l-17 -38h-258q17 -60 60.5 -86.5t117.5 -26.5q49 0 92.5 17.5t68.5 47.5v-59q-68 -50 -164 -50q-190 0 -227 157h-54l17 38h31q0 27 3 54h-46l16 37h34
q20 76 80.5 115.5t147.5 39.5q107 0 176 -69z" />
    <glyph glyph-name="period.inferior" horiz-adv-x="178" 
d="M117 -150h-56v71h56v-71z" />
    <glyph glyph-name="comma.inferior" horiz-adv-x="178" 
d="M61 -79h56v-84q0 -56 -55 -61v28q24 5 24 36v10h-25v71z" />
    <glyph glyph-name="hyphen.inferior" horiz-adv-x="228" 
d="M203 11h-178v45h178v-45z" />
    <glyph glyph-name="dollar.inferior" horiz-adv-x="495" 
d="M451 194l-43 -22q-42 61 -134 67v-142q105 -14 147.5 -37.5t42.5 -81.5q0 -59 -57 -97q-50 -32 -133 -35v-57h-40v57q-44 2 -79 11.5t-54 19.5t-36 28.5t-22 27t-15 26.5l47 20q29 -88 159 -92v167q-97 11 -136.5 35.5t-39.5 74.5q0 28 19 56t64 44q40 14 93 16v56h40
v-56q95 -10 149 -54q15 -14 28 -32zM234 102v137q-52 -1 -90 -19t-38 -54q0 -31 31 -44t97 -20zM274 50v-162q64 5 95 21q48 24 48 67q0 28 -19 43q-22 17 -124 31z" />
    <glyph glyph-name="cent.inferior" horiz-adv-x="407" 
d="M363 -35l40 -14q-42 -98 -171 -108v-64h-39v64q-64 4 -116 42t-52 116q0 63 43 108t125 50v63h39v-62q119 -5 166 -96l-43 -18q-29 71 -123 73v-236q100 6 131 82zM193 -117v236q-54 -4 -87 -35.5t-33 -82.5q0 -34 14.5 -59.5t36 -37t39 -16.5t30.5 -5z" />
    <glyph glyph-name="sterling.inferior" horiz-adv-x="483" 
d="M39 47v39h81q-33 33 -33 83q0 21 10 40t19.5 28t17.5 14q45 32 119 32q48 0 84 -12.5t53.5 -28t28.5 -39t13 -35t4 -26.5h-50q-3 45 -32 71q-29 29 -99 29q-119 0 -119 -76q0 -40 50 -80h158v-39h-121q39 -43 39 -83q0 -17 -9 -35q5 -3 19.5 -11t22 -11.5t20 -9t23 -8
t20.5 -2.5q11 0 19 2t17.5 8t15 20.5t5.5 36.5q0 16 -1 25h44q1 -10 1 -17q0 -16 -0.5 -26.5t-6 -30t-16 -31.5t-31.5 -22t-51 -10q-51 0 -122 50q-52 -50 -115 -50q-32 0 -63 16.5t-31 54.5q0 28 21 47.5t66 19.5q44 0 104 -30q2 6 2 16q0 33 -57 81h-120zM197 -87
q-51 28 -85 28q-45 0 -45 -31q0 -13 14.5 -21.5t34.5 -8.5q47 0 81 33z" />
    <glyph glyph-name="yen.inferior" horiz-adv-x="461" 
d="M455 280l-154 -193h101v-37h-128l-20 -27v-27h148v-38h-148v-108h-45v108h-156v38h156v27l-22 27h-134v37h106l-153 193h62l164 -209l165 209h58z" />
    <glyph glyph-name="florin.inferior" horiz-adv-x="237" 
d="M251 277l-5 -42q-28 6 -58 6q-27 0 -36.5 -14t-12.5 -45l-4 -39h91l-4 -41h-92l-33 -300q-7 -53 -37 -73q-25 -16 -64 -16q-32 0 -58 6l5 43q26 -7 51 -7q29 0 41 13t15 42l33 292h-63l5 41h62l7 59q2 16 6 27.5t13.5 25t28 21t45.5 7.5q40 0 64 -6z" />
    <glyph glyph-name="Euro.inferior" horiz-adv-x="512" 
d="M488 214l-23 -47q-23 34 -64 53t-88 19q-74 0 -115.5 -26.5t-60.5 -84.5h305l-17 -37h-294q-2 -21 -2 -54h281l-17 -38h-258q17 -60 60.5 -86.5t117.5 -26.5q49 0 92.5 17.5t68.5 47.5v-59q-68 -50 -164 -50q-190 0 -227 157h-54l17 38h31q0 27 3 54h-46l16 37h34
q20 76 80.5 115.5t147.5 39.5q107 0 176 -69z" />
    <glyph glyph-name="zero.fitted" horiz-adv-x="727" 
d="M697 344q0 -87 -36 -164t-103 -127q-86 -64 -199 -64q-145 0 -237 103.5t-92 252.5q0 122 62 215q14 20 34 40t53.5 45t82.5 40.5t104 15.5q25 0 52.5 -4.5t65 -17t76 -40.5t67.5 -69q70 -95 70 -226zM624 348q0 150 -91 229q-72 62 -170 62q-67 0 -127 -32
q-69 -37 -101.5 -108t-32.5 -157q0 -65 17 -114q27 -81 92.5 -129t150.5 -48q57 0 104 21q63 27 110.5 94t47.5 182z" />
    <glyph glyph-name="one.fitted" horiz-adv-x="399" 
d="M282 0h-69v543q-60 -47 -170 -47h-13v57q54 0 91 10t68.5 42t46.5 88h46v-693z" />
    <glyph glyph-name="two.fitted" horiz-adv-x="656" 
d="M627 0h-597v64q243 112 326 162q162 98 186 201q5 21 5 42q0 14 -3.5 31.5t-17 44t-35.5 47t-63.5 35.5t-96.5 15q-70 0 -129 -28t-85 -85q-18 -39 -18 -93l-69 11q12 122 92.5 188.5t211.5 66.5q120 0 199 -63q85 -67 85 -170q0 -48 -21 -97q-22 -51 -71 -96.5
t-143 -100.5q-87 -51 -246 -116h490v-59z" />
    <glyph glyph-name="three.fitted" horiz-adv-x="678" 
d="M262 330v59h121q44 0 75 11q11 4 22.5 10t28 19t26.5 34t10 47q0 35 -18.5 61t-42.5 39t-57 20t-52 8.5t-37 1.5q-19 0 -35 -1t-50 -9.5t-60 -23.5t-51 -46.5t-35 -75.5l-66 22q63 194 297 194q76 0 132.5 -19t86 -49.5t43 -61.5t13.5 -62q0 -53 -33 -90t-92 -50
q30 -3 62.5 -19t61 -54.5t28.5 -90.5q0 -100 -87 -160q-81 -56 -218 -56q-122 0 -203 51q-76 48 -113 133l71 24q27 -61 67 -92q72 -58 184 -58q98 0 164.5 41.5t66.5 116.5q0 39 -25 70q-28 35 -71 45.5t-101 10.5h-113z" />
    <glyph glyph-name="four.fitted" horiz-adv-x="703" 
d="M675 185h-149v-185h-67v185h-435v59l428 451h74v-451h149v-59zM459 244v376l-355 -376h355z" />
    <glyph glyph-name="five.fitted" horiz-adv-x="685" 
d="M608 632h-468l-14 -234q82 86 235 86q99 0 162.5 -35t95.5 -83q37 -53 37 -125q0 -64 -34 -120q-32 -53 -101 -92.5t-177 -39.5q-130 0 -217 59q-68 47 -97 125l68 19q20 -69 81.5 -107t157.5 -38q59 0 113.5 18t96.5 64t42 113q0 49 -23.5 86.5t-61 57.5t-77 30
t-78.5 10q-114 0 -187 -66q-16 -14 -41 -46h-63l22 374h528v-56z" />
    <glyph glyph-name="six.fitted" horiz-adv-x="699" 
d="M662 548l-63 -29q-81 118 -231 118q-59 0 -106 -20t-75.5 -51.5t-47.5 -74t-26.5 -82.5t-8.5 -81q25 66 104.5 98t164.5 32q21 0 44.5 -2.5t66.5 -11t84 -33t69 -60.5q42 -54 42 -120q0 -64 -37 -119q-42 -62 -116.5 -92.5t-157.5 -30.5q-69 0 -132 22q-44 16 -78.5 41
t-55 55t-34 59t-19 61t-7.5 52t-2 40q0 75 16.5 136t43.5 100.5t53 63t55 39.5q73 40 167 40q132 0 218 -72q31 -26 69 -78zM132 230q0 -36 15 -67.5t29.5 -46t29.5 -24.5q59 -41 159 -41q145 0 211 81q35 44 35 96q0 68 -60.5 118t-182.5 50q-98 0 -167 -42.5t-69 -123.5z
" />
    <glyph glyph-name="seven.fitted" horiz-adv-x="596" 
d="M591 688v-50q-89 -64 -176 -191q-160 -236 -160 -447h-75q0 65 18.5 137.5t47 134t48.5 98t37 63.5q60 90 161 195h-503v60h602z" />
    </font>
</defs>
</svg>
